%TF.GenerationSoftware,KiCad,Pcbnew,8.0.0*%
%TF.CreationDate,2024-05-17T03:15:10+03:00*%
%TF.ProjectId,pressure_sensor_sensor,70726573-7375-4726-955f-73656e736f72,rev?*%
%TF.SameCoordinates,Original*%
%TF.FileFunction,Copper,L1,Top*%
%TF.FilePolarity,Positive*%
%FSLAX46Y46*%
G04 Gerber Fmt 4.6, Leading zero omitted, Abs format (unit mm)*
G04 Created by KiCad (PCBNEW 8.0.0) date 2024-05-17 03:15:10*
%MOMM*%
%LPD*%
G01*
G04 APERTURE LIST*
G04 Aperture macros list*
%AMHorizOval*
0 Thick line with rounded ends*
0 $1 width*
0 $2 $3 position (X,Y) of the first rounded end (center of the circle)*
0 $4 $5 position (X,Y) of the second rounded end (center of the circle)*
0 Add line between two ends*
20,1,$1,$2,$3,$4,$5,0*
0 Add two circle primitives to create the rounded ends*
1,1,$1,$2,$3*
1,1,$1,$4,$5*%
%AMRotRect*
0 Rectangle, with rotation*
0 The origin of the aperture is its center*
0 $1 length*
0 $2 width*
0 $3 Rotation angle, in degrees counterclockwise*
0 Add horizontal line*
21,1,$1,$2,0,0,$3*%
G04 Aperture macros list end*
%TA.AperFunction,ComponentPad*%
%ADD10R,0.850000X0.850000*%
%TD*%
%TA.AperFunction,ComponentPad*%
%ADD11RotRect,0.850000X0.850000X45.000000*%
%TD*%
%TA.AperFunction,ComponentPad*%
%ADD12HorizOval,0.850000X0.000000X0.000000X0.000000X0.000000X0*%
%TD*%
%TA.AperFunction,ComponentPad*%
%ADD13RotRect,0.850000X0.850000X135.000000*%
%TD*%
%TA.AperFunction,ComponentPad*%
%ADD14HorizOval,0.850000X0.000000X0.000000X0.000000X0.000000X0*%
%TD*%
%TA.AperFunction,ComponentPad*%
%ADD15RotRect,0.850000X0.850000X225.000000*%
%TD*%
%TA.AperFunction,ComponentPad*%
%ADD16HorizOval,0.850000X0.000000X0.000000X0.000000X0.000000X0*%
%TD*%
%TA.AperFunction,Conductor*%
%ADD17C,0.300000*%
%TD*%
G04 APERTURE END LIST*
D10*
%TO.P,J12,1,Pin_1*%
%TO.N,/Ap*%
X236238816Y-82197656D03*
%TD*%
D11*
%TO.P,J10,1,Pin_1*%
%TO.N,/An*%
X232408296Y-67901956D03*
D12*
%TO.P,J10,2,Pin_2*%
%TO.N,+3.3VA*%
X233115403Y-68609063D03*
%TD*%
D10*
%TO.P,J14,1,Pin_1*%
%TO.N,GNDA*%
X207647416Y-82197656D03*
%TD*%
D13*
%TO.P,J7,1,Pin_1*%
%TO.N,+3.3VA*%
X232408296Y-88832316D03*
D14*
%TO.P,J7,2,Pin_2*%
%TO.N,/Ap*%
X233115403Y-88125209D03*
%TD*%
D10*
%TO.P,J1,1,Pin_1*%
%TO.N,+3.3VA*%
X236238816Y-74536616D03*
%TD*%
%TO.P,J16,1,Pin_1*%
%TO.N,/An*%
X218112596Y-92662836D03*
%TD*%
%TO.P,J18,1,Pin_1*%
%TO.N,GNDA*%
X218112596Y-64071436D03*
%TD*%
%TO.P,J13,1,Pin_1*%
%TO.N,/Ap*%
X207647416Y-74536616D03*
%TD*%
D13*
%TO.P,J8,1,Pin_1*%
%TO.N,/Ap*%
X211477936Y-67901956D03*
D14*
%TO.P,J8,2,Pin_2*%
%TO.N,GNDA*%
X212185043Y-67194849D03*
%TD*%
D10*
%TO.P,J17,1,Pin_1*%
%TO.N,/An*%
X225773636Y-64071436D03*
%TD*%
%TO.P,J15,1,Pin_1*%
%TO.N,+3.3VA*%
X225773636Y-92662836D03*
%TD*%
D15*
%TO.P,J9,1,Pin_1*%
%TO.N,/An*%
X211477936Y-88832316D03*
D16*
%TO.P,J9,2,Pin_2*%
%TO.N,GNDA*%
X210770829Y-88125209D03*
%TD*%
D17*
%TO.N,+3.3VA*%
X225773636Y-92662836D02*
X228577776Y-92662836D01*
X228577776Y-92662836D02*
X232408296Y-88832316D01*
X236238816Y-74536616D02*
X236238816Y-71732476D01*
X236238816Y-71732476D02*
X233115403Y-68609063D01*
%TO.N,/Ap*%
X232944469Y-87954275D02*
X229330977Y-87954275D01*
X236238816Y-82197656D02*
X236238816Y-85001796D01*
X226318116Y-90967136D02*
X217649286Y-90967136D01*
X236238816Y-85001796D02*
X233115403Y-88125209D01*
X207647416Y-74536616D02*
X207647416Y-71732476D01*
X211768116Y-86767136D02*
X211768116Y-84970656D01*
X207647416Y-71732476D02*
X211477936Y-67901956D01*
X217649286Y-90967136D02*
X215624286Y-88942136D01*
X213943116Y-88942136D02*
X211768116Y-86767136D01*
X233115403Y-88125209D02*
X232944469Y-87954275D01*
X207647416Y-80849956D02*
X207647416Y-74536616D01*
X211768116Y-84970656D02*
X207647416Y-80849956D01*
X229330977Y-87954275D02*
X226318116Y-90967136D01*
X215624286Y-88942136D02*
X213943116Y-88942136D01*
%TO.N,GNDA*%
X215308456Y-64071436D02*
X212185043Y-67194849D01*
X207647416Y-85001796D02*
X210770829Y-88125209D01*
X207647416Y-82197656D02*
X207647416Y-85001796D01*
X218112596Y-64071436D02*
X215308456Y-64071436D01*
%TO.N,/An*%
X218112596Y-92662836D02*
X215308456Y-92662836D01*
X225773636Y-64071436D02*
X228577776Y-64071436D01*
X215308456Y-92662836D02*
X211477936Y-88832316D01*
X228577776Y-64071436D02*
X232408296Y-67901956D01*
%TD*%
M02*
