%TF.GenerationSoftware,KiCad,Pcbnew,8.0.0*%
%TF.CreationDate,2024-05-17T03:15:10+03:00*%
%TF.ProjectId,pressure_sensor_sensor,70726573-7375-4726-955f-73656e736f72,rev?*%
%TF.SameCoordinates,Original*%
%TF.FileFunction,Legend,Bot*%
%TF.FilePolarity,Positive*%
%FSLAX46Y46*%
G04 Gerber Fmt 4.6, Leading zero omitted, Abs format (unit mm)*
G04 Created by KiCad (PCBNEW 8.0.0) date 2024-05-17 03:15:10*
%MOMM*%
%LPD*%
G01*
G04 APERTURE LIST*
%ADD10C,0.200000*%
G04 APERTURE END LIST*
D10*
X232598442Y-90703402D02*
X231836538Y-90703402D01*
X232217490Y-91084355D02*
X232217490Y-90322450D01*
X231455585Y-90084355D02*
X230836538Y-90084355D01*
X230836538Y-90084355D02*
X231169871Y-90465307D01*
X231169871Y-90465307D02*
X231027014Y-90465307D01*
X231027014Y-90465307D02*
X230931776Y-90512926D01*
X230931776Y-90512926D02*
X230884157Y-90560545D01*
X230884157Y-90560545D02*
X230836538Y-90655783D01*
X230836538Y-90655783D02*
X230836538Y-90893878D01*
X230836538Y-90893878D02*
X230884157Y-90989116D01*
X230884157Y-90989116D02*
X230931776Y-91036736D01*
X230931776Y-91036736D02*
X231027014Y-91084355D01*
X231027014Y-91084355D02*
X231312728Y-91084355D01*
X231312728Y-91084355D02*
X231407966Y-91036736D01*
X231407966Y-91036736D02*
X231455585Y-90989116D01*
X230407966Y-90989116D02*
X230360347Y-91036736D01*
X230360347Y-91036736D02*
X230407966Y-91084355D01*
X230407966Y-91084355D02*
X230455585Y-91036736D01*
X230455585Y-91036736D02*
X230407966Y-90989116D01*
X230407966Y-90989116D02*
X230407966Y-91084355D01*
X230027014Y-90084355D02*
X229407967Y-90084355D01*
X229407967Y-90084355D02*
X229741300Y-90465307D01*
X229741300Y-90465307D02*
X229598443Y-90465307D01*
X229598443Y-90465307D02*
X229503205Y-90512926D01*
X229503205Y-90512926D02*
X229455586Y-90560545D01*
X229455586Y-90560545D02*
X229407967Y-90655783D01*
X229407967Y-90655783D02*
X229407967Y-90893878D01*
X229407967Y-90893878D02*
X229455586Y-90989116D01*
X229455586Y-90989116D02*
X229503205Y-91036736D01*
X229503205Y-91036736D02*
X229598443Y-91084355D01*
X229598443Y-91084355D02*
X229884157Y-91084355D01*
X229884157Y-91084355D02*
X229979395Y-91036736D01*
X229979395Y-91036736D02*
X230027014Y-90989116D01*
X229122252Y-90084355D02*
X228788919Y-91084355D01*
X228788919Y-91084355D02*
X228455586Y-90084355D01*
X210446061Y-69398640D02*
X209969871Y-69398640D01*
X210541299Y-69684355D02*
X210207966Y-68684355D01*
X210207966Y-68684355D02*
X209874633Y-69684355D01*
X209541299Y-69303402D02*
X208779395Y-69303402D01*
X209160347Y-69684355D02*
X209160347Y-68922450D01*
X214874633Y-65281974D02*
X214969871Y-65234355D01*
X214969871Y-65234355D02*
X215112728Y-65234355D01*
X215112728Y-65234355D02*
X215255585Y-65281974D01*
X215255585Y-65281974D02*
X215350823Y-65377212D01*
X215350823Y-65377212D02*
X215398442Y-65472450D01*
X215398442Y-65472450D02*
X215446061Y-65662926D01*
X215446061Y-65662926D02*
X215446061Y-65805783D01*
X215446061Y-65805783D02*
X215398442Y-65996259D01*
X215398442Y-65996259D02*
X215350823Y-66091497D01*
X215350823Y-66091497D02*
X215255585Y-66186736D01*
X215255585Y-66186736D02*
X215112728Y-66234355D01*
X215112728Y-66234355D02*
X215017490Y-66234355D01*
X215017490Y-66234355D02*
X214874633Y-66186736D01*
X214874633Y-66186736D02*
X214827014Y-66139116D01*
X214827014Y-66139116D02*
X214827014Y-65805783D01*
X214827014Y-65805783D02*
X215017490Y-65805783D01*
X214398442Y-66234355D02*
X214398442Y-65234355D01*
X214398442Y-65234355D02*
X213827014Y-66234355D01*
X213827014Y-66234355D02*
X213827014Y-65234355D01*
X213350823Y-66234355D02*
X213350823Y-65234355D01*
X213350823Y-65234355D02*
X213112728Y-65234355D01*
X213112728Y-65234355D02*
X212969871Y-65281974D01*
X212969871Y-65281974D02*
X212874633Y-65377212D01*
X212874633Y-65377212D02*
X212827014Y-65472450D01*
X212827014Y-65472450D02*
X212779395Y-65662926D01*
X212779395Y-65662926D02*
X212779395Y-65805783D01*
X212779395Y-65805783D02*
X212827014Y-65996259D01*
X212827014Y-65996259D02*
X212874633Y-66091497D01*
X212874633Y-66091497D02*
X212969871Y-66186736D01*
X212969871Y-66186736D02*
X213112728Y-66234355D01*
X213112728Y-66234355D02*
X213350823Y-66234355D01*
X235948442Y-70878402D02*
X235186538Y-70878402D01*
X235567490Y-71259355D02*
X235567490Y-70497450D01*
X234805585Y-70259355D02*
X234186538Y-70259355D01*
X234186538Y-70259355D02*
X234519871Y-70640307D01*
X234519871Y-70640307D02*
X234377014Y-70640307D01*
X234377014Y-70640307D02*
X234281776Y-70687926D01*
X234281776Y-70687926D02*
X234234157Y-70735545D01*
X234234157Y-70735545D02*
X234186538Y-70830783D01*
X234186538Y-70830783D02*
X234186538Y-71068878D01*
X234186538Y-71068878D02*
X234234157Y-71164116D01*
X234234157Y-71164116D02*
X234281776Y-71211736D01*
X234281776Y-71211736D02*
X234377014Y-71259355D01*
X234377014Y-71259355D02*
X234662728Y-71259355D01*
X234662728Y-71259355D02*
X234757966Y-71211736D01*
X234757966Y-71211736D02*
X234805585Y-71164116D01*
X233757966Y-71164116D02*
X233710347Y-71211736D01*
X233710347Y-71211736D02*
X233757966Y-71259355D01*
X233757966Y-71259355D02*
X233805585Y-71211736D01*
X233805585Y-71211736D02*
X233757966Y-71164116D01*
X233757966Y-71164116D02*
X233757966Y-71259355D01*
X233377014Y-70259355D02*
X232757967Y-70259355D01*
X232757967Y-70259355D02*
X233091300Y-70640307D01*
X233091300Y-70640307D02*
X232948443Y-70640307D01*
X232948443Y-70640307D02*
X232853205Y-70687926D01*
X232853205Y-70687926D02*
X232805586Y-70735545D01*
X232805586Y-70735545D02*
X232757967Y-70830783D01*
X232757967Y-70830783D02*
X232757967Y-71068878D01*
X232757967Y-71068878D02*
X232805586Y-71164116D01*
X232805586Y-71164116D02*
X232853205Y-71211736D01*
X232853205Y-71211736D02*
X232948443Y-71259355D01*
X232948443Y-71259355D02*
X233234157Y-71259355D01*
X233234157Y-71259355D02*
X233329395Y-71211736D01*
X233329395Y-71211736D02*
X233377014Y-71164116D01*
X232472252Y-70259355D02*
X232138919Y-71259355D01*
X232138919Y-71259355D02*
X231805586Y-70259355D01*
X209874633Y-85806974D02*
X209969871Y-85759355D01*
X209969871Y-85759355D02*
X210112728Y-85759355D01*
X210112728Y-85759355D02*
X210255585Y-85806974D01*
X210255585Y-85806974D02*
X210350823Y-85902212D01*
X210350823Y-85902212D02*
X210398442Y-85997450D01*
X210398442Y-85997450D02*
X210446061Y-86187926D01*
X210446061Y-86187926D02*
X210446061Y-86330783D01*
X210446061Y-86330783D02*
X210398442Y-86521259D01*
X210398442Y-86521259D02*
X210350823Y-86616497D01*
X210350823Y-86616497D02*
X210255585Y-86711736D01*
X210255585Y-86711736D02*
X210112728Y-86759355D01*
X210112728Y-86759355D02*
X210017490Y-86759355D01*
X210017490Y-86759355D02*
X209874633Y-86711736D01*
X209874633Y-86711736D02*
X209827014Y-86664116D01*
X209827014Y-86664116D02*
X209827014Y-86330783D01*
X209827014Y-86330783D02*
X210017490Y-86330783D01*
X209398442Y-86759355D02*
X209398442Y-85759355D01*
X209398442Y-85759355D02*
X208827014Y-86759355D01*
X208827014Y-86759355D02*
X208827014Y-85759355D01*
X208350823Y-86759355D02*
X208350823Y-85759355D01*
X208350823Y-85759355D02*
X208112728Y-85759355D01*
X208112728Y-85759355D02*
X207969871Y-85806974D01*
X207969871Y-85806974D02*
X207874633Y-85902212D01*
X207874633Y-85902212D02*
X207827014Y-85997450D01*
X207827014Y-85997450D02*
X207779395Y-86187926D01*
X207779395Y-86187926D02*
X207779395Y-86330783D01*
X207779395Y-86330783D02*
X207827014Y-86521259D01*
X207827014Y-86521259D02*
X207874633Y-86616497D01*
X207874633Y-86616497D02*
X207969871Y-86711736D01*
X207969871Y-86711736D02*
X208112728Y-86759355D01*
X208112728Y-86759355D02*
X208350823Y-86759355D01*
X213596061Y-90223640D02*
X213119871Y-90223640D01*
X213691299Y-90509355D02*
X213357966Y-89509355D01*
X213357966Y-89509355D02*
X213024633Y-90509355D01*
X212691299Y-90128402D02*
X211929395Y-90128402D01*
X231521061Y-66523640D02*
X231044871Y-66523640D01*
X231616299Y-66809355D02*
X231282966Y-65809355D01*
X231282966Y-65809355D02*
X230949633Y-66809355D01*
X230616299Y-66428402D02*
X229854395Y-66428402D01*
X235246061Y-86498640D02*
X234769871Y-86498640D01*
X235341299Y-86784355D02*
X235007966Y-85784355D01*
X235007966Y-85784355D02*
X234674633Y-86784355D01*
X234341299Y-86403402D02*
X233579395Y-86403402D01*
X233960347Y-86784355D02*
X233960347Y-86022450D01*
M02*
