%TF.GenerationSoftware,KiCad,Pcbnew,8.0.0*%
%TF.CreationDate,2024-05-17T03:15:10+03:00*%
%TF.ProjectId,pressure_sensor_sensor,70726573-7375-4726-955f-73656e736f72,rev?*%
%TF.SameCoordinates,Original*%
%TF.FileFunction,Legend,Top*%
%TF.FilePolarity,Positive*%
%FSLAX46Y46*%
G04 Gerber Fmt 4.6, Leading zero omitted, Abs format (unit mm)*
G04 Created by KiCad (PCBNEW 8.0.0) date 2024-05-17 03:15:10*
%MOMM*%
%LPD*%
G01*
G04 APERTURE LIST*
%ADD10C,0.200000*%
G04 APERTURE END LIST*
D10*
X219443116Y-63867136D02*
X224443116Y-63867136D01*
X224443116Y-70867136D01*
X219443116Y-70867136D01*
X219443116Y-63867136D01*
X219443116Y-85867136D02*
X224443116Y-85867136D01*
X224443116Y-92867136D01*
X219443116Y-92867136D01*
X219443116Y-85867136D01*
X229443116Y-75867136D02*
X236443116Y-75867136D01*
X236443116Y-80867136D01*
X229443116Y-80867136D01*
X229443116Y-75867136D01*
X207443116Y-75867136D02*
X214443116Y-75867136D01*
X214443116Y-80867136D01*
X207443116Y-80867136D01*
X207443116Y-75867136D01*
X234562156Y-83807739D02*
X234562156Y-84522024D01*
X234562156Y-84522024D02*
X234514537Y-84664881D01*
X234514537Y-84664881D02*
X234419299Y-84760120D01*
X234419299Y-84760120D02*
X234276442Y-84807739D01*
X234276442Y-84807739D02*
X234181204Y-84807739D01*
X235562156Y-84807739D02*
X234990728Y-84807739D01*
X235276442Y-84807739D02*
X235276442Y-83807739D01*
X235276442Y-83807739D02*
X235181204Y-83950596D01*
X235181204Y-83950596D02*
X235085966Y-84045834D01*
X235085966Y-84045834D02*
X234990728Y-84093453D01*
X235943109Y-83902977D02*
X235990728Y-83855358D01*
X235990728Y-83855358D02*
X236085966Y-83807739D01*
X236085966Y-83807739D02*
X236324061Y-83807739D01*
X236324061Y-83807739D02*
X236419299Y-83855358D01*
X236419299Y-83855358D02*
X236466918Y-83902977D01*
X236466918Y-83902977D02*
X236514537Y-83998215D01*
X236514537Y-83998215D02*
X236514537Y-84093453D01*
X236514537Y-84093453D02*
X236466918Y-84236310D01*
X236466918Y-84236310D02*
X235895490Y-84807739D01*
X235895490Y-84807739D02*
X236514537Y-84807739D01*
X233563743Y-70094146D02*
X233563743Y-70808431D01*
X233563743Y-70808431D02*
X233516124Y-70951288D01*
X233516124Y-70951288D02*
X233420886Y-71046527D01*
X233420886Y-71046527D02*
X233278029Y-71094146D01*
X233278029Y-71094146D02*
X233182791Y-71094146D01*
X234563743Y-71094146D02*
X233992315Y-71094146D01*
X234278029Y-71094146D02*
X234278029Y-70094146D01*
X234278029Y-70094146D02*
X234182791Y-70237003D01*
X234182791Y-70237003D02*
X234087553Y-70332241D01*
X234087553Y-70332241D02*
X233992315Y-70379860D01*
X235182791Y-70094146D02*
X235278029Y-70094146D01*
X235278029Y-70094146D02*
X235373267Y-70141765D01*
X235373267Y-70141765D02*
X235420886Y-70189384D01*
X235420886Y-70189384D02*
X235468505Y-70284622D01*
X235468505Y-70284622D02*
X235516124Y-70475098D01*
X235516124Y-70475098D02*
X235516124Y-70713193D01*
X235516124Y-70713193D02*
X235468505Y-70903669D01*
X235468505Y-70903669D02*
X235420886Y-70998907D01*
X235420886Y-70998907D02*
X235373267Y-71046527D01*
X235373267Y-71046527D02*
X235278029Y-71094146D01*
X235278029Y-71094146D02*
X235182791Y-71094146D01*
X235182791Y-71094146D02*
X235087553Y-71046527D01*
X235087553Y-71046527D02*
X235039934Y-70998907D01*
X235039934Y-70998907D02*
X234992315Y-70903669D01*
X234992315Y-70903669D02*
X234944696Y-70713193D01*
X234944696Y-70713193D02*
X234944696Y-70475098D01*
X234944696Y-70475098D02*
X234992315Y-70284622D01*
X234992315Y-70284622D02*
X235039934Y-70189384D01*
X235039934Y-70189384D02*
X235087553Y-70141765D01*
X235087553Y-70141765D02*
X235182791Y-70094146D01*
X207720756Y-83682739D02*
X207720756Y-84397024D01*
X207720756Y-84397024D02*
X207673137Y-84539881D01*
X207673137Y-84539881D02*
X207577899Y-84635120D01*
X207577899Y-84635120D02*
X207435042Y-84682739D01*
X207435042Y-84682739D02*
X207339804Y-84682739D01*
X208720756Y-84682739D02*
X208149328Y-84682739D01*
X208435042Y-84682739D02*
X208435042Y-83682739D01*
X208435042Y-83682739D02*
X208339804Y-83825596D01*
X208339804Y-83825596D02*
X208244566Y-83920834D01*
X208244566Y-83920834D02*
X208149328Y-83968453D01*
X209577899Y-84016072D02*
X209577899Y-84682739D01*
X209339804Y-83635120D02*
X209101709Y-84349405D01*
X209101709Y-84349405D02*
X209720756Y-84349405D01*
X234132826Y-86042399D02*
X234132826Y-86756684D01*
X234132826Y-86756684D02*
X234085207Y-86899541D01*
X234085207Y-86899541D02*
X233989969Y-86994780D01*
X233989969Y-86994780D02*
X233847112Y-87042399D01*
X233847112Y-87042399D02*
X233751874Y-87042399D01*
X234513779Y-86042399D02*
X235180445Y-86042399D01*
X235180445Y-86042399D02*
X234751874Y-87042399D01*
X235513346Y-72021699D02*
X235513346Y-72735984D01*
X235513346Y-72735984D02*
X235465727Y-72878841D01*
X235465727Y-72878841D02*
X235370489Y-72974080D01*
X235370489Y-72974080D02*
X235227632Y-73021699D01*
X235227632Y-73021699D02*
X235132394Y-73021699D01*
X236513346Y-73021699D02*
X235941918Y-73021699D01*
X236227632Y-73021699D02*
X236227632Y-72021699D01*
X236227632Y-72021699D02*
X236132394Y-72164556D01*
X236132394Y-72164556D02*
X236037156Y-72259794D01*
X236037156Y-72259794D02*
X235941918Y-72307413D01*
X214808592Y-91144355D02*
X214808592Y-91858640D01*
X214808592Y-91858640D02*
X214760973Y-92001497D01*
X214760973Y-92001497D02*
X214665735Y-92096736D01*
X214665735Y-92096736D02*
X214522878Y-92144355D01*
X214522878Y-92144355D02*
X214427640Y-92144355D01*
X215808592Y-92144355D02*
X215237164Y-92144355D01*
X215522878Y-92144355D02*
X215522878Y-91144355D01*
X215522878Y-91144355D02*
X215427640Y-91287212D01*
X215427640Y-91287212D02*
X215332402Y-91382450D01*
X215332402Y-91382450D02*
X215237164Y-91430069D01*
X216665735Y-91144355D02*
X216475259Y-91144355D01*
X216475259Y-91144355D02*
X216380021Y-91191974D01*
X216380021Y-91191974D02*
X216332402Y-91239593D01*
X216332402Y-91239593D02*
X216237164Y-91382450D01*
X216237164Y-91382450D02*
X216189545Y-91572926D01*
X216189545Y-91572926D02*
X216189545Y-91953878D01*
X216189545Y-91953878D02*
X216237164Y-92049116D01*
X216237164Y-92049116D02*
X216284783Y-92096736D01*
X216284783Y-92096736D02*
X216380021Y-92144355D01*
X216380021Y-92144355D02*
X216570497Y-92144355D01*
X216570497Y-92144355D02*
X216665735Y-92096736D01*
X216665735Y-92096736D02*
X216713354Y-92049116D01*
X216713354Y-92049116D02*
X216760973Y-91953878D01*
X216760973Y-91953878D02*
X216760973Y-91715783D01*
X216760973Y-91715783D02*
X216713354Y-91620545D01*
X216713354Y-91620545D02*
X216665735Y-91572926D01*
X216665735Y-91572926D02*
X216570497Y-91525307D01*
X216570497Y-91525307D02*
X216380021Y-91525307D01*
X216380021Y-91525307D02*
X216284783Y-91572926D01*
X216284783Y-91572926D02*
X216237164Y-91620545D01*
X216237164Y-91620545D02*
X216189545Y-91715783D01*
X214535936Y-64656519D02*
X214535936Y-65370804D01*
X214535936Y-65370804D02*
X214488317Y-65513661D01*
X214488317Y-65513661D02*
X214393079Y-65608900D01*
X214393079Y-65608900D02*
X214250222Y-65656519D01*
X214250222Y-65656519D02*
X214154984Y-65656519D01*
X215535936Y-65656519D02*
X214964508Y-65656519D01*
X215250222Y-65656519D02*
X215250222Y-64656519D01*
X215250222Y-64656519D02*
X215154984Y-64799376D01*
X215154984Y-64799376D02*
X215059746Y-64894614D01*
X215059746Y-64894614D02*
X214964508Y-64942233D01*
X216107365Y-65085090D02*
X216012127Y-65037471D01*
X216012127Y-65037471D02*
X215964508Y-64989852D01*
X215964508Y-64989852D02*
X215916889Y-64894614D01*
X215916889Y-64894614D02*
X215916889Y-64846995D01*
X215916889Y-64846995D02*
X215964508Y-64751757D01*
X215964508Y-64751757D02*
X216012127Y-64704138D01*
X216012127Y-64704138D02*
X216107365Y-64656519D01*
X216107365Y-64656519D02*
X216297841Y-64656519D01*
X216297841Y-64656519D02*
X216393079Y-64704138D01*
X216393079Y-64704138D02*
X216440698Y-64751757D01*
X216440698Y-64751757D02*
X216488317Y-64846995D01*
X216488317Y-64846995D02*
X216488317Y-64894614D01*
X216488317Y-64894614D02*
X216440698Y-64989852D01*
X216440698Y-64989852D02*
X216393079Y-65037471D01*
X216393079Y-65037471D02*
X216297841Y-65085090D01*
X216297841Y-65085090D02*
X216107365Y-65085090D01*
X216107365Y-65085090D02*
X216012127Y-65132709D01*
X216012127Y-65132709D02*
X215964508Y-65180328D01*
X215964508Y-65180328D02*
X215916889Y-65275566D01*
X215916889Y-65275566D02*
X215916889Y-65466042D01*
X215916889Y-65466042D02*
X215964508Y-65561280D01*
X215964508Y-65561280D02*
X216012127Y-65608900D01*
X216012127Y-65608900D02*
X216107365Y-65656519D01*
X216107365Y-65656519D02*
X216297841Y-65656519D01*
X216297841Y-65656519D02*
X216393079Y-65608900D01*
X216393079Y-65608900D02*
X216440698Y-65561280D01*
X216440698Y-65561280D02*
X216488317Y-65466042D01*
X216488317Y-65466042D02*
X216488317Y-65275566D01*
X216488317Y-65275566D02*
X216440698Y-65180328D01*
X216440698Y-65180328D02*
X216393079Y-65132709D01*
X216393079Y-65132709D02*
X216297841Y-65085090D01*
X207645756Y-71871699D02*
X207645756Y-72585984D01*
X207645756Y-72585984D02*
X207598137Y-72728841D01*
X207598137Y-72728841D02*
X207502899Y-72824080D01*
X207502899Y-72824080D02*
X207360042Y-72871699D01*
X207360042Y-72871699D02*
X207264804Y-72871699D01*
X208645756Y-72871699D02*
X208074328Y-72871699D01*
X208360042Y-72871699D02*
X208360042Y-71871699D01*
X208360042Y-71871699D02*
X208264804Y-72014556D01*
X208264804Y-72014556D02*
X208169566Y-72109794D01*
X208169566Y-72109794D02*
X208074328Y-72157413D01*
X208979090Y-71871699D02*
X209598137Y-71871699D01*
X209598137Y-71871699D02*
X209264804Y-72252651D01*
X209264804Y-72252651D02*
X209407661Y-72252651D01*
X209407661Y-72252651D02*
X209502899Y-72300270D01*
X209502899Y-72300270D02*
X209550518Y-72347889D01*
X209550518Y-72347889D02*
X209598137Y-72443127D01*
X209598137Y-72443127D02*
X209598137Y-72681222D01*
X209598137Y-72681222D02*
X209550518Y-72776460D01*
X209550518Y-72776460D02*
X209502899Y-72824080D01*
X209502899Y-72824080D02*
X209407661Y-72871699D01*
X209407661Y-72871699D02*
X209121947Y-72871699D01*
X209121947Y-72871699D02*
X209026709Y-72824080D01*
X209026709Y-72824080D02*
X208979090Y-72776460D01*
X209459782Y-68719355D02*
X209459782Y-69433640D01*
X209459782Y-69433640D02*
X209412163Y-69576497D01*
X209412163Y-69576497D02*
X209316925Y-69671736D01*
X209316925Y-69671736D02*
X209174068Y-69719355D01*
X209174068Y-69719355D02*
X209078830Y-69719355D01*
X210078830Y-69147926D02*
X209983592Y-69100307D01*
X209983592Y-69100307D02*
X209935973Y-69052688D01*
X209935973Y-69052688D02*
X209888354Y-68957450D01*
X209888354Y-68957450D02*
X209888354Y-68909831D01*
X209888354Y-68909831D02*
X209935973Y-68814593D01*
X209935973Y-68814593D02*
X209983592Y-68766974D01*
X209983592Y-68766974D02*
X210078830Y-68719355D01*
X210078830Y-68719355D02*
X210269306Y-68719355D01*
X210269306Y-68719355D02*
X210364544Y-68766974D01*
X210364544Y-68766974D02*
X210412163Y-68814593D01*
X210412163Y-68814593D02*
X210459782Y-68909831D01*
X210459782Y-68909831D02*
X210459782Y-68957450D01*
X210459782Y-68957450D02*
X210412163Y-69052688D01*
X210412163Y-69052688D02*
X210364544Y-69100307D01*
X210364544Y-69100307D02*
X210269306Y-69147926D01*
X210269306Y-69147926D02*
X210078830Y-69147926D01*
X210078830Y-69147926D02*
X209983592Y-69195545D01*
X209983592Y-69195545D02*
X209935973Y-69243164D01*
X209935973Y-69243164D02*
X209888354Y-69338402D01*
X209888354Y-69338402D02*
X209888354Y-69528878D01*
X209888354Y-69528878D02*
X209935973Y-69624116D01*
X209935973Y-69624116D02*
X209983592Y-69671736D01*
X209983592Y-69671736D02*
X210078830Y-69719355D01*
X210078830Y-69719355D02*
X210269306Y-69719355D01*
X210269306Y-69719355D02*
X210364544Y-69671736D01*
X210364544Y-69671736D02*
X210412163Y-69624116D01*
X210412163Y-69624116D02*
X210459782Y-69528878D01*
X210459782Y-69528878D02*
X210459782Y-69338402D01*
X210459782Y-69338402D02*
X210412163Y-69243164D01*
X210412163Y-69243164D02*
X210364544Y-69195545D01*
X210364544Y-69195545D02*
X210269306Y-69147926D01*
X227421976Y-64481519D02*
X227421976Y-65195804D01*
X227421976Y-65195804D02*
X227374357Y-65338661D01*
X227374357Y-65338661D02*
X227279119Y-65433900D01*
X227279119Y-65433900D02*
X227136262Y-65481519D01*
X227136262Y-65481519D02*
X227041024Y-65481519D01*
X228421976Y-65481519D02*
X227850548Y-65481519D01*
X228136262Y-65481519D02*
X228136262Y-64481519D01*
X228136262Y-64481519D02*
X228041024Y-64624376D01*
X228041024Y-64624376D02*
X227945786Y-64719614D01*
X227945786Y-64719614D02*
X227850548Y-64767233D01*
X228755310Y-64481519D02*
X229421976Y-64481519D01*
X229421976Y-64481519D02*
X228993405Y-65481519D01*
X227696976Y-91422919D02*
X227696976Y-92137204D01*
X227696976Y-92137204D02*
X227649357Y-92280061D01*
X227649357Y-92280061D02*
X227554119Y-92375300D01*
X227554119Y-92375300D02*
X227411262Y-92422919D01*
X227411262Y-92422919D02*
X227316024Y-92422919D01*
X228696976Y-92422919D02*
X228125548Y-92422919D01*
X228411262Y-92422919D02*
X228411262Y-91422919D01*
X228411262Y-91422919D02*
X228316024Y-91565776D01*
X228316024Y-91565776D02*
X228220786Y-91661014D01*
X228220786Y-91661014D02*
X228125548Y-91708633D01*
X229601738Y-91422919D02*
X229125548Y-91422919D01*
X229125548Y-91422919D02*
X229077929Y-91899109D01*
X229077929Y-91899109D02*
X229125548Y-91851490D01*
X229125548Y-91851490D02*
X229220786Y-91803871D01*
X229220786Y-91803871D02*
X229458881Y-91803871D01*
X229458881Y-91803871D02*
X229554119Y-91851490D01*
X229554119Y-91851490D02*
X229601738Y-91899109D01*
X229601738Y-91899109D02*
X229649357Y-91994347D01*
X229649357Y-91994347D02*
X229649357Y-92232442D01*
X229649357Y-92232442D02*
X229601738Y-92327680D01*
X229601738Y-92327680D02*
X229554119Y-92375300D01*
X229554119Y-92375300D02*
X229458881Y-92422919D01*
X229458881Y-92422919D02*
X229220786Y-92422919D01*
X229220786Y-92422919D02*
X229125548Y-92375300D01*
X229125548Y-92375300D02*
X229077929Y-92327680D01*
X208827466Y-85867399D02*
X208827466Y-86581684D01*
X208827466Y-86581684D02*
X208779847Y-86724541D01*
X208779847Y-86724541D02*
X208684609Y-86819780D01*
X208684609Y-86819780D02*
X208541752Y-86867399D01*
X208541752Y-86867399D02*
X208446514Y-86867399D01*
X209351276Y-86867399D02*
X209541752Y-86867399D01*
X209541752Y-86867399D02*
X209636990Y-86819780D01*
X209636990Y-86819780D02*
X209684609Y-86772160D01*
X209684609Y-86772160D02*
X209779847Y-86629303D01*
X209779847Y-86629303D02*
X209827466Y-86438827D01*
X209827466Y-86438827D02*
X209827466Y-86057875D01*
X209827466Y-86057875D02*
X209779847Y-85962637D01*
X209779847Y-85962637D02*
X209732228Y-85915018D01*
X209732228Y-85915018D02*
X209636990Y-85867399D01*
X209636990Y-85867399D02*
X209446514Y-85867399D01*
X209446514Y-85867399D02*
X209351276Y-85915018D01*
X209351276Y-85915018D02*
X209303657Y-85962637D01*
X209303657Y-85962637D02*
X209256038Y-86057875D01*
X209256038Y-86057875D02*
X209256038Y-86295970D01*
X209256038Y-86295970D02*
X209303657Y-86391208D01*
X209303657Y-86391208D02*
X209351276Y-86438827D01*
X209351276Y-86438827D02*
X209446514Y-86486446D01*
X209446514Y-86486446D02*
X209636990Y-86486446D01*
X209636990Y-86486446D02*
X209732228Y-86438827D01*
X209732228Y-86438827D02*
X209779847Y-86391208D01*
X209779847Y-86391208D02*
X209827466Y-86295970D01*
%TO.C,J12*%
X235543816Y-81512656D02*
X236238816Y-81512656D01*
X235543816Y-82197656D02*
X235543816Y-81512656D01*
X235543816Y-82882656D02*
X235543816Y-82757656D01*
X235543816Y-82882656D02*
X235630540Y-82882656D01*
X235543816Y-82882656D02*
X236933816Y-82882656D01*
X236847092Y-82882656D02*
X236933816Y-82882656D01*
X236933816Y-82882656D02*
X236933816Y-82757656D01*
%TO.C,J10*%
X231432489Y-67909026D02*
X231923928Y-67417588D01*
X231916857Y-68393395D02*
X231432489Y-67909026D01*
X232401223Y-68877761D02*
X232462547Y-68816443D01*
X232401223Y-68877761D02*
X233019942Y-69496482D01*
X233019942Y-69496482D02*
X233232434Y-69283991D01*
X233322784Y-67956209D02*
X233384103Y-67894886D01*
X233384103Y-67894886D02*
X234002821Y-68513604D01*
X233790330Y-68726091D02*
X234002821Y-68513604D01*
%TO.C,J14*%
X206952416Y-81512656D02*
X207647416Y-81512656D01*
X206952416Y-82197656D02*
X206952416Y-81512656D01*
X206952416Y-82882656D02*
X206952416Y-82757656D01*
X206952416Y-82882656D02*
X207039140Y-82882656D01*
X206952416Y-82882656D02*
X208342416Y-82882656D01*
X208255692Y-82882656D02*
X208342416Y-82882656D01*
X208342416Y-82882656D02*
X208342416Y-82757656D01*
%TO.C,J7*%
X232401226Y-87856509D02*
X233019944Y-87237791D01*
X232415366Y-89808123D02*
X231923928Y-89316684D01*
X232462547Y-87917830D02*
X232401226Y-87856509D01*
X232899735Y-89323755D02*
X232415366Y-89808123D01*
X233232432Y-87450282D02*
X233019944Y-87237791D01*
X233384102Y-88839388D02*
X233322782Y-88778063D01*
X233384102Y-88839388D02*
X234002822Y-88220670D01*
X234002822Y-88220670D02*
X233790331Y-88008178D01*
%TO.C,J1*%
X235543816Y-73851616D02*
X236238816Y-73851616D01*
X235543816Y-74536616D02*
X235543816Y-73851616D01*
X235543816Y-75221616D02*
X235543816Y-75096616D01*
X235543816Y-75221616D02*
X235630540Y-75221616D01*
X235543816Y-75221616D02*
X236933816Y-75221616D01*
X236847092Y-75221616D02*
X236933816Y-75221616D01*
X236933816Y-75221616D02*
X236933816Y-75096616D01*
%TO.C,J16*%
X217417596Y-91977836D02*
X218112596Y-91977836D01*
X217417596Y-92662836D02*
X217417596Y-91977836D01*
X217417596Y-93347836D02*
X217417596Y-93222836D01*
X217417596Y-93347836D02*
X217504320Y-93347836D01*
X217417596Y-93347836D02*
X218807596Y-93347836D01*
X218720872Y-93347836D02*
X218807596Y-93347836D01*
X218807596Y-93347836D02*
X218807596Y-93222836D01*
%TO.C,J18*%
X217417596Y-63386436D02*
X218112596Y-63386436D01*
X217417596Y-64071436D02*
X217417596Y-63386436D01*
X217417596Y-64756436D02*
X217417596Y-64631436D01*
X217417596Y-64756436D02*
X217504320Y-64756436D01*
X217417596Y-64756436D02*
X218807596Y-64756436D01*
X218720872Y-64756436D02*
X218807596Y-64756436D01*
X218807596Y-64756436D02*
X218807596Y-64631436D01*
%TO.C,J13*%
X206952416Y-73851616D02*
X207647416Y-73851616D01*
X206952416Y-74536616D02*
X206952416Y-73851616D01*
X206952416Y-75221616D02*
X206952416Y-75096616D01*
X206952416Y-75221616D02*
X207039140Y-75221616D01*
X206952416Y-75221616D02*
X208342416Y-75221616D01*
X208255692Y-75221616D02*
X208342416Y-75221616D01*
X208342416Y-75221616D02*
X208342416Y-75096616D01*
%TO.C,J8*%
X211470866Y-66926149D02*
X212089584Y-66307431D01*
X211485006Y-68877763D02*
X210993568Y-68386324D01*
X211532189Y-66987469D02*
X211470866Y-66926149D01*
X211969375Y-68393395D02*
X211485006Y-68877763D01*
X212302071Y-66519922D02*
X212089584Y-66307431D01*
X212453741Y-67909029D02*
X212392422Y-67847705D01*
X212453741Y-67909029D02*
X213072462Y-67290310D01*
X213072462Y-67290310D02*
X212859971Y-67077818D01*
%TO.C,J17*%
X225078636Y-63386436D02*
X225773636Y-63386436D01*
X225078636Y-64071436D02*
X225078636Y-63386436D01*
X225078636Y-64756436D02*
X225078636Y-64631436D01*
X225078636Y-64756436D02*
X225165360Y-64756436D01*
X225078636Y-64756436D02*
X226468636Y-64756436D01*
X226381912Y-64756436D02*
X226468636Y-64756436D01*
X226468636Y-64756436D02*
X226468636Y-64631436D01*
%TO.C,J15*%
X225078636Y-91977836D02*
X225773636Y-91977836D01*
X225078636Y-92662836D02*
X225078636Y-91977836D01*
X225078636Y-93347836D02*
X225078636Y-93222836D01*
X225078636Y-93347836D02*
X225165360Y-93347836D01*
X225078636Y-93347836D02*
X226468636Y-93347836D01*
X226381912Y-93347836D02*
X226468636Y-93347836D01*
X226468636Y-93347836D02*
X226468636Y-93222836D01*
%TO.C,J9*%
X210095902Y-88008181D02*
X209883411Y-88220668D01*
X210502129Y-88839386D02*
X209883411Y-88220668D01*
X210563450Y-88778064D02*
X210502129Y-88839386D01*
X210866290Y-87237790D02*
X210653798Y-87450281D01*
X211485009Y-87856511D02*
X210866290Y-87237790D01*
X211485009Y-87856511D02*
X211423684Y-87917830D01*
X211969375Y-88340877D02*
X212453743Y-88825246D01*
X212453743Y-88825246D02*
X211962304Y-89316684D01*
%TD*%
M02*
