%TF.GenerationSoftware,KiCad,Pcbnew,8.0.0*%
%TF.CreationDate,2024-05-16T16:07:08+03:00*%
%TF.ProjectId,pressure_sensor,70726573-7375-4726-955f-73656e736f72,rev?*%
%TF.SameCoordinates,Original*%
%TF.FileFunction,Copper,L2,Bot*%
%TF.FilePolarity,Positive*%
%FSLAX46Y46*%
G04 Gerber Fmt 4.6, Leading zero omitted, Abs format (unit mm)*
G04 Created by KiCad (PCBNEW 8.0.0) date 2024-05-16 16:07:08*
%MOMM*%
%LPD*%
G01*
G04 APERTURE LIST*
G04 Aperture macros list*
%AMHorizOval*
0 Thick line with rounded ends*
0 $1 width*
0 $2 $3 position (X,Y) of the first rounded end (center of the circle)*
0 $4 $5 position (X,Y) of the second rounded end (center of the circle)*
0 Add line between two ends*
20,1,$1,$2,$3,$4,$5,0*
0 Add two circle primitives to create the rounded ends*
1,1,$1,$2,$3*
1,1,$1,$4,$5*%
%AMRotRect*
0 Rectangle, with rotation*
0 The origin of the aperture is its center*
0 $1 length*
0 $2 width*
0 $3 Rotation angle, in degrees counterclockwise*
0 Add horizontal line*
21,1,$1,$2,0,0,$3*%
G04 Aperture macros list end*
%TA.AperFunction,ComponentPad*%
%ADD10R,0.850000X0.850000*%
%TD*%
%TA.AperFunction,ComponentPad*%
%ADD11RotRect,0.850000X0.850000X45.000000*%
%TD*%
%TA.AperFunction,ComponentPad*%
%ADD12HorizOval,0.850000X0.000000X0.000000X0.000000X0.000000X0*%
%TD*%
%TA.AperFunction,ComponentPad*%
%ADD13RotRect,0.850000X0.850000X225.000000*%
%TD*%
%TA.AperFunction,ComponentPad*%
%ADD14HorizOval,0.850000X0.000000X0.000000X0.000000X0.000000X0*%
%TD*%
%TA.AperFunction,ComponentPad*%
%ADD15RotRect,0.850000X0.850000X135.000000*%
%TD*%
%TA.AperFunction,ComponentPad*%
%ADD16HorizOval,0.850000X0.000000X0.000000X0.000000X0.000000X0*%
%TD*%
%TA.AperFunction,ComponentPad*%
%ADD17O,0.850000X0.850000*%
%TD*%
%TA.AperFunction,ComponentPad*%
%ADD18RotRect,0.850000X0.850000X315.000000*%
%TD*%
%TA.AperFunction,ComponentPad*%
%ADD19HorizOval,0.850000X0.000000X0.000000X0.000000X0.000000X0*%
%TD*%
%TA.AperFunction,ComponentPad*%
%ADD20O,2.000000X0.900000*%
%TD*%
%TA.AperFunction,ComponentPad*%
%ADD21O,1.700000X0.900000*%
%TD*%
%TA.AperFunction,ViaPad*%
%ADD22C,0.600000*%
%TD*%
%TA.AperFunction,Conductor*%
%ADD23C,0.300000*%
%TD*%
G04 APERTURE END LIST*
D10*
%TO.P,J12,1,Pin_1*%
%TO.N,/Ap*%
X234892136Y-81892136D03*
%TD*%
D11*
%TO.P,J10,1,Pin_1*%
%TO.N,/An*%
X231210029Y-68260029D03*
D12*
%TO.P,J10,2,Pin_2*%
%TO.N,+3.3VA*%
X231917136Y-68967136D03*
%TD*%
D13*
%TO.P,J2,1,Pin_1*%
%TO.N,+3.3V*%
X159825000Y-90725000D03*
D14*
%TO.P,J2,2,Pin_2*%
%TO.N,/A+*%
X159117893Y-90017893D03*
%TD*%
D13*
%TO.P,J4,1,Pin_1*%
%TO.N,/A+*%
X180600000Y-70000000D03*
D14*
%TO.P,J4,2,Pin_2*%
%TO.N,GND*%
X179892893Y-69292893D03*
%TD*%
D10*
%TO.P,J14,1,Pin_1*%
%TO.N,GNDA*%
X208992136Y-81892136D03*
%TD*%
D15*
%TO.P,J7,1,Pin_1*%
%TO.N,+3.3VA*%
X231317136Y-88467136D03*
D16*
%TO.P,J7,2,Pin_2*%
%TO.N,/Ap*%
X232024243Y-87760029D03*
%TD*%
D10*
%TO.P,J3,1,Pin_1*%
%TO.N,+3.3V*%
X161800001Y-76075000D03*
D17*
%TO.P,J3,2,Pin_2*%
%TO.N,/SWCLK*%
X160800001Y-76075000D03*
%TO.P,J3,3,Pin_3*%
%TO.N,/SWDIO*%
X159800001Y-76075000D03*
%TO.P,J3,4,Pin_4*%
%TO.N,GND*%
X158800001Y-76075000D03*
%TD*%
D10*
%TO.P,J1,1,Pin_1*%
%TO.N,+3.3VA*%
X234567136Y-74867136D03*
%TD*%
%TO.P,J16,1,Pin_1*%
%TO.N,/An*%
X218417136Y-91192136D03*
%TD*%
%TO.P,J18,1,Pin_1*%
%TO.N,GNDA*%
X218417136Y-65392136D03*
%TD*%
%TO.P,J13,1,Pin_1*%
%TO.N,/Ap*%
X208992136Y-74942136D03*
%TD*%
D15*
%TO.P,J8,1,Pin_1*%
%TO.N,/Ap*%
X211917136Y-69267136D03*
D16*
%TO.P,J8,2,Pin_2*%
%TO.N,GNDA*%
X212624243Y-68560029D03*
%TD*%
D10*
%TO.P,J17,1,Pin_1*%
%TO.N,/An*%
X225692136Y-65292136D03*
%TD*%
%TO.P,J15,1,Pin_1*%
%TO.N,+3.3VA*%
X225717136Y-91192136D03*
%TD*%
D13*
%TO.P,J9,1,Pin_1*%
%TO.N,/An*%
X212617136Y-88167136D03*
D14*
%TO.P,J9,2,Pin_2*%
%TO.N,GNDA*%
X211910029Y-87460029D03*
%TD*%
D18*
%TO.P,J6,1,Pin_1*%
%TO.N,/A-*%
X159503554Y-69696445D03*
D19*
%TO.P,J6,2,Pin_2*%
%TO.N,+3.3V*%
X158796447Y-70403552D03*
%TD*%
D15*
%TO.P,J5,1,Pin_1*%
%TO.N,/A-*%
X179942893Y-90907107D03*
D16*
%TO.P,J5,2,Pin_2*%
%TO.N,GND*%
X180650000Y-90200000D03*
%TD*%
D20*
%TO.P,J11,S1,SHIELD*%
%TO.N,unconnected-(J11-SHIELD-PadS1)_2*%
X179630001Y-84400000D03*
%TO.P,J11,S2,SHIELD*%
%TO.N,unconnected-(J11-SHIELD-PadS1)_0*%
X179630002Y-75749999D03*
D21*
%TO.P,J11,S3,SHIELD*%
%TO.N,unconnected-(J11-SHIELD-PadS1)*%
X183800001Y-84400000D03*
%TO.P,J11,S4,SHIELD*%
%TO.N,unconnected-(J11-SHIELD-PadS1)_1*%
X183800001Y-75750000D03*
%TD*%
D22*
%TO.N,GND*%
X176600000Y-86000000D03*
X177375000Y-72975000D03*
X159175000Y-74450000D03*
X181200000Y-76575000D03*
X164775000Y-89850000D03*
X171050000Y-89000000D03*
X160150000Y-82625000D03*
X166425000Y-70325000D03*
X176500000Y-91275000D03*
X168275000Y-91575000D03*
X177275000Y-90775000D03*
%TO.N,+3.3V*%
X172050000Y-72475000D03*
X162500000Y-87575000D03*
X175825000Y-71950000D03*
X161000000Y-68425000D03*
X159875000Y-84525000D03*
%TO.N,/A-*%
X164725000Y-93075000D03*
%TO.N,/A+*%
X165600000Y-92300000D03*
X162375000Y-93275000D03*
%TD*%
D23*
%TO.N,+3.3V*%
X159875000Y-84525000D02*
X159825000Y-84575000D01*
X172575000Y-71950000D02*
X172050000Y-72475000D01*
X159875000Y-84950000D02*
X159875000Y-84525000D01*
X162500000Y-87575000D02*
X159875000Y-84950000D01*
X161000000Y-68425000D02*
X168000000Y-68425000D01*
X168000000Y-68425000D02*
X172050000Y-72475000D01*
X175825000Y-71950000D02*
X172575000Y-71950000D01*
%TO.N,/A-*%
X158098001Y-74710997D02*
X159465370Y-73343628D01*
X159503554Y-73343628D02*
X159503554Y-69696445D01*
X158098001Y-84998001D02*
X158098001Y-74710997D01*
X164725000Y-93075000D02*
X177775000Y-93075000D01*
X159465370Y-73343628D02*
X159503554Y-73343628D01*
X164725000Y-93075000D02*
X164725000Y-91625000D01*
X177775000Y-93075000D02*
X179942893Y-90907107D01*
X164725000Y-91625000D02*
X158098001Y-84998001D01*
%TO.N,/A+*%
X162375000Y-92282222D02*
X159939737Y-89846959D01*
X165600000Y-92300000D02*
X168552818Y-92300000D01*
X162375000Y-93275000D02*
X162375000Y-92282222D01*
X159288827Y-89846959D02*
X159117893Y-90017893D01*
X159939737Y-89846959D02*
X159288827Y-89846959D01*
X181777000Y-71177000D02*
X180600000Y-70000000D01*
X168602818Y-92300000D02*
X181777000Y-79125818D01*
X181777000Y-79125818D02*
X181777000Y-71177000D01*
%TO.N,+3.3VA*%
X235594136Y-83080864D02*
X231317136Y-87357864D01*
X231317136Y-87357864D02*
X231317136Y-88467136D01*
X234567136Y-74867136D02*
X235594136Y-75894136D01*
X235594136Y-75894136D02*
X235594136Y-83080864D01*
%TO.N,GNDA*%
X210085989Y-72964011D02*
X210085989Y-76289009D01*
X212624243Y-68560029D02*
X213049242Y-68985028D01*
X213049242Y-68985028D02*
X213049242Y-70000758D01*
X210085989Y-76289009D02*
X208992136Y-77382862D01*
X208992136Y-77382862D02*
X208992136Y-81892136D01*
X213049242Y-70000758D02*
X210085989Y-72964011D01*
%TO.N,/An*%
X233831893Y-76214338D02*
X234022533Y-76404978D01*
X234022533Y-76404978D02*
X234022533Y-83338767D01*
X226953544Y-90407756D02*
X219201516Y-90407756D01*
X231210029Y-68260029D02*
X231210029Y-70615920D01*
X231210029Y-70615920D02*
X233831893Y-73237784D01*
X234022533Y-83338767D02*
X226953544Y-90407756D01*
X233831893Y-73237784D02*
X233831893Y-76214338D01*
X219201516Y-90407756D02*
X218417136Y-91192136D01*
%TD*%
%TA.AperFunction,Conductor*%
%TO.N,GND*%
G36*
X170618493Y-63117301D02*
G01*
X170624412Y-63117588D01*
X171437989Y-63176674D01*
X171443932Y-63177249D01*
X172253712Y-63275575D01*
X172259622Y-63276438D01*
X173063673Y-63413766D01*
X173069550Y-63414917D01*
X173866028Y-63590931D01*
X173871845Y-63592364D01*
X174658916Y-63806660D01*
X174664635Y-63808367D01*
X175440417Y-64060434D01*
X175446047Y-64062415D01*
X175950890Y-64253877D01*
X176208750Y-64351671D01*
X176214300Y-64353931D01*
X176962108Y-64679684D01*
X176967543Y-64682209D01*
X177698764Y-65043722D01*
X177704069Y-65046506D01*
X178416970Y-65442927D01*
X178422125Y-65445959D01*
X179115023Y-65876347D01*
X179120033Y-65879629D01*
X179791347Y-66343004D01*
X179796185Y-66346519D01*
X180444320Y-66841779D01*
X180448993Y-66845532D01*
X181072447Y-67371532D01*
X181076932Y-67375506D01*
X181641398Y-67900464D01*
X181674236Y-67931003D01*
X181678517Y-67935182D01*
X182248304Y-68518908D01*
X182252357Y-68523266D01*
X182544725Y-68853281D01*
X182793267Y-69133827D01*
X182797132Y-69138407D01*
X183307924Y-69774403D01*
X183311562Y-69779165D01*
X183791003Y-70439059D01*
X183794407Y-70443990D01*
X184241423Y-71126302D01*
X184244585Y-71131393D01*
X184658098Y-71834478D01*
X184661011Y-71839715D01*
X185029988Y-72542743D01*
X185040098Y-72562005D01*
X185042753Y-72567377D01*
X185386473Y-73307079D01*
X185388867Y-73312573D01*
X185696466Y-74068060D01*
X185698591Y-74073663D01*
X185969333Y-74843135D01*
X185971184Y-74848835D01*
X186204418Y-75630435D01*
X186205993Y-75636217D01*
X186401204Y-76428223D01*
X186402497Y-76434074D01*
X186447690Y-76664912D01*
X186450000Y-76688736D01*
X186450000Y-83511262D01*
X186447690Y-83535086D01*
X186402497Y-83765925D01*
X186401204Y-83771776D01*
X186205993Y-84563782D01*
X186204418Y-84569564D01*
X185971184Y-85351164D01*
X185969333Y-85356864D01*
X185698591Y-86126336D01*
X185696466Y-86131939D01*
X185388867Y-86887426D01*
X185386473Y-86892920D01*
X185042753Y-87632622D01*
X185040098Y-87637994D01*
X184661011Y-88360284D01*
X184658098Y-88365521D01*
X184244585Y-89068606D01*
X184241423Y-89073697D01*
X183794407Y-89756009D01*
X183791003Y-89760940D01*
X183311562Y-90420834D01*
X183307924Y-90425596D01*
X182797132Y-91061592D01*
X182793267Y-91066172D01*
X182252371Y-91676718D01*
X182248290Y-91681106D01*
X181678524Y-92264810D01*
X181674236Y-92268996D01*
X181076932Y-92824493D01*
X181072447Y-92828467D01*
X180448993Y-93354467D01*
X180444320Y-93358220D01*
X179796185Y-93853480D01*
X179791337Y-93857002D01*
X179120036Y-94320368D01*
X179115023Y-94323652D01*
X178422125Y-94754040D01*
X178416960Y-94757078D01*
X177704070Y-95153492D01*
X177698764Y-95156277D01*
X176967543Y-95517790D01*
X176962108Y-95520315D01*
X176214300Y-95846068D01*
X176208750Y-95848328D01*
X175446058Y-96137580D01*
X175440405Y-96139569D01*
X174664646Y-96391628D01*
X174658904Y-96393342D01*
X173871847Y-96607634D01*
X173866028Y-96609068D01*
X173069550Y-96785082D01*
X173063669Y-96786233D01*
X172259631Y-96923559D01*
X172253702Y-96924425D01*
X171443943Y-97022748D01*
X171437978Y-97023326D01*
X170624446Y-97082409D01*
X170618460Y-97082699D01*
X170329310Y-97089687D01*
X170261814Y-97071628D01*
X170231681Y-97045851D01*
X167423748Y-93729628D01*
X167395450Y-93665746D01*
X167406182Y-93596705D01*
X167452536Y-93544427D01*
X167518381Y-93525500D01*
X177834308Y-93525500D01*
X177834309Y-93525500D01*
X177924673Y-93501286D01*
X177948887Y-93494799D01*
X178051614Y-93435489D01*
X179679476Y-91807625D01*
X179740797Y-91774142D01*
X179810488Y-91779126D01*
X179811946Y-91779680D01*
X179886720Y-91808648D01*
X179886722Y-91808648D01*
X179999066Y-91808648D01*
X180103826Y-91768063D01*
X180123654Y-91752358D01*
X180726065Y-91149945D01*
X180787381Y-91116464D01*
X180787960Y-91116340D01*
X180937412Y-91084573D01*
X181105973Y-91009525D01*
X180650000Y-90553553D01*
X180508387Y-90411940D01*
X180600272Y-90450000D01*
X180699728Y-90450000D01*
X180791614Y-90411940D01*
X180861940Y-90341614D01*
X180900000Y-90249728D01*
X180900000Y-90200001D01*
X181003553Y-90200001D01*
X181456555Y-90653003D01*
X181499683Y-90578304D01*
X181499686Y-90578298D01*
X181559768Y-90393382D01*
X181559769Y-90393380D01*
X181580094Y-90200000D01*
X181559769Y-90006619D01*
X181559768Y-90006617D01*
X181499686Y-89821701D01*
X181499683Y-89821695D01*
X181456555Y-89746996D01*
X181003553Y-90199999D01*
X181003553Y-90200001D01*
X180900000Y-90200001D01*
X180900000Y-90150272D01*
X180861940Y-90058386D01*
X180791614Y-89988060D01*
X180699728Y-89950000D01*
X180600272Y-89950000D01*
X180508386Y-89988060D01*
X180438060Y-90058386D01*
X180400000Y-90150272D01*
X180400000Y-90249728D01*
X180438059Y-90341612D01*
X179843443Y-89746996D01*
X179800315Y-89821697D01*
X179740231Y-90006617D01*
X179740229Y-90006628D01*
X179735759Y-90049149D01*
X179709174Y-90113763D01*
X179700120Y-90123866D01*
X179097648Y-90726340D01*
X179081937Y-90746173D01*
X179081937Y-90746174D01*
X179041352Y-90850934D01*
X179041352Y-90963280D01*
X179059268Y-91009525D01*
X179070318Y-91038048D01*
X179076180Y-91107671D01*
X179043470Y-91169411D01*
X179042372Y-91170523D01*
X177624716Y-92588181D01*
X177563393Y-92621666D01*
X177537035Y-92624500D01*
X169214783Y-92624500D01*
X169147744Y-92604815D01*
X169101989Y-92552011D01*
X169092045Y-92482853D01*
X169121070Y-92419297D01*
X169127102Y-92412819D01*
X172149448Y-89390473D01*
X180194025Y-89390473D01*
X180650000Y-89846447D01*
X180650001Y-89846447D01*
X181105973Y-89390473D01*
X180937413Y-89315426D01*
X180747221Y-89275000D01*
X180552779Y-89275000D01*
X180362586Y-89315426D01*
X180362585Y-89315426D01*
X180194025Y-89390473D01*
X172149448Y-89390473D01*
X175413585Y-86126336D01*
X177066001Y-84473920D01*
X178329500Y-84473920D01*
X178358341Y-84618907D01*
X178358344Y-84618917D01*
X178414913Y-84755488D01*
X178414920Y-84755501D01*
X178497049Y-84878415D01*
X178497052Y-84878419D01*
X178601581Y-84982948D01*
X178601585Y-84982951D01*
X178724499Y-85065080D01*
X178724512Y-85065087D01*
X178861083Y-85121656D01*
X178861088Y-85121658D01*
X178861092Y-85121658D01*
X178861093Y-85121659D01*
X179006080Y-85150500D01*
X179006083Y-85150500D01*
X180253921Y-85150500D01*
X180387708Y-85123887D01*
X180398914Y-85121658D01*
X180535496Y-85065084D01*
X180658417Y-84982951D01*
X180762952Y-84878416D01*
X180845085Y-84755495D01*
X180901659Y-84618913D01*
X180920340Y-84524998D01*
X180930501Y-84473920D01*
X182649500Y-84473920D01*
X182678341Y-84618907D01*
X182678344Y-84618917D01*
X182734913Y-84755488D01*
X182734920Y-84755501D01*
X182817049Y-84878415D01*
X182817052Y-84878419D01*
X182921581Y-84982948D01*
X182921585Y-84982951D01*
X183044499Y-85065080D01*
X183044512Y-85065087D01*
X183181083Y-85121656D01*
X183181088Y-85121658D01*
X183181092Y-85121658D01*
X183181093Y-85121659D01*
X183326080Y-85150500D01*
X183326083Y-85150500D01*
X184273921Y-85150500D01*
X184407708Y-85123887D01*
X184418914Y-85121658D01*
X184555496Y-85065084D01*
X184678417Y-84982951D01*
X184782952Y-84878416D01*
X184865085Y-84755495D01*
X184921659Y-84618913D01*
X184940340Y-84524998D01*
X184950501Y-84473920D01*
X184950501Y-84326079D01*
X184921660Y-84181092D01*
X184921659Y-84181091D01*
X184921659Y-84181087D01*
X184921657Y-84181082D01*
X184865088Y-84044511D01*
X184865081Y-84044498D01*
X184782952Y-83921584D01*
X184782949Y-83921580D01*
X184678420Y-83817051D01*
X184678416Y-83817048D01*
X184555502Y-83734919D01*
X184555489Y-83734912D01*
X184418918Y-83678343D01*
X184418908Y-83678340D01*
X184273921Y-83649500D01*
X184273919Y-83649500D01*
X183326083Y-83649500D01*
X183326081Y-83649500D01*
X183181093Y-83678340D01*
X183181083Y-83678343D01*
X183044512Y-83734912D01*
X183044499Y-83734919D01*
X182921585Y-83817048D01*
X182921581Y-83817051D01*
X182817052Y-83921580D01*
X182817049Y-83921584D01*
X182734920Y-84044498D01*
X182734913Y-84044511D01*
X182678344Y-84181082D01*
X182678341Y-84181092D01*
X182649501Y-84326079D01*
X182649501Y-84326082D01*
X182649501Y-84473918D01*
X182649501Y-84473920D01*
X182649500Y-84473920D01*
X180930501Y-84473920D01*
X180930501Y-84326079D01*
X180901660Y-84181092D01*
X180901659Y-84181091D01*
X180901659Y-84181087D01*
X180901657Y-84181082D01*
X180845088Y-84044511D01*
X180845081Y-84044498D01*
X180762952Y-83921584D01*
X180762949Y-83921580D01*
X180658420Y-83817051D01*
X180658416Y-83817048D01*
X180535502Y-83734919D01*
X180535489Y-83734912D01*
X180393287Y-83676011D01*
X180394033Y-83674207D01*
X180343135Y-83640843D01*
X180314686Y-83577027D01*
X180325255Y-83507961D01*
X180371486Y-83455573D01*
X180375579Y-83453104D01*
X180458016Y-83405509D01*
X180560510Y-83303015D01*
X180632985Y-83177485D01*
X180670501Y-83037475D01*
X180670501Y-82892525D01*
X180632985Y-82752515D01*
X180560510Y-82626985D01*
X180458016Y-82524491D01*
X180458014Y-82524490D01*
X180458012Y-82524488D01*
X180332489Y-82452017D01*
X180332490Y-82452017D01*
X180321007Y-82448940D01*
X180192476Y-82414500D01*
X180047526Y-82414500D01*
X179918994Y-82448940D01*
X179907512Y-82452017D01*
X179781989Y-82524488D01*
X179781983Y-82524493D01*
X179679494Y-82626982D01*
X179679489Y-82626988D01*
X179607018Y-82752511D01*
X179607017Y-82752515D01*
X179569501Y-82892525D01*
X179569501Y-83037475D01*
X179607017Y-83177485D01*
X179607018Y-83177488D01*
X179679489Y-83303011D01*
X179679491Y-83303013D01*
X179679492Y-83303015D01*
X179781986Y-83405509D01*
X179803817Y-83418113D01*
X179852032Y-83468680D01*
X179865256Y-83537287D01*
X179839288Y-83602151D01*
X179782374Y-83642680D01*
X179741817Y-83649500D01*
X179006081Y-83649500D01*
X178861093Y-83678340D01*
X178861083Y-83678343D01*
X178724512Y-83734912D01*
X178724499Y-83734919D01*
X178601585Y-83817048D01*
X178601581Y-83817051D01*
X178497052Y-83921580D01*
X178497049Y-83921584D01*
X178414920Y-84044498D01*
X178414913Y-84044511D01*
X178358344Y-84181082D01*
X178358341Y-84181092D01*
X178329501Y-84326079D01*
X178329501Y-84326082D01*
X178329501Y-84473918D01*
X178329501Y-84473920D01*
X178329500Y-84473920D01*
X177066001Y-84473920D01*
X182137490Y-79402432D01*
X182196799Y-79299705D01*
X182203285Y-79275493D01*
X182203286Y-79275493D01*
X182203286Y-79275489D01*
X182227500Y-79185127D01*
X182227500Y-75823920D01*
X182649500Y-75823920D01*
X182678341Y-75968907D01*
X182678344Y-75968917D01*
X182734913Y-76105488D01*
X182734920Y-76105501D01*
X182817049Y-76228415D01*
X182817052Y-76228419D01*
X182921581Y-76332948D01*
X182921585Y-76332951D01*
X183044499Y-76415080D01*
X183044512Y-76415087D01*
X183181081Y-76471655D01*
X183181088Y-76471658D01*
X183181092Y-76471658D01*
X183181093Y-76471659D01*
X183326080Y-76500500D01*
X183326083Y-76500500D01*
X184273921Y-76500500D01*
X184371463Y-76481096D01*
X184418914Y-76471658D01*
X184555496Y-76415084D01*
X184678417Y-76332951D01*
X184782952Y-76228416D01*
X184865085Y-76105495D01*
X184921659Y-75968913D01*
X184950501Y-75823918D01*
X184950501Y-75676082D01*
X184950501Y-75676081D01*
X184950501Y-75676079D01*
X184921660Y-75531092D01*
X184921659Y-75531091D01*
X184921659Y-75531087D01*
X184882740Y-75437127D01*
X184865088Y-75394511D01*
X184865081Y-75394498D01*
X184782952Y-75271584D01*
X184782949Y-75271580D01*
X184678420Y-75167051D01*
X184678416Y-75167048D01*
X184555502Y-75084919D01*
X184555489Y-75084912D01*
X184418918Y-75028343D01*
X184418908Y-75028340D01*
X184273921Y-74999500D01*
X184273919Y-74999500D01*
X183326083Y-74999500D01*
X183326081Y-74999500D01*
X183181093Y-75028340D01*
X183181083Y-75028343D01*
X183044512Y-75084912D01*
X183044499Y-75084919D01*
X182921585Y-75167048D01*
X182921581Y-75167051D01*
X182817052Y-75271580D01*
X182817049Y-75271584D01*
X182734920Y-75394498D01*
X182734913Y-75394511D01*
X182678344Y-75531082D01*
X182678341Y-75531092D01*
X182649501Y-75676079D01*
X182649501Y-75676081D01*
X182649501Y-75676082D01*
X182649501Y-75823918D01*
X182649501Y-75823920D01*
X182649500Y-75823920D01*
X182227500Y-75823920D01*
X182227500Y-71117691D01*
X182196799Y-71003114D01*
X182146813Y-70916536D01*
X182138156Y-70901541D01*
X182137491Y-70900389D01*
X182137487Y-70900384D01*
X181500520Y-70263417D01*
X181467035Y-70202094D01*
X181472019Y-70132402D01*
X181472575Y-70130941D01*
X181483625Y-70102418D01*
X181501541Y-70056173D01*
X181501541Y-69943827D01*
X181460956Y-69839067D01*
X181445251Y-69819239D01*
X180842771Y-69216761D01*
X180809287Y-69155439D01*
X180807132Y-69142040D01*
X180802663Y-69099519D01*
X180802663Y-69099516D01*
X180742579Y-68914594D01*
X180742576Y-68914588D01*
X180699448Y-68839889D01*
X180104834Y-69434504D01*
X180142893Y-69342621D01*
X180142893Y-69243165D01*
X180104833Y-69151279D01*
X180034507Y-69080953D01*
X179942621Y-69042893D01*
X179843165Y-69042893D01*
X179751279Y-69080953D01*
X179680953Y-69151279D01*
X179642893Y-69243165D01*
X179642893Y-69342621D01*
X179680953Y-69434507D01*
X179751279Y-69504833D01*
X179843165Y-69542893D01*
X179942621Y-69542893D01*
X180034504Y-69504833D01*
X179892893Y-69646446D01*
X179436918Y-70102418D01*
X179605480Y-70177466D01*
X179754928Y-70209232D01*
X179816410Y-70242424D01*
X179816829Y-70242841D01*
X180419233Y-70845244D01*
X180419237Y-70845247D01*
X180419239Y-70845249D01*
X180439067Y-70860956D01*
X180543827Y-70901541D01*
X180543829Y-70901541D01*
X180656173Y-70901541D01*
X180730941Y-70872574D01*
X180800564Y-70866712D01*
X180862305Y-70899421D01*
X180863417Y-70900520D01*
X181290181Y-71327284D01*
X181323666Y-71388607D01*
X181326500Y-71414965D01*
X181326500Y-78887852D01*
X181306815Y-78954891D01*
X181290181Y-78975533D01*
X168452534Y-91813181D01*
X168391211Y-91846666D01*
X168364853Y-91849500D01*
X166041419Y-91849500D01*
X165974380Y-91829815D01*
X165965933Y-91823876D01*
X165902841Y-91775464D01*
X165756759Y-91714954D01*
X165748912Y-91712852D01*
X165749516Y-91710595D01*
X165696586Y-91687177D01*
X165682038Y-91672635D01*
X162798273Y-88266853D01*
X162769975Y-88202971D01*
X162780707Y-88133930D01*
X162817420Y-88088349D01*
X162928282Y-88003282D01*
X163024536Y-87877841D01*
X163085044Y-87731762D01*
X163105682Y-87575000D01*
X163085044Y-87418238D01*
X163024536Y-87272159D01*
X162928282Y-87146718D01*
X162802841Y-87050464D01*
X162802839Y-87050463D01*
X162656761Y-86989955D01*
X162577916Y-86979575D01*
X162514019Y-86951308D01*
X162506421Y-86944317D01*
X160455313Y-84893210D01*
X160421828Y-84831887D01*
X160426812Y-84762195D01*
X160428420Y-84758107D01*
X160460044Y-84681762D01*
X160480682Y-84525000D01*
X160460044Y-84368238D01*
X160399536Y-84222159D01*
X160303282Y-84096718D01*
X160177841Y-84000464D01*
X160031762Y-83939956D01*
X160031760Y-83939955D01*
X159875001Y-83919318D01*
X159874999Y-83919318D01*
X159718239Y-83939955D01*
X159718237Y-83939956D01*
X159572160Y-84000463D01*
X159446710Y-84096724D01*
X159444822Y-84098613D01*
X159442838Y-84099695D01*
X159440271Y-84101666D01*
X159439963Y-84101265D01*
X159383497Y-84132094D01*
X159313806Y-84127105D01*
X159262515Y-84091054D01*
X159030506Y-83817048D01*
X158577868Y-83282472D01*
X158549570Y-83218590D01*
X158548501Y-83202344D01*
X158548501Y-80355292D01*
X163302506Y-80355292D01*
X163342565Y-80864288D01*
X163342565Y-80864289D01*
X163422435Y-81368573D01*
X163422436Y-81368576D01*
X163541628Y-81865044D01*
X163541632Y-81865055D01*
X163699401Y-82350623D01*
X163802697Y-82600000D01*
X163894792Y-82822338D01*
X164126588Y-83277263D01*
X164126593Y-83277271D01*
X164126595Y-83277275D01*
X164126598Y-83277281D01*
X164325680Y-83602151D01*
X164393363Y-83712600D01*
X164436357Y-83771776D01*
X164693465Y-84125655D01*
X164693476Y-84125669D01*
X164740803Y-84181082D01*
X165025062Y-84513907D01*
X165386093Y-84874938D01*
X165774337Y-85206529D01*
X166187400Y-85506637D01*
X166381011Y-85625282D01*
X166622718Y-85773401D01*
X166622723Y-85773403D01*
X166622737Y-85773412D01*
X167077662Y-86005208D01*
X167549371Y-86200596D01*
X167549376Y-86200598D01*
X167672843Y-86240714D01*
X168034956Y-86358372D01*
X168531424Y-86477564D01*
X169035712Y-86557435D01*
X169544713Y-86597494D01*
X170055279Y-86597494D01*
X170055287Y-86597494D01*
X170564288Y-86557435D01*
X171068576Y-86477564D01*
X171565044Y-86358372D01*
X172050629Y-86200596D01*
X172522338Y-86005208D01*
X172977263Y-85773412D01*
X173412600Y-85506637D01*
X173825663Y-85206529D01*
X174213907Y-84874938D01*
X174574938Y-84513907D01*
X174906529Y-84125663D01*
X175206637Y-83712600D01*
X175473412Y-83277263D01*
X175705208Y-82822338D01*
X175900596Y-82350629D01*
X176058372Y-81865044D01*
X176177564Y-81368576D01*
X176257435Y-80864288D01*
X176297494Y-80355287D01*
X176300000Y-80100000D01*
X176297494Y-79844713D01*
X176257435Y-79335712D01*
X176177564Y-78831424D01*
X176058372Y-78334956D01*
X175900596Y-77849371D01*
X175705208Y-77377662D01*
X175473412Y-76922737D01*
X175473403Y-76922723D01*
X175473401Y-76922718D01*
X175315417Y-76664912D01*
X175206637Y-76487400D01*
X174906529Y-76074337D01*
X174692652Y-75823919D01*
X178329501Y-75823919D01*
X178358342Y-75968906D01*
X178358345Y-75968916D01*
X178414914Y-76105487D01*
X178414921Y-76105500D01*
X178497050Y-76228414D01*
X178497053Y-76228418D01*
X178601582Y-76332947D01*
X178601586Y-76332950D01*
X178724500Y-76415079D01*
X178724513Y-76415086D01*
X178770355Y-76434074D01*
X178861089Y-76471657D01*
X178861093Y-76471657D01*
X178861094Y-76471658D01*
X179006081Y-76500499D01*
X179741818Y-76500499D01*
X179808857Y-76520184D01*
X179854612Y-76572988D01*
X179864556Y-76642146D01*
X179835531Y-76705702D01*
X179803820Y-76731884D01*
X179789259Y-76740292D01*
X179781986Y-76744491D01*
X179781983Y-76744493D01*
X179679494Y-76846982D01*
X179679489Y-76846988D01*
X179607018Y-76972511D01*
X179607017Y-76972515D01*
X179569501Y-77112525D01*
X179569501Y-77257475D01*
X179601706Y-77377664D01*
X179607018Y-77397488D01*
X179679489Y-77523011D01*
X179679491Y-77523013D01*
X179679492Y-77523015D01*
X179781986Y-77625509D01*
X179781987Y-77625510D01*
X179781989Y-77625511D01*
X179907512Y-77697982D01*
X179907513Y-77697982D01*
X179907516Y-77697984D01*
X180047526Y-77735500D01*
X180047529Y-77735500D01*
X180192473Y-77735500D01*
X180192476Y-77735500D01*
X180332486Y-77697984D01*
X180458016Y-77625509D01*
X180560510Y-77523015D01*
X180632985Y-77397485D01*
X180670501Y-77257475D01*
X180670501Y-77112525D01*
X180632985Y-76972515D01*
X180630103Y-76967524D01*
X180560512Y-76846988D01*
X180560507Y-76846982D01*
X180458018Y-76744493D01*
X180458016Y-76744491D01*
X180412706Y-76718331D01*
X180375578Y-76696895D01*
X180327362Y-76646328D01*
X180314140Y-76577721D01*
X180340108Y-76512856D01*
X180393607Y-76474759D01*
X180393288Y-76473988D01*
X180396641Y-76472598D01*
X180397022Y-76472328D01*
X180398288Y-76471916D01*
X180398911Y-76471657D01*
X180398915Y-76471657D01*
X180518504Y-76422121D01*
X180535490Y-76415086D01*
X180535490Y-76415085D01*
X180535497Y-76415083D01*
X180658418Y-76332950D01*
X180762953Y-76228415D01*
X180845086Y-76105494D01*
X180901660Y-75968912D01*
X180930287Y-75825000D01*
X180930502Y-75823919D01*
X180930502Y-75676078D01*
X180901661Y-75531091D01*
X180901660Y-75531087D01*
X180901660Y-75531086D01*
X180879354Y-75477235D01*
X180845089Y-75394510D01*
X180845082Y-75394497D01*
X180762953Y-75271583D01*
X180762950Y-75271579D01*
X180658421Y-75167050D01*
X180658417Y-75167047D01*
X180535503Y-75084918D01*
X180535490Y-75084911D01*
X180398919Y-75028342D01*
X180398909Y-75028339D01*
X180253922Y-74999499D01*
X180253920Y-74999499D01*
X179006084Y-74999499D01*
X179006082Y-74999499D01*
X178861094Y-75028339D01*
X178861084Y-75028342D01*
X178724513Y-75084911D01*
X178724500Y-75084918D01*
X178601586Y-75167047D01*
X178601582Y-75167050D01*
X178497053Y-75271579D01*
X178497050Y-75271583D01*
X178414921Y-75394497D01*
X178414914Y-75394510D01*
X178358345Y-75531081D01*
X178358342Y-75531091D01*
X178329502Y-75676078D01*
X178329502Y-75676079D01*
X178329502Y-75676081D01*
X178329502Y-75823917D01*
X178329502Y-75823919D01*
X178329501Y-75823919D01*
X174692652Y-75823919D01*
X174574938Y-75686093D01*
X174213907Y-75325062D01*
X174151291Y-75271583D01*
X173825669Y-74993476D01*
X173825655Y-74993465D01*
X173412601Y-74693364D01*
X173412600Y-74693363D01*
X173344593Y-74651688D01*
X172977281Y-74426598D01*
X172977275Y-74426595D01*
X172977271Y-74426593D01*
X172977263Y-74426588D01*
X172522338Y-74194792D01*
X172371210Y-74132193D01*
X172050623Y-73999401D01*
X171705126Y-73887143D01*
X171565044Y-73841628D01*
X171565032Y-73841625D01*
X171068573Y-73722435D01*
X170564288Y-73642565D01*
X170055292Y-73602506D01*
X170055287Y-73602506D01*
X169544713Y-73602506D01*
X169544707Y-73602506D01*
X169035711Y-73642565D01*
X169035710Y-73642565D01*
X168531426Y-73722435D01*
X168034967Y-73841625D01*
X168034961Y-73841626D01*
X168034956Y-73841628D01*
X168034944Y-73841632D01*
X167549376Y-73999401D01*
X167077664Y-74194791D01*
X167077662Y-74194792D01*
X166622737Y-74426588D01*
X166622733Y-74426590D01*
X166622724Y-74426595D01*
X166622718Y-74426598D01*
X166187409Y-74693357D01*
X166187398Y-74693364D01*
X165774344Y-74993465D01*
X165774330Y-74993476D01*
X165386099Y-75325056D01*
X165386085Y-75325069D01*
X165025069Y-75686085D01*
X165025056Y-75686099D01*
X164693476Y-76074330D01*
X164693465Y-76074344D01*
X164393364Y-76487398D01*
X164393357Y-76487409D01*
X164126598Y-76922718D01*
X164126595Y-76922724D01*
X163894791Y-77377664D01*
X163699401Y-77849376D01*
X163541632Y-78334944D01*
X163541625Y-78334967D01*
X163422435Y-78831426D01*
X163342565Y-79335710D01*
X163342565Y-79335711D01*
X163302506Y-79844707D01*
X163302506Y-80355292D01*
X158548501Y-80355292D01*
X158548501Y-79064071D01*
X159674499Y-79064071D01*
X159699497Y-79189738D01*
X159699499Y-79189744D01*
X159748533Y-79308124D01*
X159748538Y-79308133D01*
X159819723Y-79414668D01*
X159819726Y-79414672D01*
X159910327Y-79505273D01*
X159910331Y-79505276D01*
X160016866Y-79576461D01*
X160016872Y-79576464D01*
X160016873Y-79576465D01*
X160135256Y-79625501D01*
X160135260Y-79625501D01*
X160135261Y-79625502D01*
X160260928Y-79650500D01*
X160260931Y-79650500D01*
X160389071Y-79650500D01*
X160473615Y-79633682D01*
X160514744Y-79625501D01*
X160633127Y-79576465D01*
X160739669Y-79505276D01*
X160830276Y-79414669D01*
X160901465Y-79308127D01*
X160950501Y-79189744D01*
X160975500Y-79064069D01*
X160975500Y-78935931D01*
X160975500Y-78935928D01*
X160950502Y-78810261D01*
X160950501Y-78810260D01*
X160950501Y-78810256D01*
X160901465Y-78691873D01*
X160901464Y-78691872D01*
X160901461Y-78691866D01*
X160830276Y-78585331D01*
X160830273Y-78585327D01*
X160739672Y-78494726D01*
X160739668Y-78494723D01*
X160633133Y-78423538D01*
X160633124Y-78423533D01*
X160514744Y-78374499D01*
X160514738Y-78374497D01*
X160389071Y-78349500D01*
X160389069Y-78349500D01*
X160260931Y-78349500D01*
X160260929Y-78349500D01*
X160135261Y-78374497D01*
X160135255Y-78374499D01*
X160016875Y-78423533D01*
X160016866Y-78423538D01*
X159910331Y-78494723D01*
X159910327Y-78494726D01*
X159819726Y-78585327D01*
X159819723Y-78585331D01*
X159748538Y-78691866D01*
X159748533Y-78691875D01*
X159699499Y-78810255D01*
X159699497Y-78810261D01*
X159674500Y-78935928D01*
X159674500Y-78935931D01*
X159674500Y-79064069D01*
X159674500Y-79064071D01*
X159674499Y-79064071D01*
X158548501Y-79064071D01*
X158548501Y-77027888D01*
X158550001Y-77022779D01*
X158550001Y-76124728D01*
X158588061Y-76216614D01*
X158658387Y-76286940D01*
X158750273Y-76325000D01*
X158849729Y-76325000D01*
X158941615Y-76286940D01*
X159011941Y-76216614D01*
X159050001Y-76124728D01*
X159050001Y-76967524D01*
X159087413Y-76959573D01*
X159265050Y-76880484D01*
X159420634Y-76767445D01*
X159486440Y-76743965D01*
X159534470Y-76750720D01*
X159637540Y-76786786D01*
X159637546Y-76786786D01*
X159637547Y-76786787D01*
X159799997Y-76805091D01*
X159800001Y-76805091D01*
X159800005Y-76805091D01*
X159962456Y-76786787D01*
X159962457Y-76786786D01*
X159962462Y-76786786D01*
X160116776Y-76732789D01*
X160234029Y-76659113D01*
X160301265Y-76640113D01*
X160365972Y-76659113D01*
X160426101Y-76696895D01*
X160481788Y-76731886D01*
X160483226Y-76732789D01*
X160637540Y-76786786D01*
X160637543Y-76786786D01*
X160637545Y-76786787D01*
X160799997Y-76805091D01*
X160800001Y-76805091D01*
X160800005Y-76805091D01*
X160962458Y-76786787D01*
X160962460Y-76786786D01*
X160962462Y-76786786D01*
X161095334Y-76740291D01*
X161165111Y-76736730D01*
X161191366Y-76748378D01*
X161191726Y-76747565D01*
X161202235Y-76752205D01*
X161202236Y-76752206D01*
X161305010Y-76797585D01*
X161330136Y-76800500D01*
X162269865Y-76800499D01*
X162269880Y-76800497D01*
X162269883Y-76800497D01*
X162294988Y-76797586D01*
X162294989Y-76797585D01*
X162294992Y-76797585D01*
X162397766Y-76752206D01*
X162477207Y-76672765D01*
X162522586Y-76569991D01*
X162525501Y-76544865D01*
X162525500Y-75605136D01*
X162525498Y-75605117D01*
X162522587Y-75580012D01*
X162522586Y-75580010D01*
X162522586Y-75580009D01*
X162477207Y-75477235D01*
X162397766Y-75397794D01*
X162363251Y-75382554D01*
X162294993Y-75352415D01*
X162269866Y-75349500D01*
X161330144Y-75349500D01*
X161330118Y-75349502D01*
X161305013Y-75352413D01*
X161305009Y-75352415D01*
X161191725Y-75402435D01*
X161190684Y-75400077D01*
X161139913Y-75416613D01*
X161095334Y-75409708D01*
X160962462Y-75363214D01*
X160962460Y-75363213D01*
X160962455Y-75363212D01*
X160800005Y-75344909D01*
X160799997Y-75344909D01*
X160637545Y-75363212D01*
X160483226Y-75417210D01*
X160365973Y-75490886D01*
X160298736Y-75509886D01*
X160234029Y-75490886D01*
X160116775Y-75417210D01*
X159962456Y-75363212D01*
X159800005Y-75344909D01*
X159799997Y-75344909D01*
X159637545Y-75363212D01*
X159534474Y-75399278D01*
X159464695Y-75402839D01*
X159420634Y-75382554D01*
X159265052Y-75269516D01*
X159087413Y-75190426D01*
X159050001Y-75182473D01*
X159050001Y-76025272D01*
X159011941Y-75933386D01*
X158941615Y-75863060D01*
X158849729Y-75825000D01*
X158750273Y-75825000D01*
X158658387Y-75863060D01*
X158588061Y-75933386D01*
X158550001Y-76025272D01*
X158550001Y-75131440D01*
X158548501Y-75122110D01*
X158548501Y-74948962D01*
X158568186Y-74881923D01*
X158584820Y-74861281D01*
X159101730Y-74344371D01*
X159678285Y-73767815D01*
X159703957Y-73748116D01*
X159780167Y-73704117D01*
X159864043Y-73620241D01*
X159923353Y-73517514D01*
X159954054Y-73402937D01*
X159954054Y-70323318D01*
X159973739Y-70256279D01*
X159990373Y-70235637D01*
X160348798Y-69877211D01*
X160348797Y-69877211D01*
X160348803Y-69877206D01*
X160364510Y-69857378D01*
X160405095Y-69752618D01*
X160405095Y-69640272D01*
X160364510Y-69535512D01*
X160348805Y-69515684D01*
X160261190Y-69428069D01*
X159684320Y-68851200D01*
X159664487Y-68835489D01*
X159664484Y-68835488D01*
X159559727Y-68794904D01*
X159447381Y-68794904D01*
X159342620Y-68835489D01*
X159322801Y-68851187D01*
X159322791Y-68851195D01*
X158658309Y-69515678D01*
X158642598Y-69535511D01*
X158642597Y-69535514D01*
X158631749Y-69563515D01*
X158602013Y-69640272D01*
X158602013Y-69640273D01*
X158597863Y-69650986D01*
X158595844Y-69650204D01*
X158570989Y-69699078D01*
X158521732Y-69731045D01*
X158479669Y-69745764D01*
X158341242Y-69832744D01*
X158225639Y-69948347D01*
X158138657Y-70086777D01*
X158084659Y-70241096D01*
X158066356Y-70403548D01*
X158066356Y-70403555D01*
X158084659Y-70566007D01*
X158138657Y-70720326D01*
X158138658Y-70720327D01*
X158225639Y-70858756D01*
X158341243Y-70974360D01*
X158479672Y-71061341D01*
X158633986Y-71115338D01*
X158633989Y-71115338D01*
X158633991Y-71115339D01*
X158796443Y-71133643D01*
X158796447Y-71133643D01*
X158796449Y-71133643D01*
X158878623Y-71124383D01*
X158915170Y-71120266D01*
X158983992Y-71132320D01*
X159035371Y-71179669D01*
X159053054Y-71243486D01*
X159053054Y-73067478D01*
X159033369Y-73134517D01*
X159016735Y-73155159D01*
X157737514Y-74434380D01*
X157737510Y-74434386D01*
X157678202Y-74537109D01*
X157678201Y-74537114D01*
X157647501Y-74651688D01*
X157647501Y-82466375D01*
X157627816Y-82533414D01*
X157575012Y-82579169D01*
X157521004Y-82590350D01*
X153077514Y-82500841D01*
X153010884Y-82479810D01*
X152966202Y-82426095D01*
X152957312Y-82394782D01*
X152921917Y-82152383D01*
X152921195Y-82146435D01*
X152893910Y-81865055D01*
X152842468Y-81334549D01*
X152842035Y-81328575D01*
X152802627Y-80513841D01*
X152802482Y-80507850D01*
X152802482Y-79692149D01*
X152802627Y-79686158D01*
X152826638Y-79189744D01*
X152842035Y-78871418D01*
X152842469Y-78865447D01*
X152893910Y-78334956D01*
X152921195Y-78053564D01*
X152921917Y-78047618D01*
X152983554Y-77625511D01*
X153039779Y-77240461D01*
X153040786Y-77234568D01*
X153064679Y-77112527D01*
X153197504Y-76434064D01*
X153198795Y-76428223D01*
X153202033Y-76415086D01*
X153394010Y-75636199D01*
X153395581Y-75630435D01*
X153403129Y-75605143D01*
X153628818Y-74848823D01*
X153630666Y-74843135D01*
X153683366Y-74693357D01*
X153901417Y-74073638D01*
X153903523Y-74068083D01*
X154211138Y-73312557D01*
X154213526Y-73307079D01*
X154557263Y-72567341D01*
X154559883Y-72562039D01*
X154939004Y-71839684D01*
X154941883Y-71834508D01*
X155355423Y-71131378D01*
X155358576Y-71126302D01*
X155362531Y-71120266D01*
X155805601Y-70443976D01*
X155808996Y-70439059D01*
X156288454Y-69779141D01*
X156292057Y-69774425D01*
X156802881Y-69138389D01*
X156806716Y-69133845D01*
X157347662Y-68523243D01*
X157351674Y-68518930D01*
X157443360Y-68425001D01*
X160394318Y-68425001D01*
X160414955Y-68581760D01*
X160414956Y-68581762D01*
X160475464Y-68727841D01*
X160571718Y-68853282D01*
X160697159Y-68949536D01*
X160843238Y-69010044D01*
X160921619Y-69020363D01*
X160999999Y-69030682D01*
X161000000Y-69030682D01*
X161000001Y-69030682D01*
X161052254Y-69023802D01*
X161156762Y-69010044D01*
X161302841Y-68949536D01*
X161365933Y-68901123D01*
X161431102Y-68875930D01*
X161441419Y-68875500D01*
X167762035Y-68875500D01*
X167829074Y-68895185D01*
X167849716Y-68911819D01*
X171419317Y-72481420D01*
X171452802Y-72542743D01*
X171454575Y-72552915D01*
X171464955Y-72631761D01*
X171525463Y-72777839D01*
X171525464Y-72777841D01*
X171621718Y-72903282D01*
X171747159Y-72999536D01*
X171893238Y-73060044D01*
X171949705Y-73067478D01*
X172049999Y-73080682D01*
X172050000Y-73080682D01*
X172050001Y-73080682D01*
X172102254Y-73073802D01*
X172206762Y-73060044D01*
X172352841Y-72999536D01*
X172478282Y-72903282D01*
X172574536Y-72777841D01*
X172635044Y-72631762D01*
X172645424Y-72552915D01*
X172673688Y-72489021D01*
X172680683Y-72481419D01*
X172725287Y-72436817D01*
X172786611Y-72403333D01*
X172812966Y-72400500D01*
X175383581Y-72400500D01*
X175450620Y-72420185D01*
X175459067Y-72426124D01*
X175522157Y-72474535D01*
X175522158Y-72474535D01*
X175522159Y-72474536D01*
X175668238Y-72535044D01*
X175726718Y-72542743D01*
X175824999Y-72555682D01*
X175825000Y-72555682D01*
X175825001Y-72555682D01*
X175877254Y-72548802D01*
X175981762Y-72535044D01*
X176127841Y-72474536D01*
X176253282Y-72378282D01*
X176349536Y-72252841D01*
X176410044Y-72106762D01*
X176430682Y-71950000D01*
X176410044Y-71793238D01*
X176349536Y-71647159D01*
X176253282Y-71521718D01*
X176127841Y-71425464D01*
X176102494Y-71414965D01*
X175981762Y-71364956D01*
X175981760Y-71364955D01*
X175825001Y-71344318D01*
X175824999Y-71344318D01*
X175668239Y-71364955D01*
X175668237Y-71364956D01*
X175522157Y-71425464D01*
X175459067Y-71473876D01*
X175393898Y-71499070D01*
X175383581Y-71499500D01*
X172515691Y-71499500D01*
X172432772Y-71521718D01*
X172432771Y-71521718D01*
X172401115Y-71530199D01*
X172298386Y-71589511D01*
X172298383Y-71589513D01*
X172137681Y-71750216D01*
X172076358Y-71783701D01*
X172006666Y-71778717D01*
X171962319Y-71750216D01*
X169504996Y-69292893D01*
X178962798Y-69292893D01*
X178983123Y-69486273D01*
X178983124Y-69486275D01*
X179043209Y-69671198D01*
X179043210Y-69671200D01*
X179086335Y-69745895D01*
X179086336Y-69745896D01*
X179539340Y-69292893D01*
X179086336Y-68839889D01*
X179043208Y-68914590D01*
X178983124Y-69099510D01*
X178983123Y-69099512D01*
X178962798Y-69292893D01*
X169504996Y-69292893D01*
X168695469Y-68483366D01*
X179436918Y-68483366D01*
X179892893Y-68939340D01*
X179892894Y-68939340D01*
X180348866Y-68483366D01*
X180180306Y-68408319D01*
X179990114Y-68367893D01*
X179795672Y-68367893D01*
X179605479Y-68408319D01*
X179605478Y-68408319D01*
X179436918Y-68483366D01*
X168695469Y-68483366D01*
X168276616Y-68064513D01*
X168276614Y-68064511D01*
X168234922Y-68040440D01*
X168173885Y-68005199D01*
X168142228Y-67996718D01*
X168100768Y-67985609D01*
X168059309Y-67974500D01*
X168059308Y-67974500D01*
X161441419Y-67974500D01*
X161374380Y-67954815D01*
X161365933Y-67948876D01*
X161302842Y-67900464D01*
X161156762Y-67839956D01*
X161156760Y-67839955D01*
X161000001Y-67819318D01*
X160999999Y-67819318D01*
X160843239Y-67839955D01*
X160843237Y-67839956D01*
X160697160Y-67900463D01*
X160571718Y-67996718D01*
X160475463Y-68122160D01*
X160414956Y-68268237D01*
X160414955Y-68268239D01*
X160394318Y-68424998D01*
X160394318Y-68425001D01*
X157443360Y-68425001D01*
X157921502Y-67935162D01*
X157925735Y-67931030D01*
X158523086Y-67375488D01*
X158527531Y-67371550D01*
X159151027Y-66845514D01*
X159155657Y-66841796D01*
X159803843Y-66346497D01*
X159808632Y-66343018D01*
X160479985Y-65879616D01*
X160484955Y-65876360D01*
X161177901Y-65445942D01*
X161183011Y-65442937D01*
X161895947Y-65046497D01*
X161901217Y-65043731D01*
X162632472Y-64682201D01*
X162637875Y-64679691D01*
X163385707Y-64353927D01*
X163391240Y-64351674D01*
X164153965Y-64062410D01*
X164159569Y-64060438D01*
X164935375Y-63808364D01*
X164941072Y-63806663D01*
X165728164Y-63592361D01*
X165733960Y-63590933D01*
X166530460Y-63414914D01*
X166536318Y-63413768D01*
X167340383Y-63276437D01*
X167346281Y-63275576D01*
X168156071Y-63177249D01*
X168162006Y-63176674D01*
X168975589Y-63117588D01*
X168981504Y-63117301D01*
X169797021Y-63097590D01*
X169802979Y-63097590D01*
X170618493Y-63117301D01*
G37*
%TD.AperFunction*%
%TD*%
M02*
