%TF.GenerationSoftware,KiCad,Pcbnew,8.0.0*%
%TF.CreationDate,2024-05-17T03:14:28+03:00*%
%TF.ProjectId,pressure_sensor_logic,70726573-7375-4726-955f-73656e736f72,rev?*%
%TF.SameCoordinates,Original*%
%TF.FileFunction,Copper,L1,Top*%
%TF.FilePolarity,Positive*%
%FSLAX46Y46*%
G04 Gerber Fmt 4.6, Leading zero omitted, Abs format (unit mm)*
G04 Created by KiCad (PCBNEW 8.0.0) date 2024-05-17 03:14:28*
%MOMM*%
%LPD*%
G01*
G04 APERTURE LIST*
G04 Aperture macros list*
%AMRoundRect*
0 Rectangle with rounded corners*
0 $1 Rounding radius*
0 $2 $3 $4 $5 $6 $7 $8 $9 X,Y pos of 4 corners*
0 Add a 4 corners polygon primitive as box body*
4,1,4,$2,$3,$4,$5,$6,$7,$8,$9,$2,$3,0*
0 Add four circle primitives for the rounded corners*
1,1,$1+$1,$2,$3*
1,1,$1+$1,$4,$5*
1,1,$1+$1,$6,$7*
1,1,$1+$1,$8,$9*
0 Add four rect primitives between the rounded corners*
20,1,$1+$1,$2,$3,$4,$5,0*
20,1,$1+$1,$4,$5,$6,$7,0*
20,1,$1+$1,$6,$7,$8,$9,0*
20,1,$1+$1,$8,$9,$2,$3,0*%
%AMHorizOval*
0 Thick line with rounded ends*
0 $1 width*
0 $2 $3 position (X,Y) of the first rounded end (center of the circle)*
0 $4 $5 position (X,Y) of the second rounded end (center of the circle)*
0 Add line between two ends*
20,1,$1,$2,$3,$4,$5,0*
0 Add two circle primitives to create the rounded ends*
1,1,$1,$2,$3*
1,1,$1,$4,$5*%
%AMRotRect*
0 Rectangle, with rotation*
0 The origin of the aperture is its center*
0 $1 length*
0 $2 width*
0 $3 Rotation angle, in degrees counterclockwise*
0 Add horizontal line*
21,1,$1,$2,0,0,$3*%
G04 Aperture macros list end*
%TA.AperFunction,SMDPad,CuDef*%
%ADD10R,1.000000X0.400000*%
%TD*%
%TA.AperFunction,SMDPad,CuDef*%
%ADD11RoundRect,0.225000X0.250000X-0.225000X0.250000X0.225000X-0.250000X0.225000X-0.250000X-0.225000X0*%
%TD*%
%TA.AperFunction,ComponentPad*%
%ADD12RotRect,0.850000X0.850000X225.000000*%
%TD*%
%TA.AperFunction,ComponentPad*%
%ADD13HorizOval,0.850000X0.000000X0.000000X0.000000X0.000000X0*%
%TD*%
%TA.AperFunction,SMDPad,CuDef*%
%ADD14RoundRect,0.100000X0.637500X0.100000X-0.637500X0.100000X-0.637500X-0.100000X0.637500X-0.100000X0*%
%TD*%
%TA.AperFunction,SMDPad,CuDef*%
%ADD15RoundRect,0.250000X-0.250000X-0.475000X0.250000X-0.475000X0.250000X0.475000X-0.250000X0.475000X0*%
%TD*%
%TA.AperFunction,SMDPad,CuDef*%
%ADD16RoundRect,0.150000X0.512500X0.150000X-0.512500X0.150000X-0.512500X-0.150000X0.512500X-0.150000X0*%
%TD*%
%TA.AperFunction,SMDPad,CuDef*%
%ADD17RoundRect,0.225000X-0.250000X0.225000X-0.250000X-0.225000X0.250000X-0.225000X0.250000X0.225000X0*%
%TD*%
%TA.AperFunction,ComponentPad*%
%ADD18R,0.850000X0.850000*%
%TD*%
%TA.AperFunction,ComponentPad*%
%ADD19O,0.850000X0.850000*%
%TD*%
%TA.AperFunction,SMDPad,CuDef*%
%ADD20RoundRect,0.250000X-0.475000X0.250000X-0.475000X-0.250000X0.475000X-0.250000X0.475000X0.250000X0*%
%TD*%
%TA.AperFunction,SMDPad,CuDef*%
%ADD21RoundRect,0.200000X-0.275000X0.200000X-0.275000X-0.200000X0.275000X-0.200000X0.275000X0.200000X0*%
%TD*%
%TA.AperFunction,SMDPad,CuDef*%
%ADD22RoundRect,0.200000X-0.200000X-0.275000X0.200000X-0.275000X0.200000X0.275000X-0.200000X0.275000X0*%
%TD*%
%TA.AperFunction,SMDPad,CuDef*%
%ADD23RoundRect,0.200000X0.275000X-0.200000X0.275000X0.200000X-0.275000X0.200000X-0.275000X-0.200000X0*%
%TD*%
%TA.AperFunction,SMDPad,CuDef*%
%ADD24R,1.400000X0.300000*%
%TD*%
%TA.AperFunction,SMDPad,CuDef*%
%ADD25R,0.900000X1.700000*%
%TD*%
%TA.AperFunction,SMDPad,CuDef*%
%ADD26RoundRect,0.225000X0.225000X0.250000X-0.225000X0.250000X-0.225000X-0.250000X0.225000X-0.250000X0*%
%TD*%
%TA.AperFunction,ComponentPad*%
%ADD27RotRect,0.850000X0.850000X315.000000*%
%TD*%
%TA.AperFunction,ComponentPad*%
%ADD28HorizOval,0.850000X0.000000X0.000000X0.000000X0.000000X0*%
%TD*%
%TA.AperFunction,ComponentPad*%
%ADD29RotRect,0.850000X0.850000X135.000000*%
%TD*%
%TA.AperFunction,ComponentPad*%
%ADD30HorizOval,0.850000X0.000000X0.000000X0.000000X0.000000X0*%
%TD*%
%TA.AperFunction,SMDPad,CuDef*%
%ADD31R,1.140000X0.600000*%
%TD*%
%TA.AperFunction,SMDPad,CuDef*%
%ADD32R,1.140000X0.300000*%
%TD*%
%TA.AperFunction,ComponentPad*%
%ADD33O,2.000000X0.900000*%
%TD*%
%TA.AperFunction,ComponentPad*%
%ADD34O,1.700000X0.900000*%
%TD*%
%TA.AperFunction,ViaPad*%
%ADD35C,0.600000*%
%TD*%
%TA.AperFunction,Conductor*%
%ADD36C,0.300000*%
%TD*%
%TA.AperFunction,Conductor*%
%ADD37C,0.200000*%
%TD*%
G04 APERTURE END LIST*
D10*
%TO.P,D1,1,DVDD*%
%TO.N,+3.3V*%
X43900006Y-58300006D03*
%TO.P,D1,2,DGND*%
%TO.N,GND*%
X43900004Y-58950006D03*
%TO.P,D1,3,CLKIN*%
X43900006Y-59600007D03*
%TO.P,D1,4,GAIN*%
X43900006Y-60250009D03*
%TO.P,D1,5,CAP*%
%TO.N,Net-(C3-Pad2)*%
X43899996Y-60899996D03*
%TO.P,D1,6,CAP*%
%TO.N,Net-(C3-Pad1)*%
X43900002Y-61550008D03*
%TO.P,D1,7,AINP*%
%TO.N,/A+*%
X43900003Y-62200008D03*
%TO.P,D1,8,AINN*%
%TO.N,/A-*%
X43900004Y-62850004D03*
%TO.P,D1,9,REFN*%
%TO.N,GND*%
X49700002Y-62850004D03*
%TO.P,D1,10,REFP*%
%TO.N,+3.3V*%
X49700004Y-62200004D03*
%TO.P,D1,11,AGND*%
%TO.N,GND*%
X49700002Y-61550003D03*
%TO.P,D1,12,AVDD*%
%TO.N,+3.3V*%
X49700002Y-60900001D03*
%TO.P,D1,13,SPEED*%
%TO.N,GND*%
X49700012Y-60250014D03*
%TO.P,D1,14,PWDN*%
%TO.N,+3.3V*%
X49700006Y-59600002D03*
%TO.P,D1,15,SCLK*%
%TO.N,/I2C2_SCL*%
X49700005Y-58950002D03*
%TO.P,D1,16,~DRDY/DOUT*%
%TO.N,/I2C2_SDA*%
X49700004Y-58300006D03*
%TD*%
D11*
%TO.P,C19,1*%
%TO.N,+3.3V*%
X52550002Y-41100003D03*
%TO.P,C19,2*%
%TO.N,GND*%
X52550002Y-39550001D03*
%TD*%
D12*
%TO.P,J2,1,Pin_1*%
%TO.N,+3.3V*%
X39534822Y-60415183D03*
D13*
%TO.P,J2,2,Pin_2*%
%TO.N,/A+*%
X38827715Y-59708076D03*
%TD*%
D14*
%TO.P,U4,1,PB7/PB8*%
%TO.N,unconnected-(U4-PB7{slash}PB8-Pad1)*%
X48400001Y-42775003D03*
%TO.P,U4,2,PC14/PB9*%
%TO.N,unconnected-(U4-PC14{slash}PB9-Pad2)*%
X48400002Y-42125003D03*
%TO.P,U4,3,PC15*%
%TO.N,unconnected-(U4-PC15-Pad3)*%
X48400002Y-41475003D03*
%TO.P,U4,4,VDD*%
%TO.N,+3.3V*%
X48400002Y-40825003D03*
%TO.P,U4,5,VSS*%
%TO.N,GND*%
X48400001Y-40175002D03*
%TO.P,U4,6,NRST*%
%TO.N,/NRST*%
X48400001Y-39525004D03*
%TO.P,U4,7,PA0*%
%TO.N,unconnected-(U4-PA0-Pad7)*%
X48400002Y-38875003D03*
%TO.P,U4,8,PA1*%
%TO.N,unconnected-(U4-PA1-Pad8)*%
X48400002Y-38225004D03*
%TO.P,U4,9,PA2*%
%TO.N,/USART2_TX*%
X48400001Y-37575002D03*
%TO.P,U4,10,PA3*%
%TO.N,/USART2_RX*%
X48400006Y-36925004D03*
%TO.P,U4,11,PA4*%
%TO.N,unconnected-(U4-PA4-Pad11)*%
X42675003Y-36925003D03*
%TO.P,U4,12,PA5*%
%TO.N,unconnected-(U4-PA5-Pad12)*%
X42675002Y-37575003D03*
%TO.P,U4,13,PA6*%
%TO.N,unconnected-(U4-PA6-Pad13)*%
X42675002Y-38225003D03*
%TO.P,U4,14,PA7*%
%TO.N,unconnected-(U4-PA7-Pad14)*%
X42675002Y-38875003D03*
%TO.P,U4,15,PB0/PB1/PB2/PA8*%
%TO.N,unconnected-(U4-PB0{slash}PB1{slash}PB2{slash}PA8-Pad15)*%
X42675003Y-39525004D03*
%TO.P,U4,16,PA11/PA9*%
%TO.N,/I2C2_SCL*%
X42675003Y-40175002D03*
%TO.P,U4,17,PA12/PA10*%
%TO.N,/I2C2_SDA*%
X42675002Y-40825003D03*
%TO.P,U4,18,PA13*%
%TO.N,/SWCLK*%
X42675002Y-41475002D03*
%TO.P,U4,19,PA14/PA15*%
%TO.N,/SWDIO*%
X42675003Y-42125004D03*
%TO.P,U4,20,PB3/PB4/PB5/PB6*%
%TO.N,unconnected-(U4-PB3{slash}PB4{slash}PB5{slash}PB6-Pad20)*%
X42674998Y-42775002D03*
%TD*%
D15*
%TO.P,C17,1*%
%TO.N,+3.3V*%
X53450004Y-61150005D03*
%TO.P,C17,2*%
%TO.N,GND*%
X55350002Y-61150005D03*
%TD*%
D16*
%TO.P,U3,1,VIN*%
%TO.N,VBUS*%
X55450000Y-59300006D03*
%TO.P,U3,2,GND*%
%TO.N,GND*%
X55450000Y-58350006D03*
%TO.P,U3,3,EN*%
%TO.N,VBUS*%
X55450000Y-57400006D03*
%TO.P,U3,4,NC*%
%TO.N,unconnected-(U3-NC-Pad4)*%
X53175000Y-57400006D03*
%TO.P,U3,5,VOUT*%
%TO.N,+3.3V*%
X53175000Y-59300006D03*
%TD*%
D12*
%TO.P,J4,1,Pin_1*%
%TO.N,/A+*%
X60465182Y-39484823D03*
D13*
%TO.P,J4,2,Pin_2*%
%TO.N,GND*%
X59758075Y-38777716D03*
%TD*%
D17*
%TO.P,C4,1*%
%TO.N,GND*%
X51250003Y-59909878D03*
%TO.P,C4,2*%
%TO.N,+3.3V*%
X51250003Y-61459880D03*
%TD*%
D18*
%TO.P,J3,1,Pin_1*%
%TO.N,+3.3V*%
X42000003Y-45925003D03*
D19*
%TO.P,J3,2,Pin_2*%
%TO.N,/SWCLK*%
X41000003Y-45925003D03*
%TO.P,J3,3,Pin_3*%
%TO.N,/SWDIO*%
X40000003Y-45925003D03*
%TO.P,J3,4,Pin_4*%
%TO.N,GND*%
X39000003Y-45925003D03*
%TD*%
D20*
%TO.P,C16,1*%
%TO.N,VBUS*%
X57450002Y-57350005D03*
%TO.P,C16,2*%
%TO.N,GND*%
X57450002Y-59250003D03*
%TD*%
D21*
%TO.P,R14,1*%
%TO.N,/I2C2_SCL*%
X41350002Y-56925003D03*
%TO.P,R14,2*%
%TO.N,+3.3V*%
X41350002Y-58575003D03*
%TD*%
D22*
%TO.P,R9,1*%
%TO.N,/SWDIO*%
X38750002Y-51425003D03*
%TO.P,R9,2*%
%TO.N,GND*%
X40400002Y-51425003D03*
%TD*%
D11*
%TO.P,C3,1*%
%TO.N,Net-(C3-Pad1)*%
X42300002Y-61950003D03*
%TO.P,C3,2*%
%TO.N,Net-(C3-Pad2)*%
X42300002Y-60400001D03*
%TD*%
D23*
%TO.P,R1,1*%
%TO.N,Net-(J11-CC2)*%
X62350002Y-44000003D03*
%TO.P,R1,2*%
%TO.N,GND*%
X62350002Y-42350003D03*
%TD*%
D24*
%TO.P,U5,1,UD+*%
%TO.N,/D+*%
X59050007Y-43750001D03*
%TO.P,U5,2,UD-*%
%TO.N,/D-*%
X59050002Y-43250003D03*
%TO.P,U5,3,GND*%
%TO.N,GND*%
X59050002Y-42750003D03*
%TO.P,U5,4,~{RTS}*%
%TO.N,unconnected-(U5-~{RTS}-Pad4)*%
X59050004Y-42250007D03*
%TO.P,U5,5,~{CTS}*%
%TO.N,unconnected-(U5-~{CTS}-Pad5)*%
X59050003Y-41750002D03*
%TO.P,U5,6,TNOW*%
%TO.N,unconnected-(U5-TNOW-Pad6)*%
X54649997Y-41750005D03*
%TO.P,U5,7,VCC*%
%TO.N,+3.3V*%
X54650002Y-42250003D03*
%TO.P,U5,8,TXD*%
%TO.N,Net-(U5-TXD)*%
X54650002Y-42750003D03*
%TO.P,U5,9,RXD*%
%TO.N,/USART2_TX*%
X54650000Y-43249999D03*
%TO.P,U5,10,V3*%
%TO.N,unconnected-(U5-V3-Pad10)*%
X54650001Y-43750004D03*
%TD*%
D25*
%TO.P,SW2,1,1*%
%TO.N,/SWDIO*%
X38825002Y-48850003D03*
%TO.P,SW2,2,2*%
%TO.N,+3.3V*%
X42225002Y-48850003D03*
%TD*%
D23*
%TO.P,R15,1*%
%TO.N,/I2C2_SDA*%
X41375002Y-55400003D03*
%TO.P,R15,2*%
%TO.N,+3.3V*%
X41375002Y-53750003D03*
%TD*%
D26*
%TO.P,C20,1*%
%TO.N,/NRST*%
X47975004Y-35500003D03*
%TO.P,C20,2*%
%TO.N,GND*%
X46425002Y-35500003D03*
%TD*%
D27*
%TO.P,J6,1,Pin_1*%
%TO.N,/A-*%
X39534822Y-39484823D03*
D28*
%TO.P,J6,2,Pin_2*%
%TO.N,+3.3V*%
X38827715Y-40191930D03*
%TD*%
D11*
%TO.P,C18,1*%
%TO.N,+3.3V*%
X50900002Y-41100003D03*
%TO.P,C18,2*%
%TO.N,GND*%
X50900002Y-39550001D03*
%TD*%
D29*
%TO.P,J5,1,Pin_1*%
%TO.N,/A-*%
X60465182Y-60415183D03*
D30*
%TO.P,J5,2,Pin_2*%
%TO.N,GND*%
X61172289Y-59708076D03*
%TD*%
D31*
%TO.P,J11,A1_B12,GND*%
%TO.N,GND*%
X59250003Y-53125003D03*
%TO.P,J11,A4_B9,VBUS*%
%TO.N,VBUS*%
X59250003Y-52325004D03*
D32*
%TO.P,J11,A5,CC1*%
%TO.N,Net-(J11-CC1)*%
X59250003Y-51175003D03*
%TO.P,J11,A6,DP1*%
%TO.N,/D+*%
X59250002Y-50175003D03*
%TO.P,J11,A7,DN1*%
%TO.N,/D-*%
X59250003Y-49675004D03*
%TO.P,J11,A8,SBU1*%
%TO.N,unconnected-(J11-SBU1-PadA8)*%
X59250004Y-48675003D03*
D31*
%TO.P,J11,B1_A12,GND*%
%TO.N,GND*%
X59250003Y-46725003D03*
%TO.P,J11,B4_A9,VBUS*%
%TO.N,VBUS*%
X59250004Y-47525002D03*
D32*
%TO.P,J11,B5,CC2*%
%TO.N,Net-(J11-CC2)*%
X59250002Y-48175003D03*
%TO.P,J11,B6,DP2*%
%TO.N,/D+*%
X59250002Y-49175002D03*
%TO.P,J11,B7,DN2*%
%TO.N,/D-*%
X59250004Y-50675004D03*
%TO.P,J11,B8,SBU2*%
%TO.N,unconnected-(J11-SBU2-PadB8)*%
X59250003Y-51675003D03*
D33*
%TO.P,J11,S1,SHIELD*%
%TO.N,unconnected-(J11-SHIELD-PadS1)_2*%
X59830003Y-54250003D03*
%TO.P,J11,S2,SHIELD*%
%TO.N,unconnected-(J11-SHIELD-PadS1)_0*%
X59830004Y-45600002D03*
D34*
%TO.P,J11,S3,SHIELD*%
%TO.N,unconnected-(J11-SHIELD-PadS1)*%
X64000003Y-54250003D03*
%TO.P,J11,S4,SHIELD*%
%TO.N,unconnected-(J11-SHIELD-PadS1)_1*%
X64000003Y-45600003D03*
%TD*%
D21*
%TO.P,R2,1*%
%TO.N,Net-(J11-CC1)*%
X57000002Y-53100003D03*
%TO.P,R2,2*%
%TO.N,GND*%
X57000002Y-54750003D03*
%TD*%
D22*
%TO.P,R10,1*%
%TO.N,/USART2_RX*%
X52350002Y-36600003D03*
%TO.P,R10,2*%
%TO.N,Net-(U5-TXD)*%
X54000002Y-36600003D03*
%TD*%
D35*
%TO.N,GND*%
X56800002Y-55850003D03*
X57575002Y-42825003D03*
X39375002Y-44300003D03*
X61400002Y-46425003D03*
X44975002Y-59700003D03*
X51250002Y-58850003D03*
X40350002Y-52475003D03*
X46625002Y-40175003D03*
X56700002Y-61125003D03*
X48475002Y-61425003D03*
X57475002Y-60625003D03*
%TO.N,+3.3V*%
X52250002Y-42325003D03*
X42700002Y-57425003D03*
X56025002Y-41800003D03*
X41200002Y-38275003D03*
X40075002Y-54375003D03*
%TO.N,/A-*%
X44925002Y-62925003D03*
%TO.N,/A+*%
X45800002Y-62150003D03*
X42575002Y-63125003D03*
%TD*%
D36*
%TO.N,GND*%
X60300002Y-42350003D02*
X62350002Y-42350003D01*
X50200004Y-39550001D02*
X50900002Y-39550001D01*
X59050002Y-42750003D02*
X57850002Y-42750003D01*
X40400002Y-52425003D02*
X40350002Y-52475003D01*
X59350002Y-46725003D02*
X59740002Y-46335003D01*
X56675000Y-61150005D02*
X56700002Y-61125003D01*
X59740002Y-46335003D02*
X61310002Y-46335003D01*
X50900002Y-39550001D02*
X52550002Y-39550001D01*
X53650003Y-62850004D02*
X49700002Y-62850004D01*
X57725002Y-54750003D02*
X59350002Y-53125003D01*
X49600003Y-40150002D02*
X50200004Y-39550001D01*
X50515127Y-59909878D02*
X51250003Y-59909878D01*
X43900004Y-58950006D02*
X44225005Y-58950006D01*
X56800002Y-54750003D02*
X57725002Y-54750003D01*
X43900006Y-59600007D02*
X44875006Y-59600007D01*
X44225005Y-58950006D02*
X44975002Y-59700003D01*
X48475002Y-61425003D02*
X48825002Y-61550003D01*
X60714216Y-59250003D02*
X61172289Y-59708076D01*
X48825002Y-62775004D02*
X48825002Y-61550003D01*
X48225001Y-40150002D02*
X46650003Y-40150002D01*
X43900006Y-60250009D02*
X44424996Y-60250009D01*
X46500000Y-39162500D02*
X47487502Y-40150002D01*
X46500000Y-35350003D02*
X46500000Y-39162500D01*
X47487502Y-40150002D02*
X48225001Y-40150002D01*
X50174991Y-60250014D02*
X50515127Y-59909878D01*
X61310002Y-46335003D02*
X61400002Y-46425003D01*
X48900002Y-62850004D02*
X48825002Y-62775004D01*
X59900002Y-42750003D02*
X60300002Y-42350003D01*
X49700012Y-60250014D02*
X50174991Y-60250014D01*
X49700002Y-62850004D02*
X48900002Y-62850004D01*
X40400002Y-51425003D02*
X40400002Y-52425003D01*
X57450002Y-60600003D02*
X57475002Y-60625003D01*
X59050002Y-42750003D02*
X59900002Y-42750003D01*
X48950000Y-40150002D02*
X49600003Y-40150002D01*
X48825002Y-61550003D02*
X49700002Y-61550003D01*
X55350002Y-61150005D02*
X53650003Y-62850004D01*
X51250003Y-59909878D02*
X51250002Y-58850003D01*
X57775002Y-42825003D02*
X57575002Y-42825003D01*
X44875006Y-59600007D02*
X44975002Y-59700003D01*
X57850002Y-42750003D02*
X57825002Y-42775003D01*
X39000003Y-45925003D02*
X39000003Y-44675002D01*
X57825002Y-42775003D02*
X57775002Y-42825003D01*
X49700002Y-61550003D02*
X49150005Y-61550003D01*
X56800002Y-54750003D02*
X56800002Y-55850003D01*
X55350002Y-61150005D02*
X55550000Y-61150005D01*
X46650003Y-40150002D02*
X46625002Y-40175003D01*
X44424996Y-60250009D02*
X44975002Y-59700003D01*
X51349999Y-58750006D02*
X51250002Y-58850003D01*
X57450002Y-59250003D02*
X60714216Y-59250003D01*
X39000003Y-44675002D02*
X39375002Y-44300003D01*
%TO.N,Net-(C3-Pad1)*%
X43900002Y-61550008D02*
X43324997Y-61550008D01*
X43324997Y-61550008D02*
X42925002Y-61950003D01*
X42925002Y-61950003D02*
X42300002Y-61950003D01*
%TO.N,Net-(C3-Pad2)*%
X43299995Y-60899996D02*
X42800000Y-60400001D01*
D37*
X42450004Y-60300001D02*
X42625000Y-60300001D01*
D36*
X42800000Y-60400001D02*
X42300002Y-60400001D01*
X43899996Y-60899996D02*
X43299995Y-60899996D01*
%TO.N,+3.3V*%
X53450004Y-59575010D02*
X53175000Y-59300006D01*
X50175000Y-60900001D02*
X50734879Y-61459880D01*
X54650002Y-42250003D02*
X55575002Y-42250003D01*
X39625853Y-40616929D02*
X39252714Y-40616929D01*
X41200002Y-38275003D02*
X41200002Y-39042780D01*
X50734879Y-61459880D02*
X51250003Y-61459880D01*
X49095999Y-60900001D02*
X48900002Y-60704004D01*
X41375002Y-53750003D02*
X41375002Y-49700003D01*
X42225002Y-46150002D02*
X42000003Y-45925003D01*
X43900006Y-58300006D02*
X44784319Y-58300006D01*
X41200002Y-39042780D02*
X39625853Y-40616929D01*
X42350002Y-48975003D02*
X42225002Y-48850003D01*
X41624999Y-58300006D02*
X41350002Y-58575003D01*
X51559878Y-61150005D02*
X51250003Y-61459880D01*
X48950001Y-40800003D02*
X49700002Y-40800003D01*
X52250002Y-42325003D02*
X52125002Y-42325003D01*
X41375002Y-53750003D02*
X40700002Y-53750003D01*
D37*
X50834879Y-61459880D02*
X51250003Y-61459880D01*
D36*
X42225002Y-48850003D02*
X42225002Y-46150002D01*
X48900002Y-59600006D02*
X48900006Y-59600002D01*
X39252714Y-40616929D02*
X38827715Y-40191930D01*
X49700002Y-60900001D02*
X49095999Y-60900001D01*
X49700002Y-60900001D02*
X50175000Y-60900001D01*
X41350002Y-58600003D02*
X39534822Y-60415183D01*
X53450004Y-61150005D02*
X51559878Y-61150005D01*
X50900002Y-41100003D02*
X52550002Y-41100003D01*
X48900006Y-59600002D02*
X49700006Y-59600002D01*
X55575002Y-42250003D02*
X56025002Y-41800003D01*
X40700002Y-53750003D02*
X40075002Y-54375003D01*
X49700006Y-59600002D02*
X46084315Y-59600002D01*
X41350002Y-58575003D02*
X41550002Y-58575003D01*
X41375002Y-49700003D02*
X42225002Y-48850003D01*
X50000002Y-41100003D02*
X50900002Y-41100003D01*
X50509879Y-62200004D02*
X51250003Y-61459880D01*
X41550002Y-58575003D02*
X42700002Y-57425003D01*
X44784319Y-58300006D02*
X45992159Y-59507846D01*
X47487503Y-40800003D02*
X42362503Y-45925003D01*
X48900002Y-60704004D02*
X48900002Y-59600006D01*
X41350002Y-58575003D02*
X41350002Y-58600003D01*
X49700004Y-62200004D02*
X50509879Y-62200004D01*
X49700002Y-40800003D02*
X50000002Y-41100003D01*
X43900006Y-58300006D02*
X41624999Y-58300006D01*
X42362503Y-45925003D02*
X42000003Y-45925003D01*
X48225002Y-40800003D02*
X47487503Y-40800003D01*
X46084315Y-59600002D02*
X45992159Y-59507846D01*
X52125002Y-42325003D02*
X50900002Y-41100003D01*
%TO.N,/NRST*%
X48225001Y-39500004D02*
X47487502Y-39500004D01*
X47225002Y-39237504D02*
X47225002Y-36175003D01*
X47225002Y-36175003D02*
X48050002Y-35350003D01*
X47487502Y-39500004D02*
X47225002Y-39237504D01*
%TO.N,VBUS*%
X59250004Y-47525002D02*
X59400005Y-47675003D01*
X60709951Y-52115003D02*
X59560003Y-52115003D01*
X59800002Y-47675003D02*
X59875002Y-47750003D01*
X61180002Y-52585054D02*
X60709951Y-52115003D01*
X57400001Y-57400006D02*
X57450002Y-57350005D01*
X59875002Y-47750003D02*
X60100002Y-47750003D01*
X55024999Y-57400006D02*
X55450000Y-57400006D01*
X57450002Y-57350005D02*
X58369949Y-57350005D01*
X59560003Y-52115003D02*
X59350002Y-52325004D01*
X60100002Y-47750003D02*
X60709951Y-48359952D01*
X61180002Y-54539952D02*
X61180002Y-52585054D01*
X58369949Y-57350005D02*
X61180002Y-54539952D01*
X60709951Y-48359952D02*
X60709951Y-52115003D01*
X59400005Y-47675003D02*
X59800002Y-47675003D01*
D37*
%TO.N,/D-*%
X57086158Y-44245647D02*
X58056806Y-43274999D01*
X59325002Y-50650003D02*
X58381802Y-50650003D01*
X59025006Y-43274999D02*
X59050002Y-43250003D01*
X59350002Y-49675004D02*
X59970002Y-49675004D01*
X58381802Y-50650003D02*
X57086158Y-49354359D01*
X59970000Y-50675004D02*
X59350003Y-50675004D01*
X59075003Y-43275004D02*
X59050002Y-43250003D01*
X59350002Y-49675004D02*
X59375002Y-49650004D01*
X59350003Y-50675004D02*
X59325002Y-50650003D01*
X57086158Y-49354359D02*
X57086158Y-44245647D01*
X60120001Y-50525003D02*
X59970000Y-50675004D01*
X58056806Y-43274999D02*
X59025006Y-43274999D01*
X59970002Y-49675004D02*
X60120001Y-49825003D01*
X60120001Y-49825003D02*
X60120001Y-50525003D01*
D36*
%TO.N,/SWDIO*%
X40000003Y-44062505D02*
X40000003Y-45925003D01*
X38825002Y-47100004D02*
X40000003Y-45925003D01*
X38750002Y-51425003D02*
X38750002Y-48925003D01*
X43237502Y-42100004D02*
X42500003Y-42100004D01*
X41937504Y-42125004D02*
X40000003Y-44062505D01*
X42675003Y-42125004D02*
X41937504Y-42125004D01*
X38750002Y-48925003D02*
X38825002Y-48850003D01*
X38825002Y-48850003D02*
X38825002Y-47100004D01*
%TO.N,/SWCLK*%
X43425001Y-41450002D02*
X42500002Y-41450002D01*
X43689498Y-43085507D02*
X41552002Y-45223003D01*
X42675002Y-41475002D02*
X43412501Y-41475002D01*
X41552002Y-45223003D02*
X41298003Y-45223003D01*
X43412501Y-41475002D02*
X43689498Y-41751999D01*
X43689498Y-41751999D02*
X43689498Y-43085507D01*
X41298003Y-45223003D02*
X41000003Y-45521003D01*
X41000003Y-45521003D02*
X41000003Y-45925003D01*
%TO.N,/A-*%
X43900004Y-62850004D02*
X44850003Y-62850004D01*
X44850003Y-62850004D02*
X44925002Y-62925003D01*
%TO.N,/A+*%
X43350000Y-62200008D02*
X42575002Y-62975006D01*
X45800002Y-62150003D02*
X45424997Y-62200008D01*
X43900003Y-62200008D02*
X43350000Y-62200008D01*
X42575002Y-62975006D02*
X42575002Y-63125003D01*
X45424997Y-62200008D02*
X43900003Y-62200008D01*
%TO.N,/I2C2_SDA*%
X46775005Y-58300006D02*
X49700004Y-58300006D01*
X44225002Y-55750003D02*
X46775005Y-58300006D01*
X42500002Y-40800003D02*
X41725002Y-40800003D01*
X36800002Y-45725003D02*
X36800002Y-52800003D01*
X36800002Y-52800003D02*
X39750002Y-55750003D01*
X39750002Y-55750003D02*
X44225002Y-55750003D01*
X41725002Y-40800003D02*
X36800002Y-45725003D01*
%TO.N,/I2C2_SCL*%
X46725001Y-58950002D02*
X49700005Y-58950002D01*
X44325002Y-56550003D02*
X46725001Y-58950002D01*
X35850002Y-45525003D02*
X35850002Y-53200003D01*
X35850002Y-53200003D02*
X39200002Y-56550003D01*
X39200002Y-56550003D02*
X44325002Y-56550003D01*
X42500003Y-40150002D02*
X41225003Y-40150002D01*
X41225003Y-40150002D02*
X35850002Y-45525003D01*
%TO.N,Net-(U5-TXD)*%
X55891004Y-42750003D02*
X54650002Y-42750003D01*
X54000002Y-36600003D02*
X54500008Y-36600003D01*
X54500008Y-36600003D02*
X56625002Y-38724997D01*
X56625002Y-38724997D02*
X56625002Y-42016005D01*
X56625002Y-42016005D02*
X55891004Y-42750003D01*
%TO.N,/USART2_RX*%
X49687504Y-36900004D02*
X49987505Y-36600003D01*
X48950005Y-36900004D02*
X49687504Y-36900004D01*
X49987505Y-36600003D02*
X52350002Y-36600003D01*
%TO.N,/USART2_TX*%
X53600002Y-43250003D02*
X53600002Y-39408831D01*
X53600002Y-39408831D02*
X51766173Y-37575002D01*
X51766173Y-37575002D02*
X48400001Y-37575002D01*
X54650000Y-43250003D02*
X53600002Y-43250003D01*
D37*
%TO.N,unconnected-(U5-V3-Pad10)*%
X55200005Y-43750008D02*
X55225000Y-43775003D01*
%TO.N,/D+*%
X58568201Y-50200002D02*
X57536158Y-49167959D01*
X59350001Y-49175002D02*
X59375002Y-49200003D01*
X59325002Y-50200002D02*
X58568201Y-50200002D01*
X57536158Y-48550003D02*
X57536158Y-44432047D01*
X59075003Y-43725005D02*
X59050007Y-43750001D01*
X58161157Y-49175002D02*
X57536158Y-48550003D01*
X59350001Y-50175003D02*
X59325002Y-50200002D01*
X59350001Y-49175002D02*
X58161157Y-49175002D01*
X57536158Y-49167959D02*
X57536158Y-48550003D01*
X58243205Y-43725000D02*
X59025006Y-43725000D01*
X59025006Y-43725000D02*
X59050007Y-43750001D01*
X57536158Y-44432047D02*
X58243205Y-43725000D01*
D36*
%TO.N,Net-(J11-CC2)*%
X58150002Y-47695001D02*
X58630004Y-48175003D01*
X59350001Y-48175003D02*
X58630004Y-48175003D01*
X61900002Y-44450003D02*
X62350002Y-44000003D01*
X58630004Y-48175003D02*
X59250002Y-48175003D01*
X58825002Y-44450003D02*
X58150002Y-45125003D01*
X58825002Y-44450003D02*
X61900002Y-44450003D01*
X58150002Y-45125003D02*
X58150002Y-47695001D01*
%TO.N,Net-(J11-CC1)*%
X59250003Y-51175003D02*
X58380003Y-51175003D01*
X58725002Y-51175003D02*
X59350002Y-51175003D01*
X58380003Y-51175003D02*
X57000002Y-52555004D01*
X57000002Y-52555004D02*
X57000002Y-53100003D01*
%TD*%
%TA.AperFunction,Conductor*%
%TO.N,GND*%
G36*
X56007020Y-58061964D02*
G01*
X56034866Y-58071707D01*
X56047881Y-58077109D01*
X56113154Y-58108667D01*
X56113160Y-58108668D01*
X56113163Y-58108670D01*
X56180029Y-58128859D01*
X56180037Y-58128861D01*
X56180041Y-58128862D01*
X56266011Y-58141893D01*
X56893589Y-58146683D01*
X56907389Y-58147561D01*
X56931900Y-58150505D01*
X57393764Y-58150505D01*
X57394710Y-58150509D01*
X57822086Y-58153771D01*
X57888969Y-58173965D01*
X57923881Y-58208344D01*
X58382343Y-58886868D01*
X58403747Y-58918545D01*
X58424969Y-58985113D01*
X58425002Y-58987967D01*
X58425002Y-60999513D01*
X58405317Y-61066552D01*
X58389733Y-61086132D01*
X57436970Y-62062132D01*
X57376055Y-62096353D01*
X57347080Y-62099508D01*
X56062699Y-62087504D01*
X56062327Y-62087500D01*
X55100465Y-62075626D01*
X55033674Y-62055115D01*
X55014315Y-62039316D01*
X54685277Y-61710278D01*
X54651792Y-61648955D01*
X54648984Y-61625127D01*
X54637984Y-61086132D01*
X54626164Y-60506956D01*
X54644476Y-60439531D01*
X54667452Y-60412020D01*
X55063540Y-60057626D01*
X55126626Y-60027595D01*
X55148912Y-60026066D01*
X56250002Y-60050003D01*
X56327560Y-59946592D01*
X56345541Y-59927296D01*
X56380377Y-59897112D01*
X56380383Y-59897105D01*
X56380389Y-59897100D01*
X56422550Y-59852384D01*
X56422555Y-59852379D01*
X56468906Y-59761220D01*
X56473972Y-59753089D01*
X56475000Y-59750005D01*
X56475002Y-59750003D01*
X56475002Y-59750000D01*
X56478745Y-59738776D01*
X56480025Y-59729879D01*
X56493126Y-59685264D01*
X56505502Y-59599192D01*
X56505502Y-59068284D01*
X56505302Y-59057239D01*
X56504978Y-59048283D01*
X56485822Y-58952313D01*
X56461347Y-58886870D01*
X56434121Y-58831738D01*
X56358063Y-58749155D01*
X56302092Y-58707334D01*
X56249390Y-58675678D01*
X56249391Y-58675678D01*
X56140760Y-58647323D01*
X56140756Y-58647322D01*
X56123956Y-58646136D01*
X56123900Y-58646115D01*
X56072342Y-58642490D01*
X56072303Y-58642487D01*
X56052059Y-58641057D01*
X56049614Y-58640147D01*
X56048851Y-58640497D01*
X56042716Y-58641228D01*
X56015083Y-58643821D01*
X56015067Y-58643822D01*
X56008205Y-58644465D01*
X55996636Y-58645006D01*
X54933933Y-58645006D01*
X54892969Y-58638044D01*
X54886612Y-58635819D01*
X54853943Y-58618551D01*
X54846740Y-58613235D01*
X54824141Y-58591666D01*
X54820268Y-58586900D01*
X54793266Y-58522459D01*
X54792500Y-58508699D01*
X54792500Y-58193093D01*
X54812185Y-58126054D01*
X54816724Y-58119467D01*
X54822711Y-58111354D01*
X54848843Y-58085220D01*
X54853949Y-58081451D01*
X54886629Y-58064183D01*
X54892987Y-58061958D01*
X54933925Y-58055006D01*
X55966068Y-58055006D01*
X56007020Y-58061964D01*
G37*
%TD.AperFunction*%
%TD*%
%TA.AperFunction,Conductor*%
%TO.N,+3.3V*%
G36*
X53726881Y-58806503D02*
G01*
X53793798Y-58826592D01*
X53839233Y-58879671D01*
X53850119Y-58932176D01*
X53845201Y-59296205D01*
X53846196Y-59325331D01*
X53848126Y-59348858D01*
X53848428Y-59352298D01*
X53879235Y-59460257D01*
X53910424Y-59522773D01*
X53910425Y-59522775D01*
X53910427Y-59522778D01*
X53959925Y-59594272D01*
X54091868Y-59736365D01*
X54123061Y-59798884D01*
X54125002Y-59820740D01*
X54125002Y-61686538D01*
X54105317Y-61753577D01*
X54088683Y-61774219D01*
X53752193Y-62110708D01*
X53690870Y-62144193D01*
X53661817Y-62146998D01*
X52699780Y-62126085D01*
X52633184Y-62104948D01*
X52614794Y-62089795D01*
X52386321Y-61861322D01*
X52352836Y-61799999D01*
X52350002Y-61773641D01*
X52350002Y-59129550D01*
X52369687Y-59062511D01*
X52390208Y-59038146D01*
X52614130Y-58832885D01*
X52676847Y-58802097D01*
X52698657Y-58800296D01*
X53726881Y-58806503D01*
G37*
%TD.AperFunction*%
%TD*%
%TA.AperFunction,Conductor*%
%TO.N,VBUS*%
G36*
X58053898Y-56744688D02*
G01*
X58087142Y-56776070D01*
X58226285Y-56967392D01*
X58249796Y-57033187D01*
X58250002Y-57040325D01*
X58250002Y-57577858D01*
X58230317Y-57644897D01*
X58218680Y-57660240D01*
X58087373Y-57807959D01*
X58028122Y-57844986D01*
X57993748Y-57849573D01*
X56268343Y-57836402D01*
X56201456Y-57816207D01*
X56195657Y-57812176D01*
X56175382Y-57797213D01*
X56047200Y-57752359D01*
X56016770Y-57749506D01*
X56016766Y-57749506D01*
X54883234Y-57749506D01*
X54883230Y-57749506D01*
X54852800Y-57752359D01*
X54852798Y-57752359D01*
X54724619Y-57797212D01*
X54724617Y-57797213D01*
X54615350Y-57877856D01*
X54534705Y-57987126D01*
X54534705Y-57987127D01*
X54529318Y-58002520D01*
X54508226Y-58032646D01*
X54500002Y-58050002D01*
X54500002Y-58065236D01*
X54493044Y-58106189D01*
X54489854Y-58115304D01*
X54489853Y-58115311D01*
X54487000Y-58145736D01*
X54487000Y-58554275D01*
X54489852Y-58584695D01*
X54489855Y-58584709D01*
X54493043Y-58593818D01*
X54500002Y-58634773D01*
X54500002Y-58700003D01*
X54571564Y-58766454D01*
X54586958Y-58783686D01*
X54615350Y-58822156D01*
X54724618Y-58902799D01*
X54767345Y-58917750D01*
X54852799Y-58947652D01*
X54883230Y-58950506D01*
X54883234Y-58950506D01*
X56016770Y-58950506D01*
X56047191Y-58947653D01*
X56047193Y-58947652D01*
X56047199Y-58947652D01*
X56047204Y-58947650D01*
X56049536Y-58947141D01*
X56051314Y-58947266D01*
X56054712Y-58946948D01*
X56054764Y-58947510D01*
X56119232Y-58952064D01*
X56175203Y-58993885D01*
X56199678Y-59059328D01*
X56200002Y-59068284D01*
X56200002Y-59599192D01*
X56180317Y-59666231D01*
X56127513Y-59711986D01*
X56074205Y-59723179D01*
X54528002Y-59700771D01*
X54461255Y-59680117D01*
X54438939Y-59661166D01*
X54183794Y-59386394D01*
X54152603Y-59323875D01*
X54150673Y-59300345D01*
X54154814Y-58993885D01*
X54174441Y-57541453D01*
X54195030Y-57474688D01*
X54200359Y-57467248D01*
X54737772Y-56773091D01*
X54794375Y-56732134D01*
X54835820Y-56725003D01*
X57986859Y-56725003D01*
X58053898Y-56744688D01*
G37*
%TD.AperFunction*%
%TD*%
M02*
