%TF.GenerationSoftware,KiCad,Pcbnew,8.0.0*%
%TF.CreationDate,2024-05-17T03:14:28+03:00*%
%TF.ProjectId,pressure_sensor_logic,70726573-7375-4726-955f-73656e736f72,rev?*%
%TF.SameCoordinates,Original*%
%TF.FileFunction,Copper,L2,Bot*%
%TF.FilePolarity,Positive*%
%FSLAX46Y46*%
G04 Gerber Fmt 4.6, Leading zero omitted, Abs format (unit mm)*
G04 Created by KiCad (PCBNEW 8.0.0) date 2024-05-17 03:14:28*
%MOMM*%
%LPD*%
G01*
G04 APERTURE LIST*
G04 Aperture macros list*
%AMHorizOval*
0 Thick line with rounded ends*
0 $1 width*
0 $2 $3 position (X,Y) of the first rounded end (center of the circle)*
0 $4 $5 position (X,Y) of the second rounded end (center of the circle)*
0 Add line between two ends*
20,1,$1,$2,$3,$4,$5,0*
0 Add two circle primitives to create the rounded ends*
1,1,$1,$2,$3*
1,1,$1,$4,$5*%
%AMRotRect*
0 Rectangle, with rotation*
0 The origin of the aperture is its center*
0 $1 length*
0 $2 width*
0 $3 Rotation angle, in degrees counterclockwise*
0 Add horizontal line*
21,1,$1,$2,0,0,$3*%
G04 Aperture macros list end*
%TA.AperFunction,ComponentPad*%
%ADD10RotRect,0.850000X0.850000X225.000000*%
%TD*%
%TA.AperFunction,ComponentPad*%
%ADD11HorizOval,0.850000X0.000000X0.000000X0.000000X0.000000X0*%
%TD*%
%TA.AperFunction,ComponentPad*%
%ADD12R,0.850000X0.850000*%
%TD*%
%TA.AperFunction,ComponentPad*%
%ADD13O,0.850000X0.850000*%
%TD*%
%TA.AperFunction,ComponentPad*%
%ADD14RotRect,0.850000X0.850000X315.000000*%
%TD*%
%TA.AperFunction,ComponentPad*%
%ADD15HorizOval,0.850000X0.000000X0.000000X0.000000X0.000000X0*%
%TD*%
%TA.AperFunction,ComponentPad*%
%ADD16RotRect,0.850000X0.850000X135.000000*%
%TD*%
%TA.AperFunction,ComponentPad*%
%ADD17HorizOval,0.850000X0.000000X0.000000X0.000000X0.000000X0*%
%TD*%
%TA.AperFunction,ComponentPad*%
%ADD18O,2.000000X0.900000*%
%TD*%
%TA.AperFunction,ComponentPad*%
%ADD19O,1.700000X0.900000*%
%TD*%
%TA.AperFunction,ViaPad*%
%ADD20C,0.600000*%
%TD*%
%TA.AperFunction,Conductor*%
%ADD21C,0.300000*%
%TD*%
G04 APERTURE END LIST*
D10*
%TO.P,J2,1,Pin_1*%
%TO.N,+3.3V*%
X39534822Y-60415183D03*
D11*
%TO.P,J2,2,Pin_2*%
%TO.N,/A+*%
X38827715Y-59708076D03*
%TD*%
D10*
%TO.P,J4,1,Pin_1*%
%TO.N,/A+*%
X60465182Y-39484823D03*
D11*
%TO.P,J4,2,Pin_2*%
%TO.N,GND*%
X59758075Y-38777716D03*
%TD*%
D12*
%TO.P,J3,1,Pin_1*%
%TO.N,+3.3V*%
X42000003Y-45925003D03*
D13*
%TO.P,J3,2,Pin_2*%
%TO.N,/SWCLK*%
X41000003Y-45925003D03*
%TO.P,J3,3,Pin_3*%
%TO.N,/SWDIO*%
X40000003Y-45925003D03*
%TO.P,J3,4,Pin_4*%
%TO.N,GND*%
X39000003Y-45925003D03*
%TD*%
D14*
%TO.P,J6,1,Pin_1*%
%TO.N,/A-*%
X39534822Y-39484823D03*
D15*
%TO.P,J6,2,Pin_2*%
%TO.N,+3.3V*%
X38827715Y-40191930D03*
%TD*%
D16*
%TO.P,J5,1,Pin_1*%
%TO.N,/A-*%
X60465182Y-60415183D03*
D17*
%TO.P,J5,2,Pin_2*%
%TO.N,GND*%
X61172289Y-59708076D03*
%TD*%
D18*
%TO.P,J11,S1,SHIELD*%
%TO.N,unconnected-(J11-SHIELD-PadS1)_2*%
X59830003Y-54250003D03*
%TO.P,J11,S2,SHIELD*%
%TO.N,unconnected-(J11-SHIELD-PadS1)_0*%
X59830004Y-45600002D03*
D19*
%TO.P,J11,S3,SHIELD*%
%TO.N,unconnected-(J11-SHIELD-PadS1)*%
X64000003Y-54250003D03*
%TO.P,J11,S4,SHIELD*%
%TO.N,unconnected-(J11-SHIELD-PadS1)_1*%
X64000003Y-45600003D03*
%TD*%
D20*
%TO.N,GND*%
X56800002Y-55850003D03*
X57575002Y-42825003D03*
X39375002Y-44300003D03*
X61400002Y-46425003D03*
X44975002Y-59700003D03*
X51250002Y-58850003D03*
X40350002Y-52475003D03*
X46625002Y-40175003D03*
X56700002Y-61125003D03*
X48475002Y-61425003D03*
X57475002Y-60625003D03*
%TO.N,+3.3V*%
X52250002Y-42325003D03*
X42700002Y-57425003D03*
X56025002Y-41800003D03*
X41200002Y-38275003D03*
X40075002Y-54375003D03*
%TO.N,/A-*%
X44925002Y-62925003D03*
%TO.N,/A+*%
X45800002Y-62150003D03*
X42575002Y-63125003D03*
%TD*%
D21*
%TO.N,+3.3V*%
X40075002Y-54375003D02*
X40025002Y-54425003D01*
X52775002Y-41800003D02*
X52250002Y-42325003D01*
X40075002Y-54800003D02*
X40075002Y-54375003D01*
X42700002Y-57425003D02*
X40075002Y-54800003D01*
X41200002Y-38275003D02*
X48200002Y-38275003D01*
X48200002Y-38275003D02*
X52250002Y-42325003D01*
X56025002Y-41800003D02*
X52775002Y-41800003D01*
%TO.N,/A-*%
X38298003Y-44299900D02*
X39534822Y-43063081D01*
X44925002Y-61475003D02*
X38298003Y-54848004D01*
X39534822Y-43063081D02*
X39534822Y-39484823D01*
X57975002Y-62925003D02*
X57975002Y-62905363D01*
X57975002Y-62905363D02*
X60465182Y-60415183D01*
X44925002Y-62925003D02*
X57975002Y-62925003D01*
X44925002Y-62925003D02*
X44925002Y-61475003D01*
X38298003Y-54848004D02*
X38298003Y-44299900D01*
%TO.N,/A+*%
X45800002Y-62150003D02*
X48752820Y-62150003D01*
X42575002Y-62132225D02*
X42244642Y-62132225D01*
X61977002Y-40996643D02*
X60465182Y-39484823D01*
X48802820Y-62150003D02*
X61977002Y-48975821D01*
X42575002Y-63125003D02*
X42575002Y-62132225D01*
X61977002Y-48975821D02*
X61977002Y-40996643D01*
X42244642Y-62132225D02*
X39395494Y-59283077D01*
X39395494Y-59283077D02*
X39252714Y-59283077D01*
X39252714Y-59283077D02*
X38827715Y-59708076D01*
%TD*%
%TA.AperFunction,Conductor*%
%TO.N,GND*%
G36*
X58650502Y-32482624D02*
G01*
X58957874Y-32516901D01*
X58972270Y-32519372D01*
X59273463Y-32589553D01*
X59287469Y-32593700D01*
X59396949Y-32633266D01*
X59578328Y-32698816D01*
X59591743Y-32704579D01*
X59868219Y-32843169D01*
X59880869Y-32850472D01*
X60139123Y-33020608D01*
X60150820Y-33029343D01*
X60387289Y-33228680D01*
X60397875Y-33238728D01*
X60609255Y-33464483D01*
X60618593Y-33475715D01*
X60741334Y-33642421D01*
X60801955Y-33724755D01*
X60809908Y-33737008D01*
X60962711Y-34005883D01*
X60969168Y-34018985D01*
X61089293Y-34303965D01*
X61094164Y-34317737D01*
X61179942Y-34614864D01*
X61183160Y-34629112D01*
X61233403Y-34934268D01*
X61234923Y-34948796D01*
X61248932Y-35257741D01*
X61248733Y-35272347D01*
X61226314Y-35580794D01*
X61224399Y-35595275D01*
X61165246Y-35902145D01*
X61163652Y-35909276D01*
X61150415Y-35961256D01*
X61150411Y-35961255D01*
X61150397Y-35961330D01*
X61131647Y-36034787D01*
X61131644Y-36034805D01*
X61096147Y-36297987D01*
X61096146Y-36297994D01*
X61091166Y-36563529D01*
X61116770Y-36827866D01*
X61172621Y-37087512D01*
X61172622Y-37087514D01*
X61257976Y-37339007D01*
X61371700Y-37579008D01*
X61512282Y-37804330D01*
X61677857Y-38011981D01*
X61771006Y-38104465D01*
X61773099Y-38106596D01*
X62284985Y-38640262D01*
X62322376Y-38679243D01*
X62326365Y-38683605D01*
X62803117Y-39230719D01*
X62846689Y-39280721D01*
X62850466Y-39285270D01*
X63168018Y-39686917D01*
X63341673Y-39906560D01*
X63345230Y-39911288D01*
X63425914Y-40024015D01*
X63806182Y-40555307D01*
X63809515Y-40560206D01*
X64239196Y-41225539D01*
X64242290Y-41230592D01*
X64639674Y-41915644D01*
X64642524Y-41920838D01*
X65006752Y-42624132D01*
X65009350Y-42629457D01*
X65339557Y-43349323D01*
X65341898Y-43354766D01*
X65637345Y-44089590D01*
X65639423Y-44095138D01*
X65899431Y-44843234D01*
X65901242Y-44848876D01*
X66014366Y-45232557D01*
X66100153Y-45523524D01*
X66125220Y-45608542D01*
X66126759Y-45614263D01*
X66314188Y-46383738D01*
X66315453Y-46389526D01*
X66465921Y-47167121D01*
X66466907Y-47172964D01*
X66580055Y-47956824D01*
X66580761Y-47962706D01*
X66656338Y-48751092D01*
X66656762Y-48757002D01*
X66694594Y-49548074D01*
X66694736Y-49553997D01*
X66694736Y-50346010D01*
X66694594Y-50351933D01*
X66656762Y-51143005D01*
X66656338Y-51148915D01*
X66580761Y-51937300D01*
X66580055Y-51943182D01*
X66466907Y-52727043D01*
X66465921Y-52732886D01*
X66315453Y-53510481D01*
X66314188Y-53516269D01*
X66126759Y-54285743D01*
X66125220Y-54291464D01*
X65901242Y-55051130D01*
X65899431Y-55056772D01*
X65639423Y-55804868D01*
X65637345Y-55810416D01*
X65341898Y-56545241D01*
X65339557Y-56550684D01*
X65009351Y-57270549D01*
X65006753Y-57275874D01*
X64642524Y-57979168D01*
X64639674Y-57984362D01*
X64242290Y-58669414D01*
X64239196Y-58674467D01*
X63809524Y-59339785D01*
X63806192Y-59344684D01*
X63345226Y-59988725D01*
X63341663Y-59993459D01*
X62850465Y-60614737D01*
X62846680Y-60619295D01*
X62326383Y-61216381D01*
X62322385Y-61220754D01*
X61773127Y-61793382D01*
X61771051Y-61795496D01*
X61732299Y-61834011D01*
X61732297Y-61834009D01*
X61732240Y-61834072D01*
X61677883Y-61888043D01*
X61540512Y-62060322D01*
X61530471Y-62072916D01*
X61512308Y-62095694D01*
X61371726Y-62321006D01*
X61371723Y-62321013D01*
X61257997Y-62561009D01*
X61212892Y-62693899D01*
X61172637Y-62812499D01*
X61116781Y-63072127D01*
X61116779Y-63072136D01*
X61091164Y-63336473D01*
X61096134Y-63602009D01*
X61110700Y-63710046D01*
X61128972Y-63845573D01*
X61131619Y-63865202D01*
X61163544Y-63990310D01*
X61165152Y-63997495D01*
X61224391Y-64304754D01*
X61226306Y-64319236D01*
X61248734Y-64627675D01*
X61248934Y-64642282D01*
X61234933Y-64951239D01*
X61233413Y-64965767D01*
X61183179Y-65270918D01*
X61179961Y-65285167D01*
X61094185Y-65582308D01*
X61089315Y-65596079D01*
X60969196Y-65881061D01*
X60962739Y-65894165D01*
X60809933Y-66163053D01*
X60801980Y-66175305D01*
X60618622Y-66424348D01*
X60609283Y-66435581D01*
X60397908Y-66661335D01*
X60387313Y-66671392D01*
X60150858Y-66870719D01*
X60139155Y-66879460D01*
X59880891Y-67049604D01*
X59868240Y-67056908D01*
X59591763Y-67195497D01*
X59578342Y-67201262D01*
X59287486Y-67306378D01*
X59273478Y-67310525D01*
X58972283Y-67380703D01*
X58957887Y-67383174D01*
X58650526Y-67417448D01*
X58635937Y-67418209D01*
X58326676Y-67416097D01*
X58312101Y-67415137D01*
X58005242Y-67376674D01*
X57990879Y-67374007D01*
X57690660Y-67299720D01*
X57676712Y-67295382D01*
X57420397Y-67198776D01*
X57387317Y-67186307D01*
X57373986Y-67180364D01*
X57162776Y-67070859D01*
X57099421Y-67038011D01*
X57086871Y-67030535D01*
X56830955Y-66856883D01*
X56819372Y-66847983D01*
X56585742Y-66645517D01*
X56583464Y-66643544D01*
X56578045Y-66638558D01*
X56542951Y-66604292D01*
X56485137Y-66547841D01*
X56485136Y-66547840D01*
X56485136Y-66547839D01*
X56274943Y-66385505D01*
X56047469Y-66248434D01*
X55805728Y-66138442D01*
X55805718Y-66138438D01*
X55552945Y-66056996D01*
X55544450Y-66055306D01*
X55292461Y-66005175D01*
X55027749Y-65983668D01*
X55027745Y-65983668D01*
X55027744Y-65983668D01*
X55027734Y-65983667D01*
X54762323Y-65992759D01*
X54499703Y-66032331D01*
X54373029Y-66066761D01*
X54370098Y-66067519D01*
X53599568Y-66256874D01*
X53593782Y-66258150D01*
X52816540Y-66410198D01*
X52810700Y-66411197D01*
X52027045Y-66525950D01*
X52021164Y-66526668D01*
X51232935Y-66603856D01*
X51227026Y-66604292D01*
X50436032Y-66643739D01*
X50430109Y-66643893D01*
X49638098Y-66645510D01*
X49632175Y-66645380D01*
X48841028Y-66609166D01*
X48835117Y-66608754D01*
X48046582Y-66534787D01*
X48040698Y-66534093D01*
X47256604Y-66422547D01*
X47250760Y-66421573D01*
X46472867Y-66272695D01*
X46467076Y-66271442D01*
X45697220Y-66085585D01*
X45691496Y-66084058D01*
X44931354Y-65861627D01*
X44925709Y-65859827D01*
X44177097Y-65601352D01*
X44171544Y-65599285D01*
X43436128Y-65305344D01*
X43430680Y-65303015D01*
X42710122Y-64974271D01*
X42704792Y-64971683D01*
X42000773Y-64608902D01*
X41995573Y-64606063D01*
X41309694Y-64210070D01*
X41304635Y-64206986D01*
X40638450Y-63778681D01*
X40633544Y-63775359D01*
X39988563Y-63315708D01*
X39983822Y-63312155D01*
X39361552Y-62822236D01*
X39356986Y-62818461D01*
X38758815Y-62299365D01*
X38754451Y-62295392D01*
X38181740Y-61748296D01*
X38177578Y-61744125D01*
X38147420Y-61712426D01*
X37756111Y-61301116D01*
X37631671Y-61170315D01*
X37627691Y-61165926D01*
X37319682Y-60809530D01*
X37109817Y-60566696D01*
X37106061Y-60562134D01*
X37093509Y-60546124D01*
X36617396Y-59938841D01*
X36613888Y-59934141D01*
X36453479Y-59708079D01*
X38097624Y-59708079D01*
X38115927Y-59870531D01*
X38169925Y-60024850D01*
X38208587Y-60086380D01*
X38256907Y-60163280D01*
X38372511Y-60278884D01*
X38441725Y-60322374D01*
X38510941Y-60365866D01*
X38552996Y-60380581D01*
X38609773Y-60421302D01*
X38627764Y-60461169D01*
X38629130Y-60460641D01*
X38673866Y-60576116D01*
X38689564Y-60595935D01*
X38689572Y-60595945D01*
X39354055Y-61260427D01*
X39354059Y-61260430D01*
X39354061Y-61260432D01*
X39373889Y-61276139D01*
X39478649Y-61316724D01*
X39478651Y-61316724D01*
X39590995Y-61316724D01*
X39695755Y-61276139D01*
X39715583Y-61260434D01*
X40137985Y-60838029D01*
X40199305Y-60804546D01*
X40268997Y-60809530D01*
X40313344Y-60838030D01*
X41968028Y-62492715D01*
X42062502Y-62547259D01*
X42110717Y-62597823D01*
X42124502Y-62654645D01*
X42124502Y-62683583D01*
X42104817Y-62750622D01*
X42098878Y-62759069D01*
X42050466Y-62822160D01*
X41989958Y-62968240D01*
X41989957Y-62968242D01*
X41969320Y-63125001D01*
X41969320Y-63125004D01*
X41989957Y-63281763D01*
X41989958Y-63281765D01*
X42038324Y-63398532D01*
X42050466Y-63427844D01*
X42146720Y-63553285D01*
X42272161Y-63649539D01*
X42418240Y-63710047D01*
X42496621Y-63720366D01*
X42575001Y-63730685D01*
X42575002Y-63730685D01*
X42575003Y-63730685D01*
X42627256Y-63723805D01*
X42731764Y-63710047D01*
X42877843Y-63649539D01*
X43003284Y-63553285D01*
X43099538Y-63427844D01*
X43160046Y-63281765D01*
X43180684Y-63125003D01*
X43174991Y-63081763D01*
X43160046Y-62968242D01*
X43160046Y-62968241D01*
X43099538Y-62822162D01*
X43099537Y-62822161D01*
X43099537Y-62822160D01*
X43051126Y-62759069D01*
X43025932Y-62693899D01*
X43025502Y-62683583D01*
X43025502Y-62072918D01*
X43025502Y-62072916D01*
X42994801Y-61958339D01*
X42935491Y-61855612D01*
X42851615Y-61771736D01*
X42748888Y-61712426D01*
X42634311Y-61681725D01*
X42634308Y-61681725D01*
X42482608Y-61681725D01*
X42415569Y-61662040D01*
X42394927Y-61645406D01*
X39672110Y-58922590D01*
X39672108Y-58922588D01*
X39612796Y-58888344D01*
X39569382Y-58863278D01*
X39557274Y-58860034D01*
X39545167Y-58856790D01*
X39545164Y-58856789D01*
X39506972Y-58846555D01*
X39454803Y-58832577D01*
X39193405Y-58832577D01*
X39124658Y-58850997D01*
X39078826Y-58863278D01*
X39078821Y-58863281D01*
X39035409Y-58888344D01*
X39035410Y-58888345D01*
X38976096Y-58922589D01*
X38953507Y-58945178D01*
X38892183Y-58978661D01*
X38851949Y-58980715D01*
X38832475Y-58978521D01*
X38827715Y-58977985D01*
X38827714Y-58977985D01*
X38827711Y-58977985D01*
X38665259Y-58996288D01*
X38510940Y-59050286D01*
X38372510Y-59137268D01*
X38256907Y-59252871D01*
X38169925Y-59391301D01*
X38115927Y-59545620D01*
X38097624Y-59708072D01*
X38097624Y-59708079D01*
X36453479Y-59708079D01*
X36155533Y-59288188D01*
X36152240Y-59283305D01*
X36003098Y-59050286D01*
X35725277Y-58616219D01*
X35722212Y-58611167D01*
X35327608Y-57924456D01*
X35324780Y-57919250D01*
X34963442Y-57214500D01*
X34960866Y-57209165D01*
X34633606Y-56487963D01*
X34631287Y-56482511D01*
X34552156Y-56283353D01*
X34338835Y-55746463D01*
X34336797Y-55740953D01*
X34079823Y-54991731D01*
X34078050Y-54986126D01*
X34055162Y-54907312D01*
X37847503Y-54907312D01*
X37867162Y-54980684D01*
X37867163Y-54980684D01*
X37867163Y-54980685D01*
X37878204Y-55021891D01*
X37937514Y-55124618D01*
X37937516Y-55124620D01*
X44438183Y-61625287D01*
X44471668Y-61686610D01*
X44474502Y-61712968D01*
X44474502Y-62483583D01*
X44454817Y-62550622D01*
X44448878Y-62559069D01*
X44400466Y-62622160D01*
X44339958Y-62768240D01*
X44339957Y-62768242D01*
X44319320Y-62925001D01*
X44319320Y-62925004D01*
X44339957Y-63081763D01*
X44339958Y-63081765D01*
X44384502Y-63189305D01*
X44400466Y-63227844D01*
X44496720Y-63353285D01*
X44622161Y-63449539D01*
X44768240Y-63510047D01*
X44822193Y-63517150D01*
X44925001Y-63530685D01*
X44925002Y-63530685D01*
X44925003Y-63530685D01*
X44977256Y-63523805D01*
X45081764Y-63510047D01*
X45227843Y-63449539D01*
X45290935Y-63401126D01*
X45356104Y-63375933D01*
X45366421Y-63375503D01*
X57604409Y-63375503D01*
X57671448Y-63395188D01*
X57717203Y-63447992D01*
X57727147Y-63517150D01*
X57698122Y-63580706D01*
X57675533Y-63601078D01*
X57628596Y-63633943D01*
X57461507Y-63801032D01*
X57325967Y-63994604D01*
X57325966Y-63994606D01*
X57226100Y-64208770D01*
X57226096Y-64208779D01*
X57164940Y-64437021D01*
X57164938Y-64437031D01*
X57144343Y-64672434D01*
X57144343Y-64672435D01*
X57164938Y-64907838D01*
X57164940Y-64907848D01*
X57226096Y-65136090D01*
X57226098Y-65136094D01*
X57226099Y-65136098D01*
X57227798Y-65139741D01*
X57325967Y-65350265D01*
X57325969Y-65350269D01*
X57432184Y-65501958D01*
X57461507Y-65543836D01*
X57628601Y-65710930D01*
X57725386Y-65778700D01*
X57822167Y-65846467D01*
X57822169Y-65846468D01*
X57822172Y-65846470D01*
X58036339Y-65946338D01*
X58264594Y-66007498D01*
X58452920Y-66023974D01*
X58500001Y-66028094D01*
X58500002Y-66028094D01*
X58500003Y-66028094D01*
X58539236Y-66024661D01*
X58735410Y-66007498D01*
X58963665Y-65946338D01*
X59177832Y-65846470D01*
X59371403Y-65710930D01*
X59538497Y-65543836D01*
X59674037Y-65350265D01*
X59773905Y-65136098D01*
X59835065Y-64907843D01*
X59855661Y-64672435D01*
X59835065Y-64437027D01*
X59773905Y-64208772D01*
X59674037Y-63994606D01*
X59601979Y-63891695D01*
X59538496Y-63801032D01*
X59371404Y-63633941D01*
X59371397Y-63633936D01*
X59364336Y-63628992D01*
X59256216Y-63553285D01*
X59177836Y-63498402D01*
X59177832Y-63498400D01*
X58963665Y-63398532D01*
X58963661Y-63398531D01*
X58963657Y-63398529D01*
X58735415Y-63337373D01*
X58735405Y-63337371D01*
X58494608Y-63316304D01*
X58494704Y-63315205D01*
X58433014Y-63297091D01*
X58387259Y-63244287D01*
X58377315Y-63175129D01*
X58406340Y-63111573D01*
X58412372Y-63105095D01*
X59296736Y-62220731D01*
X60201765Y-61315701D01*
X60263086Y-61282218D01*
X60332778Y-61287202D01*
X60334235Y-61287756D01*
X60409009Y-61316724D01*
X60409011Y-61316724D01*
X60521355Y-61316724D01*
X60626115Y-61276139D01*
X60645943Y-61260434D01*
X61248354Y-60658021D01*
X61309670Y-60624540D01*
X61310249Y-60624416D01*
X61459701Y-60592649D01*
X61628262Y-60517601D01*
X61172289Y-60061629D01*
X61030676Y-59920016D01*
X61122561Y-59958076D01*
X61222017Y-59958076D01*
X61313903Y-59920016D01*
X61384229Y-59849690D01*
X61422289Y-59757804D01*
X61422289Y-59708077D01*
X61525842Y-59708077D01*
X61978844Y-60161079D01*
X62021972Y-60086380D01*
X62021975Y-60086374D01*
X62082057Y-59901458D01*
X62082058Y-59901456D01*
X62102383Y-59708076D01*
X62082058Y-59514695D01*
X62082057Y-59514693D01*
X62021975Y-59329777D01*
X62021972Y-59329771D01*
X61978844Y-59255072D01*
X61525842Y-59708075D01*
X61525842Y-59708077D01*
X61422289Y-59708077D01*
X61422289Y-59658348D01*
X61384229Y-59566462D01*
X61313903Y-59496136D01*
X61222017Y-59458076D01*
X61122561Y-59458076D01*
X61030675Y-59496136D01*
X60960349Y-59566462D01*
X60922289Y-59658348D01*
X60922289Y-59757804D01*
X60960348Y-59849688D01*
X60365732Y-59255072D01*
X60322604Y-59329773D01*
X60262520Y-59514693D01*
X60262518Y-59514704D01*
X60258048Y-59557225D01*
X60231463Y-59621839D01*
X60222409Y-59631942D01*
X59619937Y-60234416D01*
X59604226Y-60254249D01*
X59604225Y-60254252D01*
X59589306Y-60292760D01*
X59563641Y-60359010D01*
X59563641Y-60471356D01*
X59581557Y-60517601D01*
X59592607Y-60546124D01*
X59598469Y-60615747D01*
X59565759Y-60677487D01*
X59564661Y-60678599D01*
X57805078Y-62438184D01*
X57743755Y-62471669D01*
X57717397Y-62474503D01*
X49414785Y-62474503D01*
X49347746Y-62454818D01*
X49301991Y-62402014D01*
X49292047Y-62332856D01*
X49321072Y-62269300D01*
X49327104Y-62262822D01*
X52691377Y-58898549D01*
X60716314Y-58898549D01*
X61172289Y-59354523D01*
X61172290Y-59354523D01*
X61628262Y-58898549D01*
X61459702Y-58823502D01*
X61269510Y-58783076D01*
X61075068Y-58783076D01*
X60884875Y-58823502D01*
X60884874Y-58823502D01*
X60716314Y-58898549D01*
X52691377Y-58898549D01*
X55685191Y-55904735D01*
X57266003Y-54323923D01*
X58529502Y-54323923D01*
X58558343Y-54468910D01*
X58558346Y-54468920D01*
X58614915Y-54605491D01*
X58614922Y-54605504D01*
X58697051Y-54728418D01*
X58697054Y-54728422D01*
X58801583Y-54832951D01*
X58801587Y-54832954D01*
X58924501Y-54915083D01*
X58924514Y-54915090D01*
X59061085Y-54971659D01*
X59061090Y-54971661D01*
X59061094Y-54971661D01*
X59061095Y-54971662D01*
X59206082Y-55000503D01*
X59206085Y-55000503D01*
X60453923Y-55000503D01*
X60587710Y-54973890D01*
X60598916Y-54971661D01*
X60735498Y-54915087D01*
X60858419Y-54832954D01*
X60962954Y-54728419D01*
X61045087Y-54605498D01*
X61101661Y-54468916D01*
X61130503Y-54323923D01*
X62849502Y-54323923D01*
X62878343Y-54468910D01*
X62878346Y-54468920D01*
X62934915Y-54605491D01*
X62934922Y-54605504D01*
X63017051Y-54728418D01*
X63017054Y-54728422D01*
X63121583Y-54832951D01*
X63121587Y-54832954D01*
X63244501Y-54915083D01*
X63244514Y-54915090D01*
X63381085Y-54971659D01*
X63381090Y-54971661D01*
X63381094Y-54971661D01*
X63381095Y-54971662D01*
X63526082Y-55000503D01*
X63526085Y-55000503D01*
X64473923Y-55000503D01*
X64607710Y-54973890D01*
X64618916Y-54971661D01*
X64755498Y-54915087D01*
X64878419Y-54832954D01*
X64982954Y-54728419D01*
X65065087Y-54605498D01*
X65121661Y-54468916D01*
X65150503Y-54323921D01*
X65150503Y-54176085D01*
X65150503Y-54176082D01*
X65121662Y-54031095D01*
X65121661Y-54031094D01*
X65121661Y-54031090D01*
X65121659Y-54031085D01*
X65065090Y-53894514D01*
X65065083Y-53894501D01*
X64982954Y-53771587D01*
X64982951Y-53771583D01*
X64878422Y-53667054D01*
X64878418Y-53667051D01*
X64755504Y-53584922D01*
X64755491Y-53584915D01*
X64618920Y-53528346D01*
X64618910Y-53528343D01*
X64473923Y-53499503D01*
X64473921Y-53499503D01*
X63526085Y-53499503D01*
X63526083Y-53499503D01*
X63381095Y-53528343D01*
X63381085Y-53528346D01*
X63244514Y-53584915D01*
X63244501Y-53584922D01*
X63121587Y-53667051D01*
X63121583Y-53667054D01*
X63017054Y-53771583D01*
X63017051Y-53771587D01*
X62934922Y-53894501D01*
X62934915Y-53894514D01*
X62878346Y-54031085D01*
X62878343Y-54031095D01*
X62849503Y-54176082D01*
X62849503Y-54176085D01*
X62849503Y-54323921D01*
X62849503Y-54323923D01*
X62849502Y-54323923D01*
X61130503Y-54323923D01*
X61130503Y-54323921D01*
X61130503Y-54176085D01*
X61130503Y-54176082D01*
X61101662Y-54031095D01*
X61101661Y-54031094D01*
X61101661Y-54031090D01*
X61101659Y-54031085D01*
X61045090Y-53894514D01*
X61045083Y-53894501D01*
X60962954Y-53771587D01*
X60962951Y-53771583D01*
X60858422Y-53667054D01*
X60858418Y-53667051D01*
X60735504Y-53584922D01*
X60735491Y-53584915D01*
X60598920Y-53528346D01*
X60598911Y-53528343D01*
X60539146Y-53516455D01*
X60477236Y-53484069D01*
X60442662Y-53423353D01*
X60446403Y-53353584D01*
X60487270Y-53296912D01*
X60506357Y-53285818D01*
X60506150Y-53285459D01*
X60513189Y-53281395D01*
X60627317Y-53215503D01*
X60720503Y-53122317D01*
X60786395Y-53008189D01*
X60820503Y-52880895D01*
X60820503Y-52749111D01*
X60786395Y-52621817D01*
X60720503Y-52507689D01*
X60627317Y-52414503D01*
X60567556Y-52380000D01*
X60513190Y-52348611D01*
X60449542Y-52331557D01*
X60385895Y-52314503D01*
X60254111Y-52314503D01*
X60126815Y-52348611D01*
X60012689Y-52414503D01*
X60012686Y-52414505D01*
X59919505Y-52507686D01*
X59919503Y-52507689D01*
X59853611Y-52621815D01*
X59819503Y-52749111D01*
X59819503Y-52880894D01*
X59853611Y-53008190D01*
X59858307Y-53016323D01*
X59919503Y-53122317D01*
X60012689Y-53215503D01*
X60069999Y-53248591D01*
X60103817Y-53268116D01*
X60152032Y-53318684D01*
X60165254Y-53387291D01*
X60139286Y-53452155D01*
X60082372Y-53492683D01*
X60041816Y-53499503D01*
X59206083Y-53499503D01*
X59061095Y-53528343D01*
X59061085Y-53528346D01*
X58924514Y-53584915D01*
X58924501Y-53584922D01*
X58801587Y-53667051D01*
X58801583Y-53667054D01*
X58697054Y-53771583D01*
X58697051Y-53771587D01*
X58614922Y-53894501D01*
X58614915Y-53894514D01*
X58558346Y-54031085D01*
X58558343Y-54031095D01*
X58529503Y-54176082D01*
X58529503Y-54176085D01*
X58529503Y-54323921D01*
X58529503Y-54323923D01*
X58529502Y-54323923D01*
X57266003Y-54323923D01*
X62337492Y-49252435D01*
X62396801Y-49149708D01*
X62415000Y-49081787D01*
X62427502Y-49035130D01*
X62427502Y-45673923D01*
X62849502Y-45673923D01*
X62878343Y-45818910D01*
X62878346Y-45818920D01*
X62934915Y-45955491D01*
X62934922Y-45955504D01*
X63017051Y-46078418D01*
X63017054Y-46078422D01*
X63121583Y-46182951D01*
X63121587Y-46182954D01*
X63244501Y-46265083D01*
X63244514Y-46265090D01*
X63298195Y-46287325D01*
X63381090Y-46321661D01*
X63381094Y-46321661D01*
X63381095Y-46321662D01*
X63526082Y-46350503D01*
X63526085Y-46350503D01*
X64473923Y-46350503D01*
X64571465Y-46331099D01*
X64618916Y-46321661D01*
X64755498Y-46265087D01*
X64878419Y-46182954D01*
X64982954Y-46078419D01*
X65065087Y-45955498D01*
X65121661Y-45818916D01*
X65150503Y-45673921D01*
X65150503Y-45526085D01*
X65150503Y-45526084D01*
X65150503Y-45526082D01*
X65121662Y-45381095D01*
X65121661Y-45381094D01*
X65121661Y-45381090D01*
X65085048Y-45292698D01*
X65065090Y-45244514D01*
X65065083Y-45244501D01*
X64982954Y-45121587D01*
X64982951Y-45121583D01*
X64878422Y-45017054D01*
X64878418Y-45017051D01*
X64755504Y-44934922D01*
X64755491Y-44934915D01*
X64618920Y-44878346D01*
X64618910Y-44878343D01*
X64473923Y-44849503D01*
X64473921Y-44849503D01*
X63526085Y-44849503D01*
X63526083Y-44849503D01*
X63381095Y-44878343D01*
X63381085Y-44878346D01*
X63244514Y-44934915D01*
X63244501Y-44934922D01*
X63121587Y-45017051D01*
X63121583Y-45017054D01*
X63017054Y-45121583D01*
X63017051Y-45121587D01*
X62934922Y-45244501D01*
X62934915Y-45244514D01*
X62878346Y-45381085D01*
X62878343Y-45381095D01*
X62849503Y-45526082D01*
X62849503Y-45526084D01*
X62849503Y-45526085D01*
X62849503Y-45673921D01*
X62849503Y-45673923D01*
X62849502Y-45673923D01*
X62427502Y-45673923D01*
X62427502Y-40937334D01*
X62396801Y-40822757D01*
X62350424Y-40742430D01*
X62337491Y-40720029D01*
X61365702Y-39748240D01*
X61332217Y-39686917D01*
X61337201Y-39617225D01*
X61337757Y-39615764D01*
X61366723Y-39540995D01*
X61366723Y-39428650D01*
X61329783Y-39333299D01*
X61326138Y-39323890D01*
X61310433Y-39304062D01*
X60707953Y-38701584D01*
X60674469Y-38640262D01*
X60672314Y-38626863D01*
X60667845Y-38584342D01*
X60667845Y-38584339D01*
X60607761Y-38399417D01*
X60607758Y-38399411D01*
X60564630Y-38324712D01*
X59970016Y-38919327D01*
X60008075Y-38827444D01*
X60008075Y-38727988D01*
X59970015Y-38636102D01*
X59899689Y-38565776D01*
X59807803Y-38527716D01*
X59708347Y-38527716D01*
X59616461Y-38565776D01*
X59546135Y-38636102D01*
X59508075Y-38727988D01*
X59508075Y-38827444D01*
X59546135Y-38919330D01*
X59616461Y-38989656D01*
X59708347Y-39027716D01*
X59807803Y-39027716D01*
X59899686Y-38989656D01*
X59758075Y-39131269D01*
X59302100Y-39587241D01*
X59470662Y-39662289D01*
X59620110Y-39694055D01*
X59681592Y-39727247D01*
X59682011Y-39727664D01*
X60284415Y-40330067D01*
X60284419Y-40330070D01*
X60284421Y-40330072D01*
X60304249Y-40345779D01*
X60409009Y-40386364D01*
X60409011Y-40386364D01*
X60521355Y-40386364D01*
X60596123Y-40357397D01*
X60665746Y-40351535D01*
X60727487Y-40384244D01*
X60728599Y-40385343D01*
X61490183Y-41146927D01*
X61523668Y-41208250D01*
X61526502Y-41234608D01*
X61526502Y-48737855D01*
X61506817Y-48804894D01*
X61490183Y-48825536D01*
X48652536Y-61663184D01*
X48591213Y-61696669D01*
X48564855Y-61699503D01*
X46241421Y-61699503D01*
X46174382Y-61679818D01*
X46165935Y-61673879D01*
X46102844Y-61625467D01*
X45956764Y-61564959D01*
X45956762Y-61564958D01*
X45800003Y-61544321D01*
X45800001Y-61544321D01*
X45643241Y-61564958D01*
X45643236Y-61564960D01*
X45546954Y-61604841D01*
X45477485Y-61612310D01*
X45415006Y-61581034D01*
X45379354Y-61520945D01*
X45375502Y-61490280D01*
X45375502Y-61415696D01*
X45375502Y-61415694D01*
X45344801Y-61301117D01*
X45344801Y-61301116D01*
X45285491Y-61198389D01*
X42185445Y-58098343D01*
X42151960Y-58037020D01*
X42156944Y-57967328D01*
X42159806Y-57963503D01*
X42106968Y-57975659D01*
X42041218Y-57952022D01*
X42026661Y-57939559D01*
X38784822Y-54697720D01*
X38751337Y-54636397D01*
X38748503Y-54610039D01*
X38748503Y-54375004D01*
X39469320Y-54375004D01*
X39489957Y-54531763D01*
X39489959Y-54531768D01*
X39550463Y-54677839D01*
X39550466Y-54677844D01*
X39598878Y-54740936D01*
X39624072Y-54806105D01*
X39624502Y-54816422D01*
X39624502Y-54859312D01*
X39635281Y-54899539D01*
X39655203Y-54973890D01*
X39714513Y-55076617D01*
X39714515Y-55076619D01*
X42069319Y-57431424D01*
X42102804Y-57492747D01*
X42104577Y-57502919D01*
X42114957Y-57581764D01*
X42175465Y-57727842D01*
X42175466Y-57727844D01*
X42212718Y-57776392D01*
X42237912Y-57841561D01*
X42225641Y-57901389D01*
X42264280Y-57886978D01*
X42332553Y-57901830D01*
X42348605Y-57912280D01*
X42397161Y-57949539D01*
X42543240Y-58010047D01*
X42621621Y-58020366D01*
X42700001Y-58030685D01*
X42700002Y-58030685D01*
X42700003Y-58030685D01*
X42752256Y-58023805D01*
X42856764Y-58010047D01*
X43002843Y-57949539D01*
X43128284Y-57853285D01*
X43224538Y-57727844D01*
X43285046Y-57581765D01*
X43305684Y-57425003D01*
X43285046Y-57268241D01*
X43224538Y-57122162D01*
X43128284Y-56996721D01*
X43002843Y-56900467D01*
X43002841Y-56900466D01*
X42856763Y-56839958D01*
X42777918Y-56829578D01*
X42714021Y-56801311D01*
X42706423Y-56794320D01*
X40655315Y-54743213D01*
X40621830Y-54681890D01*
X40626814Y-54612198D01*
X40628422Y-54608110D01*
X40660046Y-54531765D01*
X40680490Y-54376474D01*
X40680684Y-54375004D01*
X40680684Y-54375001D01*
X40666925Y-54270495D01*
X40660046Y-54218241D01*
X40599538Y-54072162D01*
X40503284Y-53946721D01*
X40377843Y-53850467D01*
X40231764Y-53789959D01*
X40231762Y-53789958D01*
X40075003Y-53769321D01*
X40075001Y-53769321D01*
X39918241Y-53789958D01*
X39918239Y-53789959D01*
X39772162Y-53850466D01*
X39646720Y-53946721D01*
X39550465Y-54072163D01*
X39489958Y-54218240D01*
X39489957Y-54218242D01*
X39469320Y-54375001D01*
X39469320Y-54375004D01*
X38748503Y-54375004D01*
X38748503Y-49950003D01*
X43194508Y-49950003D01*
X43214476Y-50470943D01*
X43214477Y-50470961D01*
X43274265Y-50988850D01*
X43274268Y-50988870D01*
X43373523Y-51500658D01*
X43511665Y-52003349D01*
X43511669Y-52003363D01*
X43687887Y-52494007D01*
X43687896Y-52494029D01*
X43901139Y-52969707D01*
X43901148Y-52969726D01*
X43901150Y-52969731D01*
X43901153Y-52969736D01*
X44150206Y-53427738D01*
X44269978Y-53612687D01*
X44433585Y-53865325D01*
X44433598Y-53865343D01*
X44749633Y-54279942D01*
X44749640Y-54279951D01*
X45096488Y-54669144D01*
X45096497Y-54669154D01*
X45472132Y-55030666D01*
X45874339Y-55362364D01*
X46300756Y-55662299D01*
X46748883Y-55928713D01*
X46748886Y-55928714D01*
X46748892Y-55928718D01*
X47216066Y-56160031D01*
X47216097Y-56160045D01*
X47473585Y-56263821D01*
X47699630Y-56354926D01*
X48196672Y-56512224D01*
X48196688Y-56512227D01*
X48196689Y-56512228D01*
X48704282Y-56631010D01*
X48704285Y-56631010D01*
X48704296Y-56631013D01*
X49219525Y-56710595D01*
X49739333Y-56750503D01*
X49739334Y-56750503D01*
X50260670Y-56750503D01*
X50260671Y-56750503D01*
X50780479Y-56710595D01*
X51295708Y-56631013D01*
X51803332Y-56512224D01*
X52300374Y-56354926D01*
X52783916Y-56160041D01*
X52783927Y-56160035D01*
X52783937Y-56160031D01*
X53251111Y-55928718D01*
X53251111Y-55928717D01*
X53251121Y-55928713D01*
X53699248Y-55662299D01*
X54125665Y-55362364D01*
X54527872Y-55030666D01*
X54903507Y-54669154D01*
X55250367Y-54279947D01*
X55566415Y-53865331D01*
X55849798Y-53427738D01*
X56098851Y-52969736D01*
X56206329Y-52729986D01*
X56312107Y-52494029D01*
X56312116Y-52494007D01*
X56312392Y-52493238D01*
X56488335Y-52003361D01*
X56626480Y-51500659D01*
X56725738Y-50988857D01*
X56785527Y-50470958D01*
X56805496Y-49950003D01*
X56785527Y-49429048D01*
X56725738Y-48911149D01*
X56626480Y-48399347D01*
X56488335Y-47896645D01*
X56362812Y-47547151D01*
X56312116Y-47405998D01*
X56312107Y-47405976D01*
X56098864Y-46930298D01*
X56098855Y-46930279D01*
X56098851Y-46930270D01*
X55849798Y-46472268D01*
X55566415Y-46034675D01*
X55291425Y-45673922D01*
X58529503Y-45673922D01*
X58558344Y-45818909D01*
X58558347Y-45818919D01*
X58614916Y-45955490D01*
X58614923Y-45955503D01*
X58697052Y-46078417D01*
X58697055Y-46078421D01*
X58801584Y-46182950D01*
X58801588Y-46182953D01*
X58924502Y-46265082D01*
X58924515Y-46265089D01*
X59061086Y-46321658D01*
X59061091Y-46321660D01*
X59061095Y-46321660D01*
X59061096Y-46321661D01*
X59206083Y-46350502D01*
X60041818Y-46350502D01*
X60108857Y-46370187D01*
X60154612Y-46422991D01*
X60164556Y-46492149D01*
X60135531Y-46555705D01*
X60103819Y-46581888D01*
X60076662Y-46597568D01*
X60012689Y-46634503D01*
X60012686Y-46634505D01*
X59919505Y-46727686D01*
X59919503Y-46727689D01*
X59853611Y-46841815D01*
X59819503Y-46969111D01*
X59819503Y-47100894D01*
X59853611Y-47228190D01*
X59868242Y-47253531D01*
X59919503Y-47342317D01*
X60012689Y-47435503D01*
X60126817Y-47501395D01*
X60254111Y-47535503D01*
X60254113Y-47535503D01*
X60385893Y-47535503D01*
X60385895Y-47535503D01*
X60513189Y-47501395D01*
X60627317Y-47435503D01*
X60720503Y-47342317D01*
X60786395Y-47228189D01*
X60820503Y-47100895D01*
X60820503Y-46969111D01*
X60786395Y-46841817D01*
X60720503Y-46727689D01*
X60627317Y-46634503D01*
X60513189Y-46568611D01*
X60513188Y-46568610D01*
X60506150Y-46564547D01*
X60507199Y-46562729D01*
X60461477Y-46525879D01*
X60439417Y-46459583D01*
X60456701Y-46391885D01*
X60507841Y-46344278D01*
X60539140Y-46333550D01*
X60598917Y-46321660D01*
X60704551Y-46277904D01*
X60735492Y-46265089D01*
X60735492Y-46265088D01*
X60735499Y-46265086D01*
X60858420Y-46182953D01*
X60962955Y-46078418D01*
X61045088Y-45955497D01*
X61101662Y-45818915D01*
X61129831Y-45677305D01*
X61130504Y-45673922D01*
X61130504Y-45526081D01*
X61101663Y-45381094D01*
X61101662Y-45381090D01*
X61101662Y-45381089D01*
X61079356Y-45327238D01*
X61045091Y-45244513D01*
X61045084Y-45244500D01*
X60962955Y-45121586D01*
X60962952Y-45121582D01*
X60858423Y-45017053D01*
X60858419Y-45017050D01*
X60735505Y-44934921D01*
X60735492Y-44934914D01*
X60598921Y-44878345D01*
X60598911Y-44878342D01*
X60453924Y-44849502D01*
X60453922Y-44849502D01*
X59206086Y-44849502D01*
X59206084Y-44849502D01*
X59061096Y-44878342D01*
X59061086Y-44878345D01*
X58924515Y-44934914D01*
X58924502Y-44934921D01*
X58801588Y-45017050D01*
X58801584Y-45017053D01*
X58697055Y-45121582D01*
X58697052Y-45121586D01*
X58614923Y-45244500D01*
X58614916Y-45244513D01*
X58558347Y-45381084D01*
X58558344Y-45381094D01*
X58529504Y-45526081D01*
X58529504Y-45526082D01*
X58529504Y-45526084D01*
X58529504Y-45673920D01*
X58529504Y-45673922D01*
X58529503Y-45673922D01*
X55291425Y-45673922D01*
X55250367Y-45620059D01*
X55242633Y-45611381D01*
X54903515Y-45230861D01*
X54903507Y-45230852D01*
X54527872Y-44869340D01*
X54125665Y-44537642D01*
X53699248Y-44237707D01*
X53566990Y-44159079D01*
X53251128Y-43971297D01*
X53251111Y-43971287D01*
X52783937Y-43739974D01*
X52783906Y-43739960D01*
X52300397Y-43545089D01*
X52300387Y-43545085D01*
X52300374Y-43545080D01*
X52300367Y-43545077D01*
X52300357Y-43545074D01*
X51803347Y-43387786D01*
X51803314Y-43387777D01*
X51295721Y-43268995D01*
X51278290Y-43266302D01*
X50780479Y-43189411D01*
X50780474Y-43189410D01*
X50780463Y-43189409D01*
X50260675Y-43149503D01*
X50260671Y-43149503D01*
X49739333Y-43149503D01*
X49739328Y-43149503D01*
X49219540Y-43189409D01*
X49219527Y-43189410D01*
X49219525Y-43189411D01*
X49219519Y-43189412D01*
X48704282Y-43268995D01*
X48196689Y-43387777D01*
X48196656Y-43387786D01*
X47699646Y-43545074D01*
X47699606Y-43545089D01*
X47216097Y-43739960D01*
X47216066Y-43739974D01*
X46748892Y-43971287D01*
X46748875Y-43971297D01*
X46300768Y-44237699D01*
X46300750Y-44237711D01*
X45874341Y-44537640D01*
X45496186Y-44849503D01*
X45472132Y-44869340D01*
X45212180Y-45119519D01*
X45096488Y-45230861D01*
X44749640Y-45620054D01*
X44749633Y-45620063D01*
X44433598Y-46034662D01*
X44433585Y-46034680D01*
X44150207Y-46472266D01*
X43901148Y-46930279D01*
X43901139Y-46930298D01*
X43687896Y-47405976D01*
X43687887Y-47405998D01*
X43511669Y-47896642D01*
X43511665Y-47896656D01*
X43373523Y-48399347D01*
X43274268Y-48911135D01*
X43274265Y-48911155D01*
X43214477Y-49429044D01*
X43214476Y-49429062D01*
X43194508Y-49950002D01*
X43194508Y-49950003D01*
X38748503Y-49950003D01*
X38748503Y-48929060D01*
X39924502Y-48929060D01*
X39952924Y-49035130D01*
X39965425Y-49081786D01*
X39965428Y-49081793D01*
X40044477Y-49218712D01*
X40044481Y-49218717D01*
X40044482Y-49218719D01*
X40156286Y-49330523D01*
X40156288Y-49330524D01*
X40156292Y-49330527D01*
X40293211Y-49409576D01*
X40293218Y-49409580D01*
X40445945Y-49450503D01*
X40445947Y-49450503D01*
X40604057Y-49450503D01*
X40604059Y-49450503D01*
X40756786Y-49409580D01*
X40893718Y-49330523D01*
X41005522Y-49218719D01*
X41084579Y-49081787D01*
X41125502Y-48929060D01*
X41125502Y-48770946D01*
X41084579Y-48618219D01*
X41084575Y-48618212D01*
X41005526Y-48481293D01*
X41005520Y-48481285D01*
X40893719Y-48369484D01*
X40893711Y-48369478D01*
X40756792Y-48290429D01*
X40756788Y-48290427D01*
X40756786Y-48290426D01*
X40604059Y-48249503D01*
X40445945Y-48249503D01*
X40293218Y-48290426D01*
X40293211Y-48290429D01*
X40156292Y-48369478D01*
X40156284Y-48369484D01*
X40044483Y-48481285D01*
X40044477Y-48481293D01*
X39965428Y-48618212D01*
X39965425Y-48618219D01*
X39924502Y-48770946D01*
X39924502Y-48929060D01*
X38748503Y-48929060D01*
X38748503Y-46877891D01*
X38750003Y-46872782D01*
X38750003Y-45974731D01*
X38788063Y-46066617D01*
X38858389Y-46136943D01*
X38950275Y-46175003D01*
X39049731Y-46175003D01*
X39141617Y-46136943D01*
X39211943Y-46066617D01*
X39250003Y-45974731D01*
X39250003Y-46817527D01*
X39287415Y-46809576D01*
X39465052Y-46730487D01*
X39620636Y-46617448D01*
X39686442Y-46593968D01*
X39734472Y-46600723D01*
X39837542Y-46636789D01*
X39837548Y-46636789D01*
X39837549Y-46636790D01*
X39999999Y-46655094D01*
X40000003Y-46655094D01*
X40000007Y-46655094D01*
X40162458Y-46636790D01*
X40162459Y-46636789D01*
X40162464Y-46636789D01*
X40316778Y-46582792D01*
X40434031Y-46509116D01*
X40501267Y-46490116D01*
X40565974Y-46509116D01*
X40587701Y-46522768D01*
X40681790Y-46581889D01*
X40683228Y-46582792D01*
X40837542Y-46636789D01*
X40837545Y-46636789D01*
X40837547Y-46636790D01*
X40999999Y-46655094D01*
X41000003Y-46655094D01*
X41000007Y-46655094D01*
X41162460Y-46636790D01*
X41162462Y-46636789D01*
X41162464Y-46636789D01*
X41295336Y-46590294D01*
X41365113Y-46586733D01*
X41391368Y-46598381D01*
X41391728Y-46597568D01*
X41402237Y-46602208D01*
X41402238Y-46602209D01*
X41505012Y-46647588D01*
X41530138Y-46650503D01*
X42469867Y-46650502D01*
X42469882Y-46650500D01*
X42469885Y-46650500D01*
X42494990Y-46647589D01*
X42494991Y-46647588D01*
X42494994Y-46647588D01*
X42597768Y-46602209D01*
X42677209Y-46522768D01*
X42722588Y-46419994D01*
X42725503Y-46394868D01*
X42725502Y-45455139D01*
X42725500Y-45455120D01*
X42722589Y-45430015D01*
X42722588Y-45430013D01*
X42722588Y-45430012D01*
X42677209Y-45327238D01*
X42597768Y-45247797D01*
X42563253Y-45232557D01*
X42494995Y-45202418D01*
X42469868Y-45199503D01*
X41530146Y-45199503D01*
X41530120Y-45199505D01*
X41505015Y-45202416D01*
X41505011Y-45202418D01*
X41391727Y-45252438D01*
X41390686Y-45250080D01*
X41339915Y-45266616D01*
X41295336Y-45259711D01*
X41162464Y-45213217D01*
X41162462Y-45213216D01*
X41162457Y-45213215D01*
X41000007Y-45194912D01*
X40999999Y-45194912D01*
X40837547Y-45213215D01*
X40683228Y-45267213D01*
X40565975Y-45340889D01*
X40498738Y-45359889D01*
X40434031Y-45340889D01*
X40316777Y-45267213D01*
X40162458Y-45213215D01*
X40000007Y-45194912D01*
X39999999Y-45194912D01*
X39837547Y-45213215D01*
X39734476Y-45249281D01*
X39664697Y-45252842D01*
X39620636Y-45232557D01*
X39465054Y-45119519D01*
X39287415Y-45040429D01*
X39250003Y-45032476D01*
X39250003Y-45875275D01*
X39211943Y-45783389D01*
X39141617Y-45713063D01*
X39049731Y-45675003D01*
X38950275Y-45675003D01*
X38858389Y-45713063D01*
X38788063Y-45783389D01*
X38750003Y-45875275D01*
X38750003Y-44981443D01*
X38748503Y-44972113D01*
X38748503Y-44537865D01*
X38768188Y-44470826D01*
X38784822Y-44450184D01*
X39263719Y-43971287D01*
X39895311Y-43339695D01*
X39954621Y-43236968D01*
X39961107Y-43212756D01*
X39961108Y-43212756D01*
X39961108Y-43212752D01*
X39985322Y-43122390D01*
X39985322Y-40111696D01*
X40005007Y-40044657D01*
X40021641Y-40024015D01*
X40380066Y-39665589D01*
X40380065Y-39665589D01*
X40380071Y-39665584D01*
X40395778Y-39645756D01*
X40436363Y-39540996D01*
X40436363Y-39428650D01*
X40395778Y-39323890D01*
X40380073Y-39304062D01*
X40232032Y-39156021D01*
X39715588Y-38639578D01*
X39695755Y-38623867D01*
X39695752Y-38623866D01*
X39590995Y-38583282D01*
X39478649Y-38583282D01*
X39373888Y-38623867D01*
X39354069Y-38639565D01*
X39354059Y-38639573D01*
X38689577Y-39304056D01*
X38673866Y-39323889D01*
X38673865Y-39323892D01*
X38668449Y-39337873D01*
X38633281Y-39428650D01*
X38633281Y-39428651D01*
X38629131Y-39439364D01*
X38627112Y-39438582D01*
X38602257Y-39487456D01*
X38553000Y-39519423D01*
X38510937Y-39534142D01*
X38372510Y-39621122D01*
X38256907Y-39736725D01*
X38169925Y-39875155D01*
X38115927Y-40029474D01*
X38097624Y-40191926D01*
X38097624Y-40191933D01*
X38115927Y-40354385D01*
X38169925Y-40508704D01*
X38202286Y-40560206D01*
X38256907Y-40647134D01*
X38372511Y-40762738D01*
X38510940Y-40849719D01*
X38665254Y-40903716D01*
X38665257Y-40903716D01*
X38665259Y-40903717D01*
X38827711Y-40922021D01*
X38827715Y-40922021D01*
X38827717Y-40922021D01*
X38909891Y-40912761D01*
X38946438Y-40908644D01*
X39015260Y-40920698D01*
X39066639Y-40968047D01*
X39084322Y-41031864D01*
X39084322Y-42825116D01*
X39064637Y-42892155D01*
X39048003Y-42912797D01*
X37937516Y-44023283D01*
X37937512Y-44023289D01*
X37878204Y-44126012D01*
X37878203Y-44126017D01*
X37847503Y-44240591D01*
X37847503Y-54907312D01*
X34055162Y-54907312D01*
X33856803Y-54224262D01*
X33856026Y-54221461D01*
X33855173Y-54218240D01*
X33852861Y-54209505D01*
X33845987Y-54183532D01*
X33845991Y-54183530D01*
X33845971Y-54183476D01*
X33822431Y-54094329D01*
X33725398Y-53847104D01*
X33600562Y-53612687D01*
X33449582Y-53394191D01*
X33274463Y-53194519D01*
X33077532Y-53016323D01*
X33077529Y-53016321D01*
X33077527Y-53016319D01*
X33077526Y-53016318D01*
X32861415Y-52861977D01*
X32861394Y-52861964D01*
X32628961Y-52733517D01*
X32628942Y-52733508D01*
X32383264Y-52632656D01*
X32333746Y-52618754D01*
X32258964Y-52597759D01*
X32251945Y-52595562D01*
X31956230Y-52493233D01*
X31942742Y-52487656D01*
X31664393Y-52352849D01*
X31651644Y-52345718D01*
X31391092Y-52179121D01*
X31379270Y-52170541D01*
X31140112Y-51974455D01*
X31129381Y-51964544D01*
X30914944Y-51741696D01*
X30905453Y-51730592D01*
X30718709Y-51484070D01*
X30710590Y-51471927D01*
X30554135Y-51205161D01*
X30547499Y-51192146D01*
X30525992Y-51143005D01*
X30423496Y-50908817D01*
X30418440Y-50895120D01*
X30396066Y-50821405D01*
X30328620Y-50599187D01*
X30325208Y-50584983D01*
X30270812Y-50280540D01*
X30269094Y-50266034D01*
X30264337Y-50185411D01*
X30250877Y-49957288D01*
X30250877Y-49950003D01*
X31644343Y-49950003D01*
X31664938Y-50185406D01*
X31664940Y-50185416D01*
X31726096Y-50413658D01*
X31726098Y-50413662D01*
X31726099Y-50413666D01*
X31812609Y-50599187D01*
X31825967Y-50627833D01*
X31825969Y-50627837D01*
X31934283Y-50782524D01*
X31961507Y-50821404D01*
X32128601Y-50988498D01*
X32225386Y-51056268D01*
X32322167Y-51124035D01*
X32322169Y-51124036D01*
X32322172Y-51124038D01*
X32536339Y-51223906D01*
X32764594Y-51285066D01*
X32952920Y-51301542D01*
X33000001Y-51305662D01*
X33000002Y-51305662D01*
X33000003Y-51305662D01*
X33039236Y-51302229D01*
X33235410Y-51285066D01*
X33463665Y-51223906D01*
X33677832Y-51124038D01*
X33871403Y-50988498D01*
X34038497Y-50821404D01*
X34174037Y-50627833D01*
X34273905Y-50413666D01*
X34335065Y-50185411D01*
X34355661Y-49950003D01*
X34335065Y-49714595D01*
X34273905Y-49486340D01*
X34174037Y-49272174D01*
X34164805Y-49258988D01*
X34038496Y-49078600D01*
X33871404Y-48911509D01*
X33871397Y-48911504D01*
X33677836Y-48775970D01*
X33677832Y-48775968D01*
X33637159Y-48757002D01*
X33463665Y-48676100D01*
X33463661Y-48676099D01*
X33463657Y-48676097D01*
X33235415Y-48614941D01*
X33235405Y-48614939D01*
X33000003Y-48594344D01*
X33000001Y-48594344D01*
X32764598Y-48614939D01*
X32764588Y-48614941D01*
X32536346Y-48676097D01*
X32536337Y-48676101D01*
X32322173Y-48775967D01*
X32322171Y-48775968D01*
X32128599Y-48911508D01*
X31961507Y-49078600D01*
X31825967Y-49272172D01*
X31825966Y-49272174D01*
X31726100Y-49486338D01*
X31726096Y-49486347D01*
X31664940Y-49714589D01*
X31664938Y-49714599D01*
X31644343Y-49950002D01*
X31644343Y-49950003D01*
X30250877Y-49950003D01*
X30250877Y-49942713D01*
X30269094Y-49633964D01*
X30270812Y-49619461D01*
X30283036Y-49551044D01*
X30325210Y-49315002D01*
X30328615Y-49300827D01*
X30418442Y-49004871D01*
X30423499Y-48991174D01*
X30439098Y-48955533D01*
X30547499Y-48707854D01*
X30554127Y-48694853D01*
X30710592Y-48428068D01*
X30718710Y-48415929D01*
X30905452Y-48169409D01*
X30914935Y-48158313D01*
X31129397Y-47935438D01*
X31140093Y-47925560D01*
X31379281Y-47729448D01*
X31391078Y-47720887D01*
X31651653Y-47554276D01*
X31664381Y-47547156D01*
X31942751Y-47412339D01*
X31956229Y-47406767D01*
X32251592Y-47304559D01*
X32258583Y-47302369D01*
X32383283Y-47267354D01*
X32628962Y-47166486D01*
X32628965Y-47166483D01*
X32628968Y-47166483D01*
X32747646Y-47100893D01*
X32861405Y-47038022D01*
X33077525Y-46883669D01*
X33274451Y-46705476D01*
X33449568Y-46505810D01*
X33600551Y-46287322D01*
X33725394Y-46052915D01*
X33822440Y-45805701D01*
X33855964Y-45678779D01*
X33856765Y-45675894D01*
X33928169Y-45430012D01*
X34078057Y-44913870D01*
X34079823Y-44908289D01*
X34336805Y-44159041D01*
X34338834Y-44153559D01*
X34631296Y-43417483D01*
X34633610Y-43412044D01*
X34644618Y-43387786D01*
X34960877Y-42690826D01*
X34963446Y-42685507D01*
X34994915Y-42624132D01*
X35324789Y-41980747D01*
X35327612Y-41975550D01*
X35722236Y-41288806D01*
X35725269Y-41283808D01*
X36152269Y-40616661D01*
X36155528Y-40611829D01*
X36613886Y-39965873D01*
X36617384Y-39961185D01*
X37106090Y-39337840D01*
X37109803Y-39333331D01*
X37627708Y-38734065D01*
X37631659Y-38729707D01*
X38064252Y-38275004D01*
X40594320Y-38275004D01*
X40614957Y-38431763D01*
X40614958Y-38431765D01*
X40675466Y-38577844D01*
X40771720Y-38703285D01*
X40897161Y-38799539D01*
X41043240Y-38860047D01*
X41121621Y-38870366D01*
X41200001Y-38880685D01*
X41200002Y-38880685D01*
X41200003Y-38880685D01*
X41252256Y-38873805D01*
X41356764Y-38860047D01*
X41502843Y-38799539D01*
X41565935Y-38751126D01*
X41631104Y-38725933D01*
X41641421Y-38725503D01*
X47962037Y-38725503D01*
X48029076Y-38745188D01*
X48049718Y-38761822D01*
X51619319Y-42331423D01*
X51652804Y-42392746D01*
X51654577Y-42402918D01*
X51664957Y-42481764D01*
X51701287Y-42569471D01*
X51725466Y-42627844D01*
X51821720Y-42753285D01*
X51947161Y-42849539D01*
X52093240Y-42910047D01*
X52171621Y-42920366D01*
X52250001Y-42930685D01*
X52250002Y-42930685D01*
X52250003Y-42930685D01*
X52302256Y-42923805D01*
X52406764Y-42910047D01*
X52552843Y-42849539D01*
X52678284Y-42753285D01*
X52774538Y-42627844D01*
X52835046Y-42481765D01*
X52845426Y-42402918D01*
X52873690Y-42339024D01*
X52880685Y-42331422D01*
X52925289Y-42286820D01*
X52986613Y-42253336D01*
X53012968Y-42250503D01*
X55583583Y-42250503D01*
X55650622Y-42270188D01*
X55659069Y-42276127D01*
X55722159Y-42324538D01*
X55722160Y-42324538D01*
X55722161Y-42324539D01*
X55868240Y-42385047D01*
X55926720Y-42392746D01*
X56025001Y-42405685D01*
X56025002Y-42405685D01*
X56025003Y-42405685D01*
X56077256Y-42398805D01*
X56181764Y-42385047D01*
X56327843Y-42324539D01*
X56453284Y-42228285D01*
X56549538Y-42102844D01*
X56610046Y-41956765D01*
X56630684Y-41800003D01*
X56610046Y-41643241D01*
X56549538Y-41497162D01*
X56453284Y-41371721D01*
X56327843Y-41275467D01*
X56181764Y-41214959D01*
X56181762Y-41214958D01*
X56025003Y-41194321D01*
X56025001Y-41194321D01*
X55868241Y-41214958D01*
X55868239Y-41214959D01*
X55722159Y-41275467D01*
X55659069Y-41323879D01*
X55593900Y-41349073D01*
X55583583Y-41349503D01*
X52715693Y-41349503D01*
X52632774Y-41371721D01*
X52632773Y-41371721D01*
X52601117Y-41380202D01*
X52498388Y-41439514D01*
X52498385Y-41439516D01*
X52337683Y-41600219D01*
X52276360Y-41633704D01*
X52206668Y-41628720D01*
X52162321Y-41600219D01*
X49339818Y-38777716D01*
X58827980Y-38777716D01*
X58848305Y-38971096D01*
X58848306Y-38971098D01*
X58908391Y-39156021D01*
X58908392Y-39156023D01*
X58951517Y-39230718D01*
X58951518Y-39230719D01*
X59404522Y-38777716D01*
X58951518Y-38324712D01*
X58908390Y-38399413D01*
X58848306Y-38584333D01*
X58848305Y-38584335D01*
X58827980Y-38777716D01*
X49339818Y-38777716D01*
X48530291Y-37968189D01*
X59302100Y-37968189D01*
X59758075Y-38424163D01*
X59758076Y-38424163D01*
X60214048Y-37968189D01*
X60045488Y-37893142D01*
X59855296Y-37852716D01*
X59660854Y-37852716D01*
X59470661Y-37893142D01*
X59470660Y-37893142D01*
X59302100Y-37968189D01*
X48530291Y-37968189D01*
X48476618Y-37914516D01*
X48476616Y-37914514D01*
X48434924Y-37890443D01*
X48373887Y-37855202D01*
X48342230Y-37846721D01*
X48300770Y-37835612D01*
X48259311Y-37824503D01*
X48259310Y-37824503D01*
X41641421Y-37824503D01*
X41574382Y-37804818D01*
X41565935Y-37798879D01*
X41502844Y-37750467D01*
X41356764Y-37689959D01*
X41356762Y-37689958D01*
X41200003Y-37669321D01*
X41200001Y-37669321D01*
X41043241Y-37689958D01*
X41043239Y-37689959D01*
X40897162Y-37750466D01*
X40771720Y-37846721D01*
X40675465Y-37972163D01*
X40614958Y-38118240D01*
X40614957Y-38118242D01*
X40594320Y-38275001D01*
X40594320Y-38275004D01*
X38064252Y-38275004D01*
X38177603Y-38155859D01*
X38181721Y-38151732D01*
X38754477Y-37604594D01*
X38758799Y-37600658D01*
X39356992Y-37081542D01*
X39361555Y-37077771D01*
X39678971Y-36827866D01*
X39983834Y-36587843D01*
X39988566Y-36584298D01*
X39990065Y-36583230D01*
X40633557Y-36124641D01*
X40638443Y-36121332D01*
X41304675Y-35692996D01*
X41309659Y-35689957D01*
X41995600Y-35293929D01*
X42000750Y-35291117D01*
X42124069Y-35227571D01*
X57144343Y-35227571D01*
X57164938Y-35462974D01*
X57164940Y-35462984D01*
X57226096Y-35691226D01*
X57226098Y-35691230D01*
X57226099Y-35691234D01*
X57227798Y-35694877D01*
X57325967Y-35905401D01*
X57325969Y-35905405D01*
X57416564Y-36034787D01*
X57461507Y-36098972D01*
X57628601Y-36266066D01*
X57674189Y-36297987D01*
X57822167Y-36401603D01*
X57822169Y-36401604D01*
X57822172Y-36401606D01*
X58036339Y-36501474D01*
X58264594Y-36562634D01*
X58452920Y-36579110D01*
X58500001Y-36583230D01*
X58500002Y-36583230D01*
X58500003Y-36583230D01*
X58539236Y-36579797D01*
X58735410Y-36562634D01*
X58963665Y-36501474D01*
X59177832Y-36401606D01*
X59371403Y-36266066D01*
X59538497Y-36098972D01*
X59674037Y-35905401D01*
X59773905Y-35691234D01*
X59835065Y-35462979D01*
X59855661Y-35227571D01*
X59835065Y-34992163D01*
X59773905Y-34763908D01*
X59674037Y-34549742D01*
X59538497Y-34356170D01*
X59538496Y-34356168D01*
X59371404Y-34189077D01*
X59371397Y-34189072D01*
X59342234Y-34168652D01*
X59332523Y-34161852D01*
X59177836Y-34053538D01*
X59177832Y-34053536D01*
X59147103Y-34039207D01*
X58963665Y-33953668D01*
X58963661Y-33953667D01*
X58963657Y-33953665D01*
X58735415Y-33892509D01*
X58735405Y-33892507D01*
X58500003Y-33871912D01*
X58500001Y-33871912D01*
X58264598Y-33892507D01*
X58264588Y-33892509D01*
X58036346Y-33953665D01*
X58036337Y-33953669D01*
X57822173Y-34053535D01*
X57822171Y-34053536D01*
X57628599Y-34189076D01*
X57461507Y-34356168D01*
X57325967Y-34549740D01*
X57325966Y-34549742D01*
X57226100Y-34763906D01*
X57226096Y-34763915D01*
X57164940Y-34992157D01*
X57164938Y-34992167D01*
X57144343Y-35227570D01*
X57144343Y-35227571D01*
X42124069Y-35227571D01*
X42704828Y-34928306D01*
X42710109Y-34925742D01*
X43430688Y-34596987D01*
X43436104Y-34594671D01*
X44171566Y-34300712D01*
X44177078Y-34298660D01*
X44925746Y-34040166D01*
X44931322Y-34038388D01*
X45691520Y-33815941D01*
X45697200Y-33814425D01*
X46467084Y-33628561D01*
X46472861Y-33627311D01*
X47250792Y-33478425D01*
X47256574Y-33477462D01*
X48040703Y-33365910D01*
X48046579Y-33365217D01*
X48835129Y-33291249D01*
X48841020Y-33290838D01*
X49632178Y-33254622D01*
X49638098Y-33254493D01*
X50430151Y-33256111D01*
X50435993Y-33256262D01*
X51227066Y-33295712D01*
X51232898Y-33296143D01*
X52021204Y-33373338D01*
X52027010Y-33374047D01*
X52681072Y-33469823D01*
X52810701Y-33488805D01*
X52816541Y-33489804D01*
X52942651Y-33514474D01*
X53593805Y-33641855D01*
X53599549Y-33643122D01*
X54225412Y-33796925D01*
X54369948Y-33832445D01*
X54372811Y-33833185D01*
X54393332Y-33838750D01*
X54393402Y-33838769D01*
X54415340Y-33844732D01*
X54499700Y-33867663D01*
X54762319Y-33907236D01*
X54795497Y-33908372D01*
X55027733Y-33916329D01*
X55027736Y-33916328D01*
X55027747Y-33916329D01*
X55292459Y-33894822D01*
X55407612Y-33871912D01*
X55552924Y-33843002D01*
X55552927Y-33843000D01*
X55552937Y-33842999D01*
X55805723Y-33761549D01*
X56047458Y-33651555D01*
X56274932Y-33514477D01*
X56485123Y-33352136D01*
X56577517Y-33261915D01*
X56582924Y-33256940D01*
X56819387Y-33052035D01*
X56830949Y-33043152D01*
X57086894Y-32869491D01*
X57099412Y-32862035D01*
X57373990Y-32719683D01*
X57387309Y-32713745D01*
X57676731Y-32604668D01*
X57690657Y-32600338D01*
X57990898Y-32526051D01*
X58005219Y-32523392D01*
X58312100Y-32484930D01*
X58326667Y-32483971D01*
X58635943Y-32481864D01*
X58650502Y-32482624D01*
G37*
%TD.AperFunction*%
%TD*%
M02*
