%TF.GenerationSoftware,KiCad,Pcbnew,8.0.0*%
%TF.CreationDate,2024-05-17T03:14:29+03:00*%
%TF.ProjectId,pressure_sensor_logic,70726573-7375-4726-955f-73656e736f72,rev?*%
%TF.SameCoordinates,Original*%
%TF.FileFunction,Soldermask,Top*%
%TF.FilePolarity,Negative*%
%FSLAX46Y46*%
G04 Gerber Fmt 4.6, Leading zero omitted, Abs format (unit mm)*
G04 Created by KiCad (PCBNEW 8.0.0) date 2024-05-17 03:14:29*
%MOMM*%
%LPD*%
G01*
G04 APERTURE LIST*
G04 Aperture macros list*
%AMRoundRect*
0 Rectangle with rounded corners*
0 $1 Rounding radius*
0 $2 $3 $4 $5 $6 $7 $8 $9 X,Y pos of 4 corners*
0 Add a 4 corners polygon primitive as box body*
4,1,4,$2,$3,$4,$5,$6,$7,$8,$9,$2,$3,0*
0 Add four circle primitives for the rounded corners*
1,1,$1+$1,$2,$3*
1,1,$1+$1,$4,$5*
1,1,$1+$1,$6,$7*
1,1,$1+$1,$8,$9*
0 Add four rect primitives between the rounded corners*
20,1,$1+$1,$2,$3,$4,$5,0*
20,1,$1+$1,$4,$5,$6,$7,0*
20,1,$1+$1,$6,$7,$8,$9,0*
20,1,$1+$1,$8,$9,$2,$3,0*%
%AMHorizOval*
0 Thick line with rounded ends*
0 $1 width*
0 $2 $3 position (X,Y) of the first rounded end (center of the circle)*
0 $4 $5 position (X,Y) of the second rounded end (center of the circle)*
0 Add line between two ends*
20,1,$1,$2,$3,$4,$5,0*
0 Add two circle primitives to create the rounded ends*
1,1,$1,$2,$3*
1,1,$1,$4,$5*%
%AMRotRect*
0 Rectangle, with rotation*
0 The origin of the aperture is its center*
0 $1 length*
0 $2 width*
0 $3 Rotation angle, in degrees counterclockwise*
0 Add horizontal line*
21,1,$1,$2,0,0,$3*%
G04 Aperture macros list end*
%ADD10C,0.010000*%
%ADD11R,1.000000X0.400000*%
%ADD12RoundRect,0.225000X0.250000X-0.225000X0.250000X0.225000X-0.250000X0.225000X-0.250000X-0.225000X0*%
%ADD13RotRect,0.850000X0.850000X225.000000*%
%ADD14HorizOval,0.850000X0.000000X0.000000X0.000000X0.000000X0*%
%ADD15RoundRect,0.100000X0.637500X0.100000X-0.637500X0.100000X-0.637500X-0.100000X0.637500X-0.100000X0*%
%ADD16RoundRect,0.250000X-0.250000X-0.475000X0.250000X-0.475000X0.250000X0.475000X-0.250000X0.475000X0*%
%ADD17RoundRect,0.150000X0.512500X0.150000X-0.512500X0.150000X-0.512500X-0.150000X0.512500X-0.150000X0*%
%ADD18RoundRect,0.225000X-0.250000X0.225000X-0.250000X-0.225000X0.250000X-0.225000X0.250000X0.225000X0*%
%ADD19R,0.850000X0.850000*%
%ADD20O,0.850000X0.850000*%
%ADD21RoundRect,0.250000X-0.475000X0.250000X-0.475000X-0.250000X0.475000X-0.250000X0.475000X0.250000X0*%
%ADD22RoundRect,0.200000X-0.275000X0.200000X-0.275000X-0.200000X0.275000X-0.200000X0.275000X0.200000X0*%
%ADD23RoundRect,0.200000X-0.200000X-0.275000X0.200000X-0.275000X0.200000X0.275000X-0.200000X0.275000X0*%
%ADD24RoundRect,0.200000X0.275000X-0.200000X0.275000X0.200000X-0.275000X0.200000X-0.275000X-0.200000X0*%
%ADD25R,1.400000X0.300000*%
%ADD26C,0.800000*%
%ADD27R,0.900000X1.700000*%
%ADD28RoundRect,0.225000X0.225000X0.250000X-0.225000X0.250000X-0.225000X-0.250000X0.225000X-0.250000X0*%
%ADD29RotRect,0.850000X0.850000X315.000000*%
%ADD30HorizOval,0.850000X0.000000X0.000000X0.000000X0.000000X0*%
%ADD31RotRect,0.850000X0.850000X135.000000*%
%ADD32HorizOval,0.850000X0.000000X0.000000X0.000000X0.000000X0*%
%ADD33C,0.600000*%
%ADD34O,2.204000X1.104000*%
%ADD35O,1.904000X1.104000*%
G04 APERTURE END LIST*
D10*
%TO.C,J11*%
X59870003Y-50475003D02*
X59870003Y-50875003D01*
X58630001Y-50875002D01*
X58630004Y-50475002D01*
X59870003Y-50475003D01*
G36*
X59870003Y-50475003D02*
G01*
X59870003Y-50875003D01*
X58630001Y-50875002D01*
X58630004Y-50475002D01*
X59870003Y-50475003D01*
G37*
X59870003Y-47875003D02*
X58630002Y-47875002D01*
X58630002Y-47175003D01*
X59870003Y-47175003D01*
X59870003Y-47875003D01*
G36*
X59870003Y-47875003D02*
G01*
X58630002Y-47875002D01*
X58630002Y-47175003D01*
X59870003Y-47175003D01*
X59870003Y-47875003D01*
G37*
X59870003Y-49375003D02*
X58630002Y-49375004D01*
X58630004Y-48975003D01*
X59870003Y-48975003D01*
X59870003Y-49375003D01*
G36*
X59870003Y-49375003D02*
G01*
X58630002Y-49375004D01*
X58630004Y-48975003D01*
X59870003Y-48975003D01*
X59870003Y-49375003D01*
G37*
X59870003Y-50375003D02*
X58630002Y-50375004D01*
X58630002Y-49975004D01*
X59870002Y-49975002D01*
X59870003Y-50375003D01*
G36*
X59870003Y-50375003D02*
G01*
X58630002Y-50375004D01*
X58630002Y-49975004D01*
X59870002Y-49975002D01*
X59870003Y-50375003D01*
G37*
X59870003Y-51475004D02*
X59870002Y-51875004D01*
X58630002Y-51875003D01*
X58630003Y-51475002D01*
X59870003Y-51475004D01*
G36*
X59870003Y-51475004D02*
G01*
X59870002Y-51875004D01*
X58630002Y-51875003D01*
X58630003Y-51475002D01*
X59870003Y-51475004D01*
G37*
X59870003Y-47075003D02*
X58630003Y-47075003D01*
X58630003Y-46375003D01*
X59870003Y-46375003D01*
X59870003Y-47075003D01*
G36*
X59870003Y-47075003D02*
G01*
X58630003Y-47075003D01*
X58630003Y-46375003D01*
X59870003Y-46375003D01*
X59870003Y-47075003D01*
G37*
X59870003Y-48375004D02*
X58630003Y-48375002D01*
X58630002Y-47975003D01*
X59870003Y-47975002D01*
X59870003Y-48375004D01*
G36*
X59870003Y-48375004D02*
G01*
X58630003Y-48375002D01*
X58630002Y-47975003D01*
X59870003Y-47975002D01*
X59870003Y-48375004D01*
G37*
X59870003Y-49875002D02*
X58630003Y-49875003D01*
X58630002Y-49475004D01*
X59870004Y-49475002D01*
X59870003Y-49875002D01*
G36*
X59870003Y-49875002D02*
G01*
X58630003Y-49875003D01*
X58630002Y-49475004D01*
X59870004Y-49475002D01*
X59870003Y-49875002D01*
G37*
X59870003Y-50975004D02*
X59870003Y-51375003D01*
X58630003Y-51375003D01*
X58630003Y-50975002D01*
X59870003Y-50975004D01*
G36*
X59870003Y-50975004D02*
G01*
X59870003Y-51375003D01*
X58630003Y-51375003D01*
X58630003Y-50975002D01*
X59870003Y-50975004D01*
G37*
X59870003Y-53475003D02*
X58630003Y-53475003D01*
X58630003Y-52775003D01*
X59870003Y-52775003D01*
X59870003Y-53475003D01*
G36*
X59870003Y-53475003D02*
G01*
X58630003Y-53475003D01*
X58630003Y-52775003D01*
X59870003Y-52775003D01*
X59870003Y-53475003D01*
G37*
X59870002Y-48875004D02*
X58630004Y-48875002D01*
X58630003Y-48475003D01*
X59870003Y-48475003D01*
X59870002Y-48875004D01*
G36*
X59870002Y-48875004D02*
G01*
X58630004Y-48875002D01*
X58630003Y-48475003D01*
X59870003Y-48475003D01*
X59870002Y-48875004D01*
G37*
X59870002Y-51975003D02*
X59870003Y-52675004D01*
X58630004Y-52675002D01*
X58630004Y-51975002D01*
X59870002Y-51975003D01*
G36*
X59870002Y-51975003D02*
G01*
X59870003Y-52675004D01*
X58630004Y-52675002D01*
X58630004Y-51975002D01*
X59870002Y-51975003D01*
G37*
%TD*%
D11*
%TO.C,D1*%
X43900006Y-58300006D03*
X43900004Y-58950006D03*
X43900006Y-59600007D03*
X43900006Y-60250009D03*
X43899996Y-60899996D03*
X43900002Y-61550008D03*
X43900003Y-62200008D03*
X43900004Y-62850004D03*
X49700002Y-62850004D03*
X49700004Y-62200004D03*
X49700002Y-61550003D03*
X49700002Y-60900001D03*
X49700012Y-60250014D03*
X49700006Y-59600002D03*
X49700005Y-58950002D03*
X49700004Y-58300006D03*
%TD*%
D12*
%TO.C,C19*%
X52550002Y-41100003D03*
X52550002Y-39550001D03*
%TD*%
D13*
%TO.C,J2*%
X39534822Y-60415183D03*
D14*
X38827715Y-59708076D03*
%TD*%
D15*
%TO.C,U4*%
X48400001Y-42775003D03*
X48400002Y-42125003D03*
X48400002Y-41475003D03*
X48400002Y-40825003D03*
X48400001Y-40175002D03*
X48400001Y-39525004D03*
X48400002Y-38875003D03*
X48400002Y-38225004D03*
X48400001Y-37575002D03*
X48400006Y-36925004D03*
X42675003Y-36925003D03*
X42675002Y-37575003D03*
X42675002Y-38225003D03*
X42675002Y-38875003D03*
X42675003Y-39525004D03*
X42675003Y-40175002D03*
X42675002Y-40825003D03*
X42675002Y-41475002D03*
X42675003Y-42125004D03*
X42674998Y-42775002D03*
%TD*%
D16*
%TO.C,C17*%
X53450004Y-61150005D03*
X55350002Y-61150005D03*
%TD*%
D17*
%TO.C,U3*%
X55450000Y-59300006D03*
X55450000Y-58350006D03*
X55450000Y-57400006D03*
X53175000Y-57400006D03*
X53175000Y-59300006D03*
%TD*%
D13*
%TO.C,J4*%
X60465182Y-39484823D03*
D14*
X59758075Y-38777716D03*
%TD*%
D18*
%TO.C,C4*%
X51250003Y-59909878D03*
X51250003Y-61459880D03*
%TD*%
D19*
%TO.C,J3*%
X42000003Y-45925003D03*
D20*
X41000003Y-45925003D03*
X40000003Y-45925003D03*
X39000003Y-45925003D03*
%TD*%
D21*
%TO.C,C16*%
X57450002Y-57350005D03*
X57450002Y-59250003D03*
%TD*%
D22*
%TO.C,R14*%
X41350002Y-56925003D03*
X41350002Y-58575003D03*
%TD*%
D23*
%TO.C,R9*%
X38750002Y-51425003D03*
X40400002Y-51425003D03*
%TD*%
D12*
%TO.C,C3*%
X42300002Y-61950003D03*
X42300002Y-60400001D03*
%TD*%
D24*
%TO.C,R1*%
X62350002Y-44000003D03*
X62350002Y-42350003D03*
%TD*%
D25*
%TO.C,U5*%
X59050007Y-43750001D03*
X59050002Y-43250003D03*
X59050002Y-42750003D03*
X59050004Y-42250007D03*
X59050003Y-41750002D03*
X54649997Y-41750005D03*
X54650002Y-42250003D03*
X54650002Y-42750003D03*
X54650000Y-43249999D03*
X54650001Y-43750004D03*
%TD*%
D26*
%TO.C,SW2*%
X40525002Y-48850003D03*
D27*
X38825002Y-48850003D03*
X42225002Y-48850003D03*
%TD*%
D24*
%TO.C,R15*%
X41375002Y-55400003D03*
X41375002Y-53750003D03*
%TD*%
D28*
%TO.C,C20*%
X47975004Y-35500003D03*
X46425002Y-35500003D03*
%TD*%
D29*
%TO.C,J6*%
X39534822Y-39484823D03*
D30*
X38827715Y-40191930D03*
%TD*%
D12*
%TO.C,C18*%
X50900002Y-41100003D03*
X50900002Y-39550001D03*
%TD*%
D31*
%TO.C,J5*%
X60465182Y-60415183D03*
D32*
X61172289Y-59708076D03*
%TD*%
D33*
%TO.C,J11*%
X60320003Y-52815003D03*
X60320003Y-47035003D03*
D34*
X59830003Y-54250003D03*
X59830004Y-45600002D03*
D35*
X64000003Y-54250003D03*
X64000003Y-45600003D03*
%TD*%
D22*
%TO.C,R2*%
X57000002Y-53100003D03*
X57000002Y-54750003D03*
%TD*%
D23*
%TO.C,R10*%
X52350002Y-36600003D03*
X54000002Y-36600003D03*
%TD*%
M02*
