%TF.GenerationSoftware,KiCad,Pcbnew,8.0.0*%
%TF.CreationDate,2024-05-17T03:14:29+03:00*%
%TF.ProjectId,pressure_sensor_logic,70726573-7375-4726-955f-73656e736f72,rev?*%
%TF.SameCoordinates,Original*%
%TF.FileFunction,Profile,NP*%
%FSLAX46Y46*%
G04 Gerber Fmt 4.6, Leading zero omitted, Abs format (unit mm)*
G04 Created by KiCad (PCBNEW 8.0.0) date 2024-05-17 03:14:29*
%MOMM*%
%LPD*%
G01*
G04 APERTURE LIST*
%TA.AperFunction,Profile*%
%ADD10C,0.180000*%
%TD*%
G04 APERTURE END LIST*
D10*
X54450223Y-66357182D02*
G75*
G02*
X33565853Y-54299589I-4450223J16407182D01*
G01*
X54450223Y-66357182D02*
G75*
G02*
X56370328Y-66855728I523577J-1930318D01*
G01*
X59550002Y-64672435D02*
G75*
G02*
X57450002Y-64672435I-1050000J0D01*
G01*
X57450002Y-64672435D02*
G75*
G02*
X59550002Y-64672435I1050000J0D01*
G01*
X56370303Y-33044252D02*
G75*
G02*
X54450226Y-33542812I-1396503J1431652D01*
G01*
X34050002Y-49950003D02*
G75*
G02*
X31950002Y-49950003I-1050000J0D01*
G01*
X31950002Y-49950003D02*
G75*
G02*
X34050002Y-49950003I1050000J0D01*
G01*
X33565858Y-45600419D02*
G75*
G02*
X54450224Y-33542820I16434152J-4349591D01*
G01*
X56370303Y-33044252D02*
G75*
G02*
X61455685Y-35980291I2129697J-2183348D01*
G01*
X56500002Y-49950003D02*
G75*
G02*
X43500002Y-49950003I-6500000J0D01*
G01*
X43500002Y-49950003D02*
G75*
G02*
X56500002Y-49950003I6500000J0D01*
G01*
X32174042Y-52886036D02*
G75*
G02*
X32174041Y-47013965I825888J2936036D01*
G01*
X61455661Y-63919721D02*
G75*
G02*
X61983948Y-62007621I1938239J493521D01*
G01*
X33565857Y-45600419D02*
G75*
G02*
X32174046Y-47013986I-1933557J511819D01*
G01*
X61983925Y-37892409D02*
G75*
G02*
X61983925Y-62007598I-11983923J-12057595D01*
G01*
X61455661Y-63919721D02*
G75*
G02*
X56370297Y-66855760I-2955621J-752789D01*
G01*
X59550002Y-35227571D02*
G75*
G02*
X57450002Y-35227571I-1050000J0D01*
G01*
X57450002Y-35227571D02*
G75*
G02*
X59550002Y-35227571I1050000J0D01*
G01*
X61983926Y-37892408D02*
G75*
G02*
X61455692Y-35980293I1409874J1418508D01*
G01*
X32174042Y-52886036D02*
G75*
G02*
X33565835Y-54299594I-541542J-1925164D01*
G01*
M02*
