%TF.GenerationSoftware,KiCad,Pcbnew,8.0.0*%
%TF.CreationDate,2024-05-16T17:25:02+03:00*%
%TF.ProjectId,pressure_sensor_logic,70726573-7375-4726-955f-73656e736f72,rev?*%
%TF.SameCoordinates,Original*%
%TF.FileFunction,Paste,Top*%
%TF.FilePolarity,Positive*%
%FSLAX46Y46*%
G04 Gerber Fmt 4.6, Leading zero omitted, Abs format (unit mm)*
G04 Created by KiCad (PCBNEW 8.0.0) date 2024-05-16 17:25:02*
%MOMM*%
%LPD*%
G01*
G04 APERTURE LIST*
G04 Aperture macros list*
%AMRoundRect*
0 Rectangle with rounded corners*
0 $1 Rounding radius*
0 $2 $3 $4 $5 $6 $7 $8 $9 X,Y pos of 4 corners*
0 Add a 4 corners polygon primitive as box body*
4,1,4,$2,$3,$4,$5,$6,$7,$8,$9,$2,$3,0*
0 Add four circle primitives for the rounded corners*
1,1,$1+$1,$2,$3*
1,1,$1+$1,$4,$5*
1,1,$1+$1,$6,$7*
1,1,$1+$1,$8,$9*
0 Add four rect primitives between the rounded corners*
20,1,$1+$1,$2,$3,$4,$5,0*
20,1,$1+$1,$4,$5,$6,$7,0*
20,1,$1+$1,$6,$7,$8,$9,0*
20,1,$1+$1,$8,$9,$2,$3,0*%
G04 Aperture macros list end*
%ADD10C,0.100000*%
%ADD11R,1.000000X0.400000*%
%ADD12RoundRect,0.225000X0.250000X-0.225000X0.250000X0.225000X-0.250000X0.225000X-0.250000X-0.225000X0*%
%ADD13RoundRect,0.100000X0.637500X0.100000X-0.637500X0.100000X-0.637500X-0.100000X0.637500X-0.100000X0*%
%ADD14RoundRect,0.250000X-0.250000X-0.475000X0.250000X-0.475000X0.250000X0.475000X-0.250000X0.475000X0*%
%ADD15RoundRect,0.150000X0.512500X0.150000X-0.512500X0.150000X-0.512500X-0.150000X0.512500X-0.150000X0*%
%ADD16RoundRect,0.225000X-0.250000X0.225000X-0.250000X-0.225000X0.250000X-0.225000X0.250000X0.225000X0*%
%ADD17RoundRect,0.250000X-0.475000X0.250000X-0.475000X-0.250000X0.475000X-0.250000X0.475000X0.250000X0*%
%ADD18RoundRect,0.200000X-0.275000X0.200000X-0.275000X-0.200000X0.275000X-0.200000X0.275000X0.200000X0*%
%ADD19RoundRect,0.200000X-0.200000X-0.275000X0.200000X-0.275000X0.200000X0.275000X-0.200000X0.275000X0*%
%ADD20RoundRect,0.200000X0.275000X-0.200000X0.275000X0.200000X-0.275000X0.200000X-0.275000X-0.200000X0*%
%ADD21R,1.400000X0.300000*%
%ADD22R,0.900000X1.700000*%
%ADD23RoundRect,0.225000X0.225000X0.250000X-0.225000X0.250000X-0.225000X-0.250000X0.225000X-0.250000X0*%
%ADD24R,1.140000X0.600000*%
%ADD25R,1.140000X0.300000*%
G04 APERTURE END LIST*
D10*
X169799998Y-80049997D02*
X160989777Y-64790246D01*
X169800000Y-80100000D02*
X178207735Y-65537377D01*
X169800000Y-80100000D02*
X183857204Y-94157204D01*
X169800000Y-80107204D02*
X183857204Y-66050000D01*
D11*
%TO.C,D1*%
X163700004Y-88450003D03*
X163700002Y-89100003D03*
X163700004Y-89750004D03*
X163700004Y-90400006D03*
X163699994Y-91049993D03*
X163700000Y-91700005D03*
X163700001Y-92350005D03*
X163700002Y-93000001D03*
X169500000Y-93000001D03*
X169500002Y-92350001D03*
X169500000Y-91700000D03*
X169500000Y-91049998D03*
X169500010Y-90400011D03*
X169500004Y-89749999D03*
X169500003Y-89099999D03*
X169500002Y-88450003D03*
%TD*%
D12*
%TO.C,C19*%
X172350000Y-71250000D03*
X172350000Y-69699998D03*
%TD*%
D13*
%TO.C,U4*%
X168199999Y-72925000D03*
X168200000Y-72275000D03*
X168200000Y-71625000D03*
X168200000Y-70975000D03*
X168199999Y-70324999D03*
X168199999Y-69675001D03*
X168200000Y-69025000D03*
X168200000Y-68375001D03*
X168199999Y-67724999D03*
X168200004Y-67075001D03*
X162475001Y-67075000D03*
X162475000Y-67725000D03*
X162475000Y-68375000D03*
X162475000Y-69025000D03*
X162475001Y-69675001D03*
X162475001Y-70324999D03*
X162475000Y-70975000D03*
X162475000Y-71624999D03*
X162475001Y-72275001D03*
X162474996Y-72924999D03*
%TD*%
D14*
%TO.C,C17*%
X173250002Y-91300002D03*
X175150000Y-91300002D03*
%TD*%
D15*
%TO.C,U3*%
X175249998Y-89450003D03*
X175249998Y-88500003D03*
X175249998Y-87550003D03*
X172974998Y-87550003D03*
X172974998Y-89450003D03*
%TD*%
D16*
%TO.C,C4*%
X171050001Y-90059875D03*
X171050001Y-91609877D03*
%TD*%
D17*
%TO.C,C16*%
X177250000Y-87500002D03*
X177250000Y-89400000D03*
%TD*%
D18*
%TO.C,R14*%
X161150000Y-87075000D03*
X161150000Y-88725000D03*
%TD*%
D19*
%TO.C,R9*%
X158550000Y-81575000D03*
X160200000Y-81575000D03*
%TD*%
D12*
%TO.C,C3*%
X162100000Y-92100000D03*
X162100000Y-90549998D03*
%TD*%
D20*
%TO.C,R1*%
X182150000Y-74150000D03*
X182150000Y-72500000D03*
%TD*%
D21*
%TO.C,U5*%
X178850005Y-73899998D03*
X178850000Y-73400000D03*
X178850000Y-72900000D03*
X178850002Y-72400004D03*
X178850001Y-71899999D03*
X174449995Y-71900002D03*
X174450000Y-72400000D03*
X174450000Y-72900000D03*
X174449998Y-73399996D03*
X174449999Y-73900001D03*
%TD*%
D22*
%TO.C,SW2*%
X158625000Y-79000000D03*
X162025000Y-79000000D03*
%TD*%
D20*
%TO.C,R15*%
X161175000Y-85550000D03*
X161175000Y-83900000D03*
%TD*%
D23*
%TO.C,C20*%
X167775002Y-65650000D03*
X166225000Y-65650000D03*
%TD*%
D12*
%TO.C,C18*%
X170700000Y-71250000D03*
X170700000Y-69699998D03*
%TD*%
D24*
%TO.C,J11*%
X179050001Y-83275000D03*
X179050001Y-82475001D03*
D25*
X179050001Y-81325000D03*
X179050000Y-80325000D03*
X179050001Y-79825001D03*
X179050002Y-78825000D03*
D24*
X179050001Y-76875000D03*
X179050002Y-77674999D03*
D25*
X179050000Y-78325000D03*
X179050000Y-79324999D03*
X179050002Y-80825001D03*
X179050001Y-81825000D03*
%TD*%
D18*
%TO.C,R2*%
X176800000Y-83250000D03*
X176800000Y-84900000D03*
%TD*%
D19*
%TO.C,R10*%
X172150000Y-66750000D03*
X173800000Y-66750000D03*
%TD*%
M02*
