%TF.GenerationSoftware,KiCad,Pcbnew,8.0.0*%
%TF.CreationDate,2024-05-16T16:09:19+03:00*%
%TF.ProjectId,pressure_sensor,70726573-7375-4726-955f-73656e736f72,rev?*%
%TF.SameCoordinates,Original*%
%TF.FileFunction,Legend,Top*%
%TF.FilePolarity,Positive*%
%FSLAX46Y46*%
G04 Gerber Fmt 4.6, Leading zero omitted, Abs format (unit mm)*
G04 Created by KiCad (PCBNEW 8.0.0) date 2024-05-16 16:09:19*
%MOMM*%
%LPD*%
G01*
G04 APERTURE LIST*
%ADD10C,0.200000*%
G04 APERTURE END LIST*
D10*
X233215476Y-83502219D02*
X233215476Y-84216504D01*
X233215476Y-84216504D02*
X233167857Y-84359361D01*
X233167857Y-84359361D02*
X233072619Y-84454600D01*
X233072619Y-84454600D02*
X232929762Y-84502219D01*
X232929762Y-84502219D02*
X232834524Y-84502219D01*
X234215476Y-84502219D02*
X233644048Y-84502219D01*
X233929762Y-84502219D02*
X233929762Y-83502219D01*
X233929762Y-83502219D02*
X233834524Y-83645076D01*
X233834524Y-83645076D02*
X233739286Y-83740314D01*
X233739286Y-83740314D02*
X233644048Y-83787933D01*
X234596429Y-83597457D02*
X234644048Y-83549838D01*
X234644048Y-83549838D02*
X234739286Y-83502219D01*
X234739286Y-83502219D02*
X234977381Y-83502219D01*
X234977381Y-83502219D02*
X235072619Y-83549838D01*
X235072619Y-83549838D02*
X235120238Y-83597457D01*
X235120238Y-83597457D02*
X235167857Y-83692695D01*
X235167857Y-83692695D02*
X235167857Y-83787933D01*
X235167857Y-83787933D02*
X235120238Y-83930790D01*
X235120238Y-83930790D02*
X234548810Y-84502219D01*
X234548810Y-84502219D02*
X235167857Y-84502219D01*
X232365476Y-70452219D02*
X232365476Y-71166504D01*
X232365476Y-71166504D02*
X232317857Y-71309361D01*
X232317857Y-71309361D02*
X232222619Y-71404600D01*
X232222619Y-71404600D02*
X232079762Y-71452219D01*
X232079762Y-71452219D02*
X231984524Y-71452219D01*
X233365476Y-71452219D02*
X232794048Y-71452219D01*
X233079762Y-71452219D02*
X233079762Y-70452219D01*
X233079762Y-70452219D02*
X232984524Y-70595076D01*
X232984524Y-70595076D02*
X232889286Y-70690314D01*
X232889286Y-70690314D02*
X232794048Y-70737933D01*
X233984524Y-70452219D02*
X234079762Y-70452219D01*
X234079762Y-70452219D02*
X234175000Y-70499838D01*
X234175000Y-70499838D02*
X234222619Y-70547457D01*
X234222619Y-70547457D02*
X234270238Y-70642695D01*
X234270238Y-70642695D02*
X234317857Y-70833171D01*
X234317857Y-70833171D02*
X234317857Y-71071266D01*
X234317857Y-71071266D02*
X234270238Y-71261742D01*
X234270238Y-71261742D02*
X234222619Y-71356980D01*
X234222619Y-71356980D02*
X234175000Y-71404600D01*
X234175000Y-71404600D02*
X234079762Y-71452219D01*
X234079762Y-71452219D02*
X233984524Y-71452219D01*
X233984524Y-71452219D02*
X233889286Y-71404600D01*
X233889286Y-71404600D02*
X233841667Y-71356980D01*
X233841667Y-71356980D02*
X233794048Y-71261742D01*
X233794048Y-71261742D02*
X233746429Y-71071266D01*
X233746429Y-71071266D02*
X233746429Y-70833171D01*
X233746429Y-70833171D02*
X233794048Y-70642695D01*
X233794048Y-70642695D02*
X233841667Y-70547457D01*
X233841667Y-70547457D02*
X233889286Y-70499838D01*
X233889286Y-70499838D02*
X233984524Y-70452219D01*
X166711905Y-94927219D02*
X166711905Y-93927219D01*
X166711905Y-93927219D02*
X166950000Y-93927219D01*
X166950000Y-93927219D02*
X167092857Y-93974838D01*
X167092857Y-93974838D02*
X167188095Y-94070076D01*
X167188095Y-94070076D02*
X167235714Y-94165314D01*
X167235714Y-94165314D02*
X167283333Y-94355790D01*
X167283333Y-94355790D02*
X167283333Y-94498647D01*
X167283333Y-94498647D02*
X167235714Y-94689123D01*
X167235714Y-94689123D02*
X167188095Y-94784361D01*
X167188095Y-94784361D02*
X167092857Y-94879600D01*
X167092857Y-94879600D02*
X166950000Y-94927219D01*
X166950000Y-94927219D02*
X166711905Y-94927219D01*
X168235714Y-94927219D02*
X167664286Y-94927219D01*
X167950000Y-94927219D02*
X167950000Y-93927219D01*
X167950000Y-93927219D02*
X167854762Y-94070076D01*
X167854762Y-94070076D02*
X167759524Y-94165314D01*
X167759524Y-94165314D02*
X167664286Y-94212933D01*
X173057142Y-68631980D02*
X173009523Y-68679600D01*
X173009523Y-68679600D02*
X172866666Y-68727219D01*
X172866666Y-68727219D02*
X172771428Y-68727219D01*
X172771428Y-68727219D02*
X172628571Y-68679600D01*
X172628571Y-68679600D02*
X172533333Y-68584361D01*
X172533333Y-68584361D02*
X172485714Y-68489123D01*
X172485714Y-68489123D02*
X172438095Y-68298647D01*
X172438095Y-68298647D02*
X172438095Y-68155790D01*
X172438095Y-68155790D02*
X172485714Y-67965314D01*
X172485714Y-67965314D02*
X172533333Y-67870076D01*
X172533333Y-67870076D02*
X172628571Y-67774838D01*
X172628571Y-67774838D02*
X172771428Y-67727219D01*
X172771428Y-67727219D02*
X172866666Y-67727219D01*
X172866666Y-67727219D02*
X173009523Y-67774838D01*
X173009523Y-67774838D02*
X173057142Y-67822457D01*
X174009523Y-68727219D02*
X173438095Y-68727219D01*
X173723809Y-68727219D02*
X173723809Y-67727219D01*
X173723809Y-67727219D02*
X173628571Y-67870076D01*
X173628571Y-67870076D02*
X173533333Y-67965314D01*
X173533333Y-67965314D02*
X173438095Y-68012933D01*
X174485714Y-68727219D02*
X174676190Y-68727219D01*
X174676190Y-68727219D02*
X174771428Y-68679600D01*
X174771428Y-68679600D02*
X174819047Y-68631980D01*
X174819047Y-68631980D02*
X174914285Y-68489123D01*
X174914285Y-68489123D02*
X174961904Y-68298647D01*
X174961904Y-68298647D02*
X174961904Y-67917695D01*
X174961904Y-67917695D02*
X174914285Y-67822457D01*
X174914285Y-67822457D02*
X174866666Y-67774838D01*
X174866666Y-67774838D02*
X174771428Y-67727219D01*
X174771428Y-67727219D02*
X174580952Y-67727219D01*
X174580952Y-67727219D02*
X174485714Y-67774838D01*
X174485714Y-67774838D02*
X174438095Y-67822457D01*
X174438095Y-67822457D02*
X174390476Y-67917695D01*
X174390476Y-67917695D02*
X174390476Y-68155790D01*
X174390476Y-68155790D02*
X174438095Y-68251028D01*
X174438095Y-68251028D02*
X174485714Y-68298647D01*
X174485714Y-68298647D02*
X174580952Y-68346266D01*
X174580952Y-68346266D02*
X174771428Y-68346266D01*
X174771428Y-68346266D02*
X174866666Y-68298647D01*
X174866666Y-68298647D02*
X174914285Y-68251028D01*
X174914285Y-68251028D02*
X174961904Y-68155790D01*
X157441666Y-87627219D02*
X157441666Y-88341504D01*
X157441666Y-88341504D02*
X157394047Y-88484361D01*
X157394047Y-88484361D02*
X157298809Y-88579600D01*
X157298809Y-88579600D02*
X157155952Y-88627219D01*
X157155952Y-88627219D02*
X157060714Y-88627219D01*
X157870238Y-87722457D02*
X157917857Y-87674838D01*
X157917857Y-87674838D02*
X158013095Y-87627219D01*
X158013095Y-87627219D02*
X158251190Y-87627219D01*
X158251190Y-87627219D02*
X158346428Y-87674838D01*
X158346428Y-87674838D02*
X158394047Y-87722457D01*
X158394047Y-87722457D02*
X158441666Y-87817695D01*
X158441666Y-87817695D02*
X158441666Y-87912933D01*
X158441666Y-87912933D02*
X158394047Y-88055790D01*
X158394047Y-88055790D02*
X157822619Y-88627219D01*
X157822619Y-88627219D02*
X158441666Y-88627219D01*
X163213095Y-73877219D02*
X163213095Y-74686742D01*
X163213095Y-74686742D02*
X163260714Y-74781980D01*
X163260714Y-74781980D02*
X163308333Y-74829600D01*
X163308333Y-74829600D02*
X163403571Y-74877219D01*
X163403571Y-74877219D02*
X163594047Y-74877219D01*
X163594047Y-74877219D02*
X163689285Y-74829600D01*
X163689285Y-74829600D02*
X163736904Y-74781980D01*
X163736904Y-74781980D02*
X163784523Y-74686742D01*
X163784523Y-74686742D02*
X163784523Y-73877219D01*
X164689285Y-74210552D02*
X164689285Y-74877219D01*
X164451190Y-73829600D02*
X164213095Y-74543885D01*
X164213095Y-74543885D02*
X164832142Y-74543885D01*
X173582142Y-93531980D02*
X173534523Y-93579600D01*
X173534523Y-93579600D02*
X173391666Y-93627219D01*
X173391666Y-93627219D02*
X173296428Y-93627219D01*
X173296428Y-93627219D02*
X173153571Y-93579600D01*
X173153571Y-93579600D02*
X173058333Y-93484361D01*
X173058333Y-93484361D02*
X173010714Y-93389123D01*
X173010714Y-93389123D02*
X172963095Y-93198647D01*
X172963095Y-93198647D02*
X172963095Y-93055790D01*
X172963095Y-93055790D02*
X173010714Y-92865314D01*
X173010714Y-92865314D02*
X173058333Y-92770076D01*
X173058333Y-92770076D02*
X173153571Y-92674838D01*
X173153571Y-92674838D02*
X173296428Y-92627219D01*
X173296428Y-92627219D02*
X173391666Y-92627219D01*
X173391666Y-92627219D02*
X173534523Y-92674838D01*
X173534523Y-92674838D02*
X173582142Y-92722457D01*
X174534523Y-93627219D02*
X173963095Y-93627219D01*
X174248809Y-93627219D02*
X174248809Y-92627219D01*
X174248809Y-92627219D02*
X174153571Y-92770076D01*
X174153571Y-92770076D02*
X174058333Y-92865314D01*
X174058333Y-92865314D02*
X173963095Y-92912933D01*
X174867857Y-92627219D02*
X175534523Y-92627219D01*
X175534523Y-92627219D02*
X175105952Y-93627219D01*
X174038095Y-85402219D02*
X174038095Y-86211742D01*
X174038095Y-86211742D02*
X174085714Y-86306980D01*
X174085714Y-86306980D02*
X174133333Y-86354600D01*
X174133333Y-86354600D02*
X174228571Y-86402219D01*
X174228571Y-86402219D02*
X174419047Y-86402219D01*
X174419047Y-86402219D02*
X174514285Y-86354600D01*
X174514285Y-86354600D02*
X174561904Y-86306980D01*
X174561904Y-86306980D02*
X174609523Y-86211742D01*
X174609523Y-86211742D02*
X174609523Y-85402219D01*
X174990476Y-85402219D02*
X175609523Y-85402219D01*
X175609523Y-85402219D02*
X175276190Y-85783171D01*
X175276190Y-85783171D02*
X175419047Y-85783171D01*
X175419047Y-85783171D02*
X175514285Y-85830790D01*
X175514285Y-85830790D02*
X175561904Y-85878409D01*
X175561904Y-85878409D02*
X175609523Y-85973647D01*
X175609523Y-85973647D02*
X175609523Y-86211742D01*
X175609523Y-86211742D02*
X175561904Y-86306980D01*
X175561904Y-86306980D02*
X175514285Y-86354600D01*
X175514285Y-86354600D02*
X175419047Y-86402219D01*
X175419047Y-86402219D02*
X175133333Y-86402219D01*
X175133333Y-86402219D02*
X175038095Y-86354600D01*
X175038095Y-86354600D02*
X174990476Y-86306980D01*
X177916666Y-67377218D02*
X177916666Y-68091503D01*
X177916666Y-68091503D02*
X177869047Y-68234360D01*
X177869047Y-68234360D02*
X177773809Y-68329599D01*
X177773809Y-68329599D02*
X177630952Y-68377218D01*
X177630952Y-68377218D02*
X177535714Y-68377218D01*
X178821428Y-67710551D02*
X178821428Y-68377218D01*
X178583333Y-67329599D02*
X178345238Y-68043884D01*
X178345238Y-68043884D02*
X178964285Y-68043884D01*
X209065476Y-83377219D02*
X209065476Y-84091504D01*
X209065476Y-84091504D02*
X209017857Y-84234361D01*
X209017857Y-84234361D02*
X208922619Y-84329600D01*
X208922619Y-84329600D02*
X208779762Y-84377219D01*
X208779762Y-84377219D02*
X208684524Y-84377219D01*
X210065476Y-84377219D02*
X209494048Y-84377219D01*
X209779762Y-84377219D02*
X209779762Y-83377219D01*
X209779762Y-83377219D02*
X209684524Y-83520076D01*
X209684524Y-83520076D02*
X209589286Y-83615314D01*
X209589286Y-83615314D02*
X209494048Y-83662933D01*
X210922619Y-83710552D02*
X210922619Y-84377219D01*
X210684524Y-83329600D02*
X210446429Y-84043885D01*
X210446429Y-84043885D02*
X211065476Y-84043885D01*
X233041666Y-85677219D02*
X233041666Y-86391504D01*
X233041666Y-86391504D02*
X232994047Y-86534361D01*
X232994047Y-86534361D02*
X232898809Y-86629600D01*
X232898809Y-86629600D02*
X232755952Y-86677219D01*
X232755952Y-86677219D02*
X232660714Y-86677219D01*
X233422619Y-85677219D02*
X234089285Y-85677219D01*
X234089285Y-85677219D02*
X233660714Y-86677219D01*
X171108333Y-93506980D02*
X171060714Y-93554600D01*
X171060714Y-93554600D02*
X170917857Y-93602219D01*
X170917857Y-93602219D02*
X170822619Y-93602219D01*
X170822619Y-93602219D02*
X170679762Y-93554600D01*
X170679762Y-93554600D02*
X170584524Y-93459361D01*
X170584524Y-93459361D02*
X170536905Y-93364123D01*
X170536905Y-93364123D02*
X170489286Y-93173647D01*
X170489286Y-93173647D02*
X170489286Y-93030790D01*
X170489286Y-93030790D02*
X170536905Y-92840314D01*
X170536905Y-92840314D02*
X170584524Y-92745076D01*
X170584524Y-92745076D02*
X170679762Y-92649838D01*
X170679762Y-92649838D02*
X170822619Y-92602219D01*
X170822619Y-92602219D02*
X170917857Y-92602219D01*
X170917857Y-92602219D02*
X171060714Y-92649838D01*
X171060714Y-92649838D02*
X171108333Y-92697457D01*
X171965476Y-92935552D02*
X171965476Y-93602219D01*
X171727381Y-92554600D02*
X171489286Y-93268885D01*
X171489286Y-93268885D02*
X172108333Y-93268885D01*
X156466666Y-75627219D02*
X156466666Y-76341504D01*
X156466666Y-76341504D02*
X156419047Y-76484361D01*
X156419047Y-76484361D02*
X156323809Y-76579600D01*
X156323809Y-76579600D02*
X156180952Y-76627219D01*
X156180952Y-76627219D02*
X156085714Y-76627219D01*
X156847619Y-75627219D02*
X157466666Y-75627219D01*
X157466666Y-75627219D02*
X157133333Y-76008171D01*
X157133333Y-76008171D02*
X157276190Y-76008171D01*
X157276190Y-76008171D02*
X157371428Y-76055790D01*
X157371428Y-76055790D02*
X157419047Y-76103409D01*
X157419047Y-76103409D02*
X157466666Y-76198647D01*
X157466666Y-76198647D02*
X157466666Y-76436742D01*
X157466666Y-76436742D02*
X157419047Y-76531980D01*
X157419047Y-76531980D02*
X157371428Y-76579600D01*
X157371428Y-76579600D02*
X157276190Y-76627219D01*
X157276190Y-76627219D02*
X156990476Y-76627219D01*
X156990476Y-76627219D02*
X156895238Y-76579600D01*
X156895238Y-76579600D02*
X156847619Y-76531980D01*
X179032142Y-88006980D02*
X178984523Y-88054600D01*
X178984523Y-88054600D02*
X178841666Y-88102219D01*
X178841666Y-88102219D02*
X178746428Y-88102219D01*
X178746428Y-88102219D02*
X178603571Y-88054600D01*
X178603571Y-88054600D02*
X178508333Y-87959361D01*
X178508333Y-87959361D02*
X178460714Y-87864123D01*
X178460714Y-87864123D02*
X178413095Y-87673647D01*
X178413095Y-87673647D02*
X178413095Y-87530790D01*
X178413095Y-87530790D02*
X178460714Y-87340314D01*
X178460714Y-87340314D02*
X178508333Y-87245076D01*
X178508333Y-87245076D02*
X178603571Y-87149838D01*
X178603571Y-87149838D02*
X178746428Y-87102219D01*
X178746428Y-87102219D02*
X178841666Y-87102219D01*
X178841666Y-87102219D02*
X178984523Y-87149838D01*
X178984523Y-87149838D02*
X179032142Y-87197457D01*
X179984523Y-88102219D02*
X179413095Y-88102219D01*
X179698809Y-88102219D02*
X179698809Y-87102219D01*
X179698809Y-87102219D02*
X179603571Y-87245076D01*
X179603571Y-87245076D02*
X179508333Y-87340314D01*
X179508333Y-87340314D02*
X179413095Y-87387933D01*
X180841666Y-87102219D02*
X180651190Y-87102219D01*
X180651190Y-87102219D02*
X180555952Y-87149838D01*
X180555952Y-87149838D02*
X180508333Y-87197457D01*
X180508333Y-87197457D02*
X180413095Y-87340314D01*
X180413095Y-87340314D02*
X180365476Y-87530790D01*
X180365476Y-87530790D02*
X180365476Y-87911742D01*
X180365476Y-87911742D02*
X180413095Y-88006980D01*
X180413095Y-88006980D02*
X180460714Y-88054600D01*
X180460714Y-88054600D02*
X180555952Y-88102219D01*
X180555952Y-88102219D02*
X180746428Y-88102219D01*
X180746428Y-88102219D02*
X180841666Y-88054600D01*
X180841666Y-88054600D02*
X180889285Y-88006980D01*
X180889285Y-88006980D02*
X180936904Y-87911742D01*
X180936904Y-87911742D02*
X180936904Y-87673647D01*
X180936904Y-87673647D02*
X180889285Y-87578409D01*
X180889285Y-87578409D02*
X180841666Y-87530790D01*
X180841666Y-87530790D02*
X180746428Y-87483171D01*
X180746428Y-87483171D02*
X180555952Y-87483171D01*
X180555952Y-87483171D02*
X180460714Y-87530790D01*
X180460714Y-87530790D02*
X180413095Y-87578409D01*
X180413095Y-87578409D02*
X180365476Y-87673647D01*
X233841666Y-72352219D02*
X233841666Y-73066504D01*
X233841666Y-73066504D02*
X233794047Y-73209361D01*
X233794047Y-73209361D02*
X233698809Y-73304600D01*
X233698809Y-73304600D02*
X233555952Y-73352219D01*
X233555952Y-73352219D02*
X233460714Y-73352219D01*
X234841666Y-73352219D02*
X234270238Y-73352219D01*
X234555952Y-73352219D02*
X234555952Y-72352219D01*
X234555952Y-72352219D02*
X234460714Y-72495076D01*
X234460714Y-72495076D02*
X234365476Y-72590314D01*
X234365476Y-72590314D02*
X234270238Y-72637933D01*
X214740476Y-89852219D02*
X214740476Y-90566504D01*
X214740476Y-90566504D02*
X214692857Y-90709361D01*
X214692857Y-90709361D02*
X214597619Y-90804600D01*
X214597619Y-90804600D02*
X214454762Y-90852219D01*
X214454762Y-90852219D02*
X214359524Y-90852219D01*
X215740476Y-90852219D02*
X215169048Y-90852219D01*
X215454762Y-90852219D02*
X215454762Y-89852219D01*
X215454762Y-89852219D02*
X215359524Y-89995076D01*
X215359524Y-89995076D02*
X215264286Y-90090314D01*
X215264286Y-90090314D02*
X215169048Y-90137933D01*
X216597619Y-89852219D02*
X216407143Y-89852219D01*
X216407143Y-89852219D02*
X216311905Y-89899838D01*
X216311905Y-89899838D02*
X216264286Y-89947457D01*
X216264286Y-89947457D02*
X216169048Y-90090314D01*
X216169048Y-90090314D02*
X216121429Y-90280790D01*
X216121429Y-90280790D02*
X216121429Y-90661742D01*
X216121429Y-90661742D02*
X216169048Y-90756980D01*
X216169048Y-90756980D02*
X216216667Y-90804600D01*
X216216667Y-90804600D02*
X216311905Y-90852219D01*
X216311905Y-90852219D02*
X216502381Y-90852219D01*
X216502381Y-90852219D02*
X216597619Y-90804600D01*
X216597619Y-90804600D02*
X216645238Y-90756980D01*
X216645238Y-90756980D02*
X216692857Y-90661742D01*
X216692857Y-90661742D02*
X216692857Y-90423647D01*
X216692857Y-90423647D02*
X216645238Y-90328409D01*
X216645238Y-90328409D02*
X216597619Y-90280790D01*
X216597619Y-90280790D02*
X216502381Y-90233171D01*
X216502381Y-90233171D02*
X216311905Y-90233171D01*
X216311905Y-90233171D02*
X216216667Y-90280790D01*
X216216667Y-90280790D02*
X216169048Y-90328409D01*
X216169048Y-90328409D02*
X216121429Y-90423647D01*
X214840476Y-65977219D02*
X214840476Y-66691504D01*
X214840476Y-66691504D02*
X214792857Y-66834361D01*
X214792857Y-66834361D02*
X214697619Y-66929600D01*
X214697619Y-66929600D02*
X214554762Y-66977219D01*
X214554762Y-66977219D02*
X214459524Y-66977219D01*
X215840476Y-66977219D02*
X215269048Y-66977219D01*
X215554762Y-66977219D02*
X215554762Y-65977219D01*
X215554762Y-65977219D02*
X215459524Y-66120076D01*
X215459524Y-66120076D02*
X215364286Y-66215314D01*
X215364286Y-66215314D02*
X215269048Y-66262933D01*
X216411905Y-66405790D02*
X216316667Y-66358171D01*
X216316667Y-66358171D02*
X216269048Y-66310552D01*
X216269048Y-66310552D02*
X216221429Y-66215314D01*
X216221429Y-66215314D02*
X216221429Y-66167695D01*
X216221429Y-66167695D02*
X216269048Y-66072457D01*
X216269048Y-66072457D02*
X216316667Y-66024838D01*
X216316667Y-66024838D02*
X216411905Y-65977219D01*
X216411905Y-65977219D02*
X216602381Y-65977219D01*
X216602381Y-65977219D02*
X216697619Y-66024838D01*
X216697619Y-66024838D02*
X216745238Y-66072457D01*
X216745238Y-66072457D02*
X216792857Y-66167695D01*
X216792857Y-66167695D02*
X216792857Y-66215314D01*
X216792857Y-66215314D02*
X216745238Y-66310552D01*
X216745238Y-66310552D02*
X216697619Y-66358171D01*
X216697619Y-66358171D02*
X216602381Y-66405790D01*
X216602381Y-66405790D02*
X216411905Y-66405790D01*
X216411905Y-66405790D02*
X216316667Y-66453409D01*
X216316667Y-66453409D02*
X216269048Y-66501028D01*
X216269048Y-66501028D02*
X216221429Y-66596266D01*
X216221429Y-66596266D02*
X216221429Y-66786742D01*
X216221429Y-66786742D02*
X216269048Y-66881980D01*
X216269048Y-66881980D02*
X216316667Y-66929600D01*
X216316667Y-66929600D02*
X216411905Y-66977219D01*
X216411905Y-66977219D02*
X216602381Y-66977219D01*
X216602381Y-66977219D02*
X216697619Y-66929600D01*
X216697619Y-66929600D02*
X216745238Y-66881980D01*
X216745238Y-66881980D02*
X216792857Y-66786742D01*
X216792857Y-66786742D02*
X216792857Y-66596266D01*
X216792857Y-66596266D02*
X216745238Y-66501028D01*
X216745238Y-66501028D02*
X216697619Y-66453409D01*
X216697619Y-66453409D02*
X216602381Y-66405790D01*
X162757142Y-87302219D02*
X162423809Y-86826028D01*
X162185714Y-87302219D02*
X162185714Y-86302219D01*
X162185714Y-86302219D02*
X162566666Y-86302219D01*
X162566666Y-86302219D02*
X162661904Y-86349838D01*
X162661904Y-86349838D02*
X162709523Y-86397457D01*
X162709523Y-86397457D02*
X162757142Y-86492695D01*
X162757142Y-86492695D02*
X162757142Y-86635552D01*
X162757142Y-86635552D02*
X162709523Y-86730790D01*
X162709523Y-86730790D02*
X162661904Y-86778409D01*
X162661904Y-86778409D02*
X162566666Y-86826028D01*
X162566666Y-86826028D02*
X162185714Y-86826028D01*
X163709523Y-87302219D02*
X163138095Y-87302219D01*
X163423809Y-87302219D02*
X163423809Y-86302219D01*
X163423809Y-86302219D02*
X163328571Y-86445076D01*
X163328571Y-86445076D02*
X163233333Y-86540314D01*
X163233333Y-86540314D02*
X163138095Y-86587933D01*
X164566666Y-86635552D02*
X164566666Y-87302219D01*
X164328571Y-86254600D02*
X164090476Y-86968885D01*
X164090476Y-86968885D02*
X164709523Y-86968885D01*
X156533333Y-82202219D02*
X156200000Y-81726028D01*
X155961905Y-82202219D02*
X155961905Y-81202219D01*
X155961905Y-81202219D02*
X156342857Y-81202219D01*
X156342857Y-81202219D02*
X156438095Y-81249838D01*
X156438095Y-81249838D02*
X156485714Y-81297457D01*
X156485714Y-81297457D02*
X156533333Y-81392695D01*
X156533333Y-81392695D02*
X156533333Y-81535552D01*
X156533333Y-81535552D02*
X156485714Y-81630790D01*
X156485714Y-81630790D02*
X156438095Y-81678409D01*
X156438095Y-81678409D02*
X156342857Y-81726028D01*
X156342857Y-81726028D02*
X155961905Y-81726028D01*
X157009524Y-82202219D02*
X157200000Y-82202219D01*
X157200000Y-82202219D02*
X157295238Y-82154600D01*
X157295238Y-82154600D02*
X157342857Y-82106980D01*
X157342857Y-82106980D02*
X157438095Y-81964123D01*
X157438095Y-81964123D02*
X157485714Y-81773647D01*
X157485714Y-81773647D02*
X157485714Y-81392695D01*
X157485714Y-81392695D02*
X157438095Y-81297457D01*
X157438095Y-81297457D02*
X157390476Y-81249838D01*
X157390476Y-81249838D02*
X157295238Y-81202219D01*
X157295238Y-81202219D02*
X157104762Y-81202219D01*
X157104762Y-81202219D02*
X157009524Y-81249838D01*
X157009524Y-81249838D02*
X156961905Y-81297457D01*
X156961905Y-81297457D02*
X156914286Y-81392695D01*
X156914286Y-81392695D02*
X156914286Y-81630790D01*
X156914286Y-81630790D02*
X156961905Y-81726028D01*
X156961905Y-81726028D02*
X157009524Y-81773647D01*
X157009524Y-81773647D02*
X157104762Y-81821266D01*
X157104762Y-81821266D02*
X157295238Y-81821266D01*
X157295238Y-81821266D02*
X157390476Y-81773647D01*
X157390476Y-81773647D02*
X157438095Y-81726028D01*
X157438095Y-81726028D02*
X157485714Y-81630790D01*
X208990476Y-72277219D02*
X208990476Y-72991504D01*
X208990476Y-72991504D02*
X208942857Y-73134361D01*
X208942857Y-73134361D02*
X208847619Y-73229600D01*
X208847619Y-73229600D02*
X208704762Y-73277219D01*
X208704762Y-73277219D02*
X208609524Y-73277219D01*
X209990476Y-73277219D02*
X209419048Y-73277219D01*
X209704762Y-73277219D02*
X209704762Y-72277219D01*
X209704762Y-72277219D02*
X209609524Y-72420076D01*
X209609524Y-72420076D02*
X209514286Y-72515314D01*
X209514286Y-72515314D02*
X209419048Y-72562933D01*
X210323810Y-72277219D02*
X210942857Y-72277219D01*
X210942857Y-72277219D02*
X210609524Y-72658171D01*
X210609524Y-72658171D02*
X210752381Y-72658171D01*
X210752381Y-72658171D02*
X210847619Y-72705790D01*
X210847619Y-72705790D02*
X210895238Y-72753409D01*
X210895238Y-72753409D02*
X210942857Y-72848647D01*
X210942857Y-72848647D02*
X210942857Y-73086742D01*
X210942857Y-73086742D02*
X210895238Y-73181980D01*
X210895238Y-73181980D02*
X210847619Y-73229600D01*
X210847619Y-73229600D02*
X210752381Y-73277219D01*
X210752381Y-73277219D02*
X210466667Y-73277219D01*
X210466667Y-73277219D02*
X210371429Y-73229600D01*
X210371429Y-73229600D02*
X210323810Y-73181980D01*
X209916666Y-70402219D02*
X209916666Y-71116504D01*
X209916666Y-71116504D02*
X209869047Y-71259361D01*
X209869047Y-71259361D02*
X209773809Y-71354600D01*
X209773809Y-71354600D02*
X209630952Y-71402219D01*
X209630952Y-71402219D02*
X209535714Y-71402219D01*
X210535714Y-70830790D02*
X210440476Y-70783171D01*
X210440476Y-70783171D02*
X210392857Y-70735552D01*
X210392857Y-70735552D02*
X210345238Y-70640314D01*
X210345238Y-70640314D02*
X210345238Y-70592695D01*
X210345238Y-70592695D02*
X210392857Y-70497457D01*
X210392857Y-70497457D02*
X210440476Y-70449838D01*
X210440476Y-70449838D02*
X210535714Y-70402219D01*
X210535714Y-70402219D02*
X210726190Y-70402219D01*
X210726190Y-70402219D02*
X210821428Y-70449838D01*
X210821428Y-70449838D02*
X210869047Y-70497457D01*
X210869047Y-70497457D02*
X210916666Y-70592695D01*
X210916666Y-70592695D02*
X210916666Y-70640314D01*
X210916666Y-70640314D02*
X210869047Y-70735552D01*
X210869047Y-70735552D02*
X210821428Y-70783171D01*
X210821428Y-70783171D02*
X210726190Y-70830790D01*
X210726190Y-70830790D02*
X210535714Y-70830790D01*
X210535714Y-70830790D02*
X210440476Y-70878409D01*
X210440476Y-70878409D02*
X210392857Y-70926028D01*
X210392857Y-70926028D02*
X210345238Y-71021266D01*
X210345238Y-71021266D02*
X210345238Y-71211742D01*
X210345238Y-71211742D02*
X210392857Y-71306980D01*
X210392857Y-71306980D02*
X210440476Y-71354600D01*
X210440476Y-71354600D02*
X210535714Y-71402219D01*
X210535714Y-71402219D02*
X210726190Y-71402219D01*
X210726190Y-71402219D02*
X210821428Y-71354600D01*
X210821428Y-71354600D02*
X210869047Y-71306980D01*
X210869047Y-71306980D02*
X210916666Y-71211742D01*
X210916666Y-71211742D02*
X210916666Y-71021266D01*
X210916666Y-71021266D02*
X210869047Y-70926028D01*
X210869047Y-70926028D02*
X210821428Y-70878409D01*
X210821428Y-70878409D02*
X210726190Y-70830790D01*
X161893019Y-88733333D02*
X161845400Y-88685714D01*
X161845400Y-88685714D02*
X161797780Y-88542857D01*
X161797780Y-88542857D02*
X161797780Y-88447619D01*
X161797780Y-88447619D02*
X161845400Y-88304762D01*
X161845400Y-88304762D02*
X161940638Y-88209524D01*
X161940638Y-88209524D02*
X162035876Y-88161905D01*
X162035876Y-88161905D02*
X162226352Y-88114286D01*
X162226352Y-88114286D02*
X162369209Y-88114286D01*
X162369209Y-88114286D02*
X162559685Y-88161905D01*
X162559685Y-88161905D02*
X162654923Y-88209524D01*
X162654923Y-88209524D02*
X162750161Y-88304762D01*
X162750161Y-88304762D02*
X162797780Y-88447619D01*
X162797780Y-88447619D02*
X162797780Y-88542857D01*
X162797780Y-88542857D02*
X162750161Y-88685714D01*
X162750161Y-88685714D02*
X162702542Y-88733333D01*
X162797780Y-89066667D02*
X162797780Y-89685714D01*
X162797780Y-89685714D02*
X162416828Y-89352381D01*
X162416828Y-89352381D02*
X162416828Y-89495238D01*
X162416828Y-89495238D02*
X162369209Y-89590476D01*
X162369209Y-89590476D02*
X162321590Y-89638095D01*
X162321590Y-89638095D02*
X162226352Y-89685714D01*
X162226352Y-89685714D02*
X161988257Y-89685714D01*
X161988257Y-89685714D02*
X161893019Y-89638095D01*
X161893019Y-89638095D02*
X161845400Y-89590476D01*
X161845400Y-89590476D02*
X161797780Y-89495238D01*
X161797780Y-89495238D02*
X161797780Y-89209524D01*
X161797780Y-89209524D02*
X161845400Y-89114286D01*
X161845400Y-89114286D02*
X161893019Y-89066667D01*
X227340476Y-65702219D02*
X227340476Y-66416504D01*
X227340476Y-66416504D02*
X227292857Y-66559361D01*
X227292857Y-66559361D02*
X227197619Y-66654600D01*
X227197619Y-66654600D02*
X227054762Y-66702219D01*
X227054762Y-66702219D02*
X226959524Y-66702219D01*
X228340476Y-66702219D02*
X227769048Y-66702219D01*
X228054762Y-66702219D02*
X228054762Y-65702219D01*
X228054762Y-65702219D02*
X227959524Y-65845076D01*
X227959524Y-65845076D02*
X227864286Y-65940314D01*
X227864286Y-65940314D02*
X227769048Y-65987933D01*
X228673810Y-65702219D02*
X229340476Y-65702219D01*
X229340476Y-65702219D02*
X228911905Y-66702219D01*
X180483333Y-72477219D02*
X180150000Y-72001028D01*
X179911905Y-72477219D02*
X179911905Y-71477219D01*
X179911905Y-71477219D02*
X180292857Y-71477219D01*
X180292857Y-71477219D02*
X180388095Y-71524838D01*
X180388095Y-71524838D02*
X180435714Y-71572457D01*
X180435714Y-71572457D02*
X180483333Y-71667695D01*
X180483333Y-71667695D02*
X180483333Y-71810552D01*
X180483333Y-71810552D02*
X180435714Y-71905790D01*
X180435714Y-71905790D02*
X180388095Y-71953409D01*
X180388095Y-71953409D02*
X180292857Y-72001028D01*
X180292857Y-72001028D02*
X179911905Y-72001028D01*
X181435714Y-72477219D02*
X180864286Y-72477219D01*
X181150000Y-72477219D02*
X181150000Y-71477219D01*
X181150000Y-71477219D02*
X181054762Y-71620076D01*
X181054762Y-71620076D02*
X180959524Y-71715314D01*
X180959524Y-71715314D02*
X180864286Y-71762933D01*
X175863095Y-75052219D02*
X175863095Y-75861742D01*
X175863095Y-75861742D02*
X175910714Y-75956980D01*
X175910714Y-75956980D02*
X175958333Y-76004600D01*
X175958333Y-76004600D02*
X176053571Y-76052219D01*
X176053571Y-76052219D02*
X176244047Y-76052219D01*
X176244047Y-76052219D02*
X176339285Y-76004600D01*
X176339285Y-76004600D02*
X176386904Y-75956980D01*
X176386904Y-75956980D02*
X176434523Y-75861742D01*
X176434523Y-75861742D02*
X176434523Y-75052219D01*
X177386904Y-75052219D02*
X176910714Y-75052219D01*
X176910714Y-75052219D02*
X176863095Y-75528409D01*
X176863095Y-75528409D02*
X176910714Y-75480790D01*
X176910714Y-75480790D02*
X177005952Y-75433171D01*
X177005952Y-75433171D02*
X177244047Y-75433171D01*
X177244047Y-75433171D02*
X177339285Y-75480790D01*
X177339285Y-75480790D02*
X177386904Y-75528409D01*
X177386904Y-75528409D02*
X177434523Y-75623647D01*
X177434523Y-75623647D02*
X177434523Y-75861742D01*
X177434523Y-75861742D02*
X177386904Y-75956980D01*
X177386904Y-75956980D02*
X177339285Y-76004600D01*
X177339285Y-76004600D02*
X177244047Y-76052219D01*
X177244047Y-76052219D02*
X177005952Y-76052219D01*
X177005952Y-76052219D02*
X176910714Y-76004600D01*
X176910714Y-76004600D02*
X176863095Y-75956980D01*
X154941667Y-79379600D02*
X155084524Y-79427219D01*
X155084524Y-79427219D02*
X155322619Y-79427219D01*
X155322619Y-79427219D02*
X155417857Y-79379600D01*
X155417857Y-79379600D02*
X155465476Y-79331980D01*
X155465476Y-79331980D02*
X155513095Y-79236742D01*
X155513095Y-79236742D02*
X155513095Y-79141504D01*
X155513095Y-79141504D02*
X155465476Y-79046266D01*
X155465476Y-79046266D02*
X155417857Y-78998647D01*
X155417857Y-78998647D02*
X155322619Y-78951028D01*
X155322619Y-78951028D02*
X155132143Y-78903409D01*
X155132143Y-78903409D02*
X155036905Y-78855790D01*
X155036905Y-78855790D02*
X154989286Y-78808171D01*
X154989286Y-78808171D02*
X154941667Y-78712933D01*
X154941667Y-78712933D02*
X154941667Y-78617695D01*
X154941667Y-78617695D02*
X154989286Y-78522457D01*
X154989286Y-78522457D02*
X155036905Y-78474838D01*
X155036905Y-78474838D02*
X155132143Y-78427219D01*
X155132143Y-78427219D02*
X155370238Y-78427219D01*
X155370238Y-78427219D02*
X155513095Y-78474838D01*
X155846429Y-78427219D02*
X156084524Y-79427219D01*
X156084524Y-79427219D02*
X156275000Y-78712933D01*
X156275000Y-78712933D02*
X156465476Y-79427219D01*
X156465476Y-79427219D02*
X156703572Y-78427219D01*
X157036905Y-78522457D02*
X157084524Y-78474838D01*
X157084524Y-78474838D02*
X157179762Y-78427219D01*
X157179762Y-78427219D02*
X157417857Y-78427219D01*
X157417857Y-78427219D02*
X157513095Y-78474838D01*
X157513095Y-78474838D02*
X157560714Y-78522457D01*
X157560714Y-78522457D02*
X157608333Y-78617695D01*
X157608333Y-78617695D02*
X157608333Y-78712933D01*
X157608333Y-78712933D02*
X157560714Y-78855790D01*
X157560714Y-78855790D02*
X156989286Y-79427219D01*
X156989286Y-79427219D02*
X157608333Y-79427219D01*
X227640476Y-89952219D02*
X227640476Y-90666504D01*
X227640476Y-90666504D02*
X227592857Y-90809361D01*
X227592857Y-90809361D02*
X227497619Y-90904600D01*
X227497619Y-90904600D02*
X227354762Y-90952219D01*
X227354762Y-90952219D02*
X227259524Y-90952219D01*
X228640476Y-90952219D02*
X228069048Y-90952219D01*
X228354762Y-90952219D02*
X228354762Y-89952219D01*
X228354762Y-89952219D02*
X228259524Y-90095076D01*
X228259524Y-90095076D02*
X228164286Y-90190314D01*
X228164286Y-90190314D02*
X228069048Y-90237933D01*
X229545238Y-89952219D02*
X229069048Y-89952219D01*
X229069048Y-89952219D02*
X229021429Y-90428409D01*
X229021429Y-90428409D02*
X229069048Y-90380790D01*
X229069048Y-90380790D02*
X229164286Y-90333171D01*
X229164286Y-90333171D02*
X229402381Y-90333171D01*
X229402381Y-90333171D02*
X229497619Y-90380790D01*
X229497619Y-90380790D02*
X229545238Y-90428409D01*
X229545238Y-90428409D02*
X229592857Y-90523647D01*
X229592857Y-90523647D02*
X229592857Y-90761742D01*
X229592857Y-90761742D02*
X229545238Y-90856980D01*
X229545238Y-90856980D02*
X229497619Y-90904600D01*
X229497619Y-90904600D02*
X229402381Y-90952219D01*
X229402381Y-90952219D02*
X229164286Y-90952219D01*
X229164286Y-90952219D02*
X229069048Y-90904600D01*
X229069048Y-90904600D02*
X229021429Y-90856980D01*
X162682142Y-85627219D02*
X162348809Y-85151028D01*
X162110714Y-85627219D02*
X162110714Y-84627219D01*
X162110714Y-84627219D02*
X162491666Y-84627219D01*
X162491666Y-84627219D02*
X162586904Y-84674838D01*
X162586904Y-84674838D02*
X162634523Y-84722457D01*
X162634523Y-84722457D02*
X162682142Y-84817695D01*
X162682142Y-84817695D02*
X162682142Y-84960552D01*
X162682142Y-84960552D02*
X162634523Y-85055790D01*
X162634523Y-85055790D02*
X162586904Y-85103409D01*
X162586904Y-85103409D02*
X162491666Y-85151028D01*
X162491666Y-85151028D02*
X162110714Y-85151028D01*
X163634523Y-85627219D02*
X163063095Y-85627219D01*
X163348809Y-85627219D02*
X163348809Y-84627219D01*
X163348809Y-84627219D02*
X163253571Y-84770076D01*
X163253571Y-84770076D02*
X163158333Y-84865314D01*
X163158333Y-84865314D02*
X163063095Y-84912933D01*
X164539285Y-84627219D02*
X164063095Y-84627219D01*
X164063095Y-84627219D02*
X164015476Y-85103409D01*
X164015476Y-85103409D02*
X164063095Y-85055790D01*
X164063095Y-85055790D02*
X164158333Y-85008171D01*
X164158333Y-85008171D02*
X164396428Y-85008171D01*
X164396428Y-85008171D02*
X164491666Y-85055790D01*
X164491666Y-85055790D02*
X164539285Y-85103409D01*
X164539285Y-85103409D02*
X164586904Y-85198647D01*
X164586904Y-85198647D02*
X164586904Y-85436742D01*
X164586904Y-85436742D02*
X164539285Y-85531980D01*
X164539285Y-85531980D02*
X164491666Y-85579600D01*
X164491666Y-85579600D02*
X164396428Y-85627219D01*
X164396428Y-85627219D02*
X164158333Y-85627219D01*
X164158333Y-85627219D02*
X164063095Y-85579600D01*
X164063095Y-85579600D02*
X164015476Y-85531980D01*
X169457142Y-66056980D02*
X169409523Y-66104600D01*
X169409523Y-66104600D02*
X169266666Y-66152219D01*
X169266666Y-66152219D02*
X169171428Y-66152219D01*
X169171428Y-66152219D02*
X169028571Y-66104600D01*
X169028571Y-66104600D02*
X168933333Y-66009361D01*
X168933333Y-66009361D02*
X168885714Y-65914123D01*
X168885714Y-65914123D02*
X168838095Y-65723647D01*
X168838095Y-65723647D02*
X168838095Y-65580790D01*
X168838095Y-65580790D02*
X168885714Y-65390314D01*
X168885714Y-65390314D02*
X168933333Y-65295076D01*
X168933333Y-65295076D02*
X169028571Y-65199838D01*
X169028571Y-65199838D02*
X169171428Y-65152219D01*
X169171428Y-65152219D02*
X169266666Y-65152219D01*
X169266666Y-65152219D02*
X169409523Y-65199838D01*
X169409523Y-65199838D02*
X169457142Y-65247457D01*
X169838095Y-65247457D02*
X169885714Y-65199838D01*
X169885714Y-65199838D02*
X169980952Y-65152219D01*
X169980952Y-65152219D02*
X170219047Y-65152219D01*
X170219047Y-65152219D02*
X170314285Y-65199838D01*
X170314285Y-65199838D02*
X170361904Y-65247457D01*
X170361904Y-65247457D02*
X170409523Y-65342695D01*
X170409523Y-65342695D02*
X170409523Y-65437933D01*
X170409523Y-65437933D02*
X170361904Y-65580790D01*
X170361904Y-65580790D02*
X169790476Y-66152219D01*
X169790476Y-66152219D02*
X170409523Y-66152219D01*
X171028571Y-65152219D02*
X171123809Y-65152219D01*
X171123809Y-65152219D02*
X171219047Y-65199838D01*
X171219047Y-65199838D02*
X171266666Y-65247457D01*
X171266666Y-65247457D02*
X171314285Y-65342695D01*
X171314285Y-65342695D02*
X171361904Y-65533171D01*
X171361904Y-65533171D02*
X171361904Y-65771266D01*
X171361904Y-65771266D02*
X171314285Y-65961742D01*
X171314285Y-65961742D02*
X171266666Y-66056980D01*
X171266666Y-66056980D02*
X171219047Y-66104600D01*
X171219047Y-66104600D02*
X171123809Y-66152219D01*
X171123809Y-66152219D02*
X171028571Y-66152219D01*
X171028571Y-66152219D02*
X170933333Y-66104600D01*
X170933333Y-66104600D02*
X170885714Y-66056980D01*
X170885714Y-66056980D02*
X170838095Y-65961742D01*
X170838095Y-65961742D02*
X170790476Y-65771266D01*
X170790476Y-65771266D02*
X170790476Y-65533171D01*
X170790476Y-65533171D02*
X170838095Y-65342695D01*
X170838095Y-65342695D02*
X170885714Y-65247457D01*
X170885714Y-65247457D02*
X170933333Y-65199838D01*
X170933333Y-65199838D02*
X171028571Y-65152219D01*
X209966666Y-85202219D02*
X209966666Y-85916504D01*
X209966666Y-85916504D02*
X209919047Y-86059361D01*
X209919047Y-86059361D02*
X209823809Y-86154600D01*
X209823809Y-86154600D02*
X209680952Y-86202219D01*
X209680952Y-86202219D02*
X209585714Y-86202219D01*
X210490476Y-86202219D02*
X210680952Y-86202219D01*
X210680952Y-86202219D02*
X210776190Y-86154600D01*
X210776190Y-86154600D02*
X210823809Y-86106980D01*
X210823809Y-86106980D02*
X210919047Y-85964123D01*
X210919047Y-85964123D02*
X210966666Y-85773647D01*
X210966666Y-85773647D02*
X210966666Y-85392695D01*
X210966666Y-85392695D02*
X210919047Y-85297457D01*
X210919047Y-85297457D02*
X210871428Y-85249838D01*
X210871428Y-85249838D02*
X210776190Y-85202219D01*
X210776190Y-85202219D02*
X210585714Y-85202219D01*
X210585714Y-85202219D02*
X210490476Y-85249838D01*
X210490476Y-85249838D02*
X210442857Y-85297457D01*
X210442857Y-85297457D02*
X210395238Y-85392695D01*
X210395238Y-85392695D02*
X210395238Y-85630790D01*
X210395238Y-85630790D02*
X210442857Y-85726028D01*
X210442857Y-85726028D02*
X210490476Y-85773647D01*
X210490476Y-85773647D02*
X210585714Y-85821266D01*
X210585714Y-85821266D02*
X210776190Y-85821266D01*
X210776190Y-85821266D02*
X210871428Y-85773647D01*
X210871428Y-85773647D02*
X210919047Y-85726028D01*
X210919047Y-85726028D02*
X210966666Y-85630790D01*
X156916666Y-71477219D02*
X156916666Y-72191504D01*
X156916666Y-72191504D02*
X156869047Y-72334361D01*
X156869047Y-72334361D02*
X156773809Y-72429600D01*
X156773809Y-72429600D02*
X156630952Y-72477219D01*
X156630952Y-72477219D02*
X156535714Y-72477219D01*
X157821428Y-71477219D02*
X157630952Y-71477219D01*
X157630952Y-71477219D02*
X157535714Y-71524838D01*
X157535714Y-71524838D02*
X157488095Y-71572457D01*
X157488095Y-71572457D02*
X157392857Y-71715314D01*
X157392857Y-71715314D02*
X157345238Y-71905790D01*
X157345238Y-71905790D02*
X157345238Y-72286742D01*
X157345238Y-72286742D02*
X157392857Y-72381980D01*
X157392857Y-72381980D02*
X157440476Y-72429600D01*
X157440476Y-72429600D02*
X157535714Y-72477219D01*
X157535714Y-72477219D02*
X157726190Y-72477219D01*
X157726190Y-72477219D02*
X157821428Y-72429600D01*
X157821428Y-72429600D02*
X157869047Y-72381980D01*
X157869047Y-72381980D02*
X157916666Y-72286742D01*
X157916666Y-72286742D02*
X157916666Y-72048647D01*
X157916666Y-72048647D02*
X157869047Y-71953409D01*
X157869047Y-71953409D02*
X157821428Y-71905790D01*
X157821428Y-71905790D02*
X157726190Y-71858171D01*
X157726190Y-71858171D02*
X157535714Y-71858171D01*
X157535714Y-71858171D02*
X157440476Y-71905790D01*
X157440476Y-71905790D02*
X157392857Y-71953409D01*
X157392857Y-71953409D02*
X157345238Y-72048647D01*
X170132142Y-68581980D02*
X170084523Y-68629600D01*
X170084523Y-68629600D02*
X169941666Y-68677219D01*
X169941666Y-68677219D02*
X169846428Y-68677219D01*
X169846428Y-68677219D02*
X169703571Y-68629600D01*
X169703571Y-68629600D02*
X169608333Y-68534361D01*
X169608333Y-68534361D02*
X169560714Y-68439123D01*
X169560714Y-68439123D02*
X169513095Y-68248647D01*
X169513095Y-68248647D02*
X169513095Y-68105790D01*
X169513095Y-68105790D02*
X169560714Y-67915314D01*
X169560714Y-67915314D02*
X169608333Y-67820076D01*
X169608333Y-67820076D02*
X169703571Y-67724838D01*
X169703571Y-67724838D02*
X169846428Y-67677219D01*
X169846428Y-67677219D02*
X169941666Y-67677219D01*
X169941666Y-67677219D02*
X170084523Y-67724838D01*
X170084523Y-67724838D02*
X170132142Y-67772457D01*
X171084523Y-68677219D02*
X170513095Y-68677219D01*
X170798809Y-68677219D02*
X170798809Y-67677219D01*
X170798809Y-67677219D02*
X170703571Y-67820076D01*
X170703571Y-67820076D02*
X170608333Y-67915314D01*
X170608333Y-67915314D02*
X170513095Y-67962933D01*
X171655952Y-68105790D02*
X171560714Y-68058171D01*
X171560714Y-68058171D02*
X171513095Y-68010552D01*
X171513095Y-68010552D02*
X171465476Y-67915314D01*
X171465476Y-67915314D02*
X171465476Y-67867695D01*
X171465476Y-67867695D02*
X171513095Y-67772457D01*
X171513095Y-67772457D02*
X171560714Y-67724838D01*
X171560714Y-67724838D02*
X171655952Y-67677219D01*
X171655952Y-67677219D02*
X171846428Y-67677219D01*
X171846428Y-67677219D02*
X171941666Y-67724838D01*
X171941666Y-67724838D02*
X171989285Y-67772457D01*
X171989285Y-67772457D02*
X172036904Y-67867695D01*
X172036904Y-67867695D02*
X172036904Y-67915314D01*
X172036904Y-67915314D02*
X171989285Y-68010552D01*
X171989285Y-68010552D02*
X171941666Y-68058171D01*
X171941666Y-68058171D02*
X171846428Y-68105790D01*
X171846428Y-68105790D02*
X171655952Y-68105790D01*
X171655952Y-68105790D02*
X171560714Y-68153409D01*
X171560714Y-68153409D02*
X171513095Y-68201028D01*
X171513095Y-68201028D02*
X171465476Y-68296266D01*
X171465476Y-68296266D02*
X171465476Y-68486742D01*
X171465476Y-68486742D02*
X171513095Y-68581980D01*
X171513095Y-68581980D02*
X171560714Y-68629600D01*
X171560714Y-68629600D02*
X171655952Y-68677219D01*
X171655952Y-68677219D02*
X171846428Y-68677219D01*
X171846428Y-68677219D02*
X171941666Y-68629600D01*
X171941666Y-68629600D02*
X171989285Y-68581980D01*
X171989285Y-68581980D02*
X172036904Y-68486742D01*
X172036904Y-68486742D02*
X172036904Y-68296266D01*
X172036904Y-68296266D02*
X171989285Y-68201028D01*
X171989285Y-68201028D02*
X171941666Y-68153409D01*
X171941666Y-68153409D02*
X171846428Y-68105790D01*
X181616666Y-88127219D02*
X181616666Y-88841504D01*
X181616666Y-88841504D02*
X181569047Y-88984361D01*
X181569047Y-88984361D02*
X181473809Y-89079600D01*
X181473809Y-89079600D02*
X181330952Y-89127219D01*
X181330952Y-89127219D02*
X181235714Y-89127219D01*
X182569047Y-88127219D02*
X182092857Y-88127219D01*
X182092857Y-88127219D02*
X182045238Y-88603409D01*
X182045238Y-88603409D02*
X182092857Y-88555790D01*
X182092857Y-88555790D02*
X182188095Y-88508171D01*
X182188095Y-88508171D02*
X182426190Y-88508171D01*
X182426190Y-88508171D02*
X182521428Y-88555790D01*
X182521428Y-88555790D02*
X182569047Y-88603409D01*
X182569047Y-88603409D02*
X182616666Y-88698647D01*
X182616666Y-88698647D02*
X182616666Y-88936742D01*
X182616666Y-88936742D02*
X182569047Y-89031980D01*
X182569047Y-89031980D02*
X182521428Y-89079600D01*
X182521428Y-89079600D02*
X182426190Y-89127219D01*
X182426190Y-89127219D02*
X182188095Y-89127219D01*
X182188095Y-89127219D02*
X182092857Y-89079600D01*
X182092857Y-89079600D02*
X182045238Y-89031980D01*
X181590476Y-85427219D02*
X181590476Y-86141504D01*
X181590476Y-86141504D02*
X181542857Y-86284361D01*
X181542857Y-86284361D02*
X181447619Y-86379600D01*
X181447619Y-86379600D02*
X181304762Y-86427219D01*
X181304762Y-86427219D02*
X181209524Y-86427219D01*
X182590476Y-86427219D02*
X182019048Y-86427219D01*
X182304762Y-86427219D02*
X182304762Y-85427219D01*
X182304762Y-85427219D02*
X182209524Y-85570076D01*
X182209524Y-85570076D02*
X182114286Y-85665314D01*
X182114286Y-85665314D02*
X182019048Y-85712933D01*
X183542857Y-86427219D02*
X182971429Y-86427219D01*
X183257143Y-86427219D02*
X183257143Y-85427219D01*
X183257143Y-85427219D02*
X183161905Y-85570076D01*
X183161905Y-85570076D02*
X183066667Y-85665314D01*
X183066667Y-85665314D02*
X182971429Y-85712933D01*
X178483333Y-86477219D02*
X178150000Y-86001028D01*
X177911905Y-86477219D02*
X177911905Y-85477219D01*
X177911905Y-85477219D02*
X178292857Y-85477219D01*
X178292857Y-85477219D02*
X178388095Y-85524838D01*
X178388095Y-85524838D02*
X178435714Y-85572457D01*
X178435714Y-85572457D02*
X178483333Y-85667695D01*
X178483333Y-85667695D02*
X178483333Y-85810552D01*
X178483333Y-85810552D02*
X178435714Y-85905790D01*
X178435714Y-85905790D02*
X178388095Y-85953409D01*
X178388095Y-85953409D02*
X178292857Y-86001028D01*
X178292857Y-86001028D02*
X177911905Y-86001028D01*
X178864286Y-85572457D02*
X178911905Y-85524838D01*
X178911905Y-85524838D02*
X179007143Y-85477219D01*
X179007143Y-85477219D02*
X179245238Y-85477219D01*
X179245238Y-85477219D02*
X179340476Y-85524838D01*
X179340476Y-85524838D02*
X179388095Y-85572457D01*
X179388095Y-85572457D02*
X179435714Y-85667695D01*
X179435714Y-85667695D02*
X179435714Y-85762933D01*
X179435714Y-85762933D02*
X179388095Y-85905790D01*
X179388095Y-85905790D02*
X178816667Y-86477219D01*
X178816667Y-86477219D02*
X179435714Y-86477219D01*
X175332142Y-67402219D02*
X174998809Y-66926028D01*
X174760714Y-67402219D02*
X174760714Y-66402219D01*
X174760714Y-66402219D02*
X175141666Y-66402219D01*
X175141666Y-66402219D02*
X175236904Y-66449838D01*
X175236904Y-66449838D02*
X175284523Y-66497457D01*
X175284523Y-66497457D02*
X175332142Y-66592695D01*
X175332142Y-66592695D02*
X175332142Y-66735552D01*
X175332142Y-66735552D02*
X175284523Y-66830790D01*
X175284523Y-66830790D02*
X175236904Y-66878409D01*
X175236904Y-66878409D02*
X175141666Y-66926028D01*
X175141666Y-66926028D02*
X174760714Y-66926028D01*
X176284523Y-67402219D02*
X175713095Y-67402219D01*
X175998809Y-67402219D02*
X175998809Y-66402219D01*
X175998809Y-66402219D02*
X175903571Y-66545076D01*
X175903571Y-66545076D02*
X175808333Y-66640314D01*
X175808333Y-66640314D02*
X175713095Y-66687933D01*
X176903571Y-66402219D02*
X176998809Y-66402219D01*
X176998809Y-66402219D02*
X177094047Y-66449838D01*
X177094047Y-66449838D02*
X177141666Y-66497457D01*
X177141666Y-66497457D02*
X177189285Y-66592695D01*
X177189285Y-66592695D02*
X177236904Y-66783171D01*
X177236904Y-66783171D02*
X177236904Y-67021266D01*
X177236904Y-67021266D02*
X177189285Y-67211742D01*
X177189285Y-67211742D02*
X177141666Y-67306980D01*
X177141666Y-67306980D02*
X177094047Y-67354600D01*
X177094047Y-67354600D02*
X176998809Y-67402219D01*
X176998809Y-67402219D02*
X176903571Y-67402219D01*
X176903571Y-67402219D02*
X176808333Y-67354600D01*
X176808333Y-67354600D02*
X176760714Y-67306980D01*
X176760714Y-67306980D02*
X176713095Y-67211742D01*
X176713095Y-67211742D02*
X176665476Y-67021266D01*
X176665476Y-67021266D02*
X176665476Y-66783171D01*
X176665476Y-66783171D02*
X176713095Y-66592695D01*
X176713095Y-66592695D02*
X176760714Y-66497457D01*
X176760714Y-66497457D02*
X176808333Y-66449838D01*
X176808333Y-66449838D02*
X176903571Y-66402219D01*
%TO.C,J12*%
X234197136Y-81207136D02*
X234892136Y-81207136D01*
X234197136Y-81892136D02*
X234197136Y-81207136D01*
X234197136Y-82577136D02*
X234197136Y-82452136D01*
X234197136Y-82577136D02*
X234283860Y-82577136D01*
X234197136Y-82577136D02*
X235587136Y-82577136D01*
X235500412Y-82577136D02*
X235587136Y-82577136D01*
X235587136Y-82577136D02*
X235587136Y-82452136D01*
%TO.C,J10*%
X230234222Y-68267099D02*
X230725661Y-67775661D01*
X230718590Y-68751468D02*
X230234222Y-68267099D01*
X231202956Y-69235834D02*
X231264280Y-69174516D01*
X231202956Y-69235834D02*
X231821675Y-69854555D01*
X231821675Y-69854555D02*
X232034167Y-69642064D01*
X232124517Y-68314282D02*
X232185836Y-68252959D01*
X232185836Y-68252959D02*
X232804554Y-68871677D01*
X232592063Y-69084164D02*
X232804554Y-68871677D01*
%TO.C,D1*%
X164275002Y-88000002D02*
X168925000Y-88000004D01*
X164275004Y-93450000D02*
X168925002Y-93450002D01*
X163940002Y-87645003D02*
X163700002Y-87975002D01*
X163460002Y-87645002D01*
X163940002Y-87645003D01*
G36*
X163940002Y-87645003D02*
G01*
X163700002Y-87975002D01*
X163460002Y-87645002D01*
X163940002Y-87645003D01*
G37*
%TO.C,C19*%
X171840001Y-70615580D02*
X171840000Y-70334418D01*
X172860000Y-70615580D02*
X172859999Y-70334418D01*
%TO.C,J2*%
X158442966Y-89900864D02*
X158230475Y-90113352D01*
X158849193Y-90732070D02*
X158230475Y-90113352D01*
X158910513Y-90670749D02*
X158849193Y-90732070D01*
X159213354Y-89130474D02*
X159000862Y-89342965D01*
X159832073Y-89749195D02*
X159213354Y-89130474D01*
X159832073Y-89749195D02*
X159770747Y-89810512D01*
X160316439Y-90233561D02*
X160800807Y-90717930D01*
X160800807Y-90717930D02*
X160309368Y-91209368D01*
%TO.C,U4*%
X165337499Y-73384998D02*
X163137499Y-73384997D01*
X165337499Y-73384998D02*
X167537502Y-73385001D01*
X165337501Y-66615002D02*
X163137498Y-66614999D01*
X165337501Y-66615002D02*
X167537501Y-66615003D01*
X169527500Y-73165000D02*
X169197498Y-72925003D01*
X169527500Y-72685001D01*
X169527500Y-73165000D01*
G36*
X169527500Y-73165000D02*
G01*
X169197498Y-72925003D01*
X169527500Y-72685001D01*
X169527500Y-73165000D01*
G37*
%TO.C,C17*%
X173938747Y-90565006D02*
X174461255Y-90565006D01*
X173938747Y-92034998D02*
X174461255Y-92034998D01*
%TO.C,U3*%
X174112498Y-86940003D02*
X173312498Y-86940003D01*
X174112498Y-86940003D02*
X174912498Y-86940003D01*
X174112498Y-90060003D02*
X173312498Y-90060003D01*
X174112498Y-90060003D02*
X174912498Y-90060003D01*
X175652498Y-90340003D02*
X175172497Y-90340005D01*
X175412499Y-90010000D01*
X175652498Y-90340003D01*
G36*
X175652498Y-90340003D02*
G01*
X175172497Y-90340005D01*
X175412499Y-90010000D01*
X175652498Y-90340003D01*
G37*
%TO.C,J4*%
X179217966Y-69175865D02*
X179005475Y-69388352D01*
X179624193Y-70007070D02*
X179005475Y-69388352D01*
X179685514Y-69945748D02*
X179624193Y-70007070D01*
X179988354Y-68405474D02*
X179775862Y-68617965D01*
X180607073Y-69024195D02*
X179988354Y-68405474D01*
X180607073Y-69024195D02*
X180545748Y-69085514D01*
X181091439Y-69508561D02*
X181575807Y-69992930D01*
X181575807Y-69992930D02*
X181084368Y-70484368D01*
%TO.C,J14*%
X208297136Y-81207136D02*
X208992136Y-81207136D01*
X208297136Y-81892136D02*
X208297136Y-81207136D01*
X208297136Y-82577136D02*
X208297136Y-82452136D01*
X208297136Y-82577136D02*
X208383860Y-82577136D01*
X208297136Y-82577136D02*
X209687136Y-82577136D01*
X209600412Y-82577136D02*
X209687136Y-82577136D01*
X209687136Y-82577136D02*
X209687136Y-82452136D01*
%TO.C,J7*%
X231310066Y-87491329D02*
X231928784Y-86872611D01*
X231324206Y-89442943D02*
X230832768Y-88951504D01*
X231371387Y-87552650D02*
X231310066Y-87491329D01*
X231808575Y-88958575D02*
X231324206Y-89442943D01*
X232141272Y-87085102D02*
X231928784Y-86872611D01*
X232292942Y-88474208D02*
X232231622Y-88412883D01*
X232292942Y-88474208D02*
X232911662Y-87855490D01*
X232911662Y-87855490D02*
X232699171Y-87642998D01*
%TO.C,C4*%
X170540001Y-90694295D02*
X170540002Y-90975457D01*
X171560000Y-90694295D02*
X171560001Y-90975457D01*
%TO.C,J3*%
X158240000Y-76469492D02*
X158240001Y-76769999D01*
X158240002Y-75379999D02*
X158240001Y-75680507D01*
X161114999Y-76683279D02*
X161115001Y-76769999D01*
X161115001Y-76769999D02*
X158240001Y-76769999D01*
X161115004Y-75380000D02*
X158240002Y-75379999D01*
X161115004Y-75380000D02*
X161115000Y-75466722D01*
X161800001Y-75380000D02*
X162485001Y-75380001D01*
X162485001Y-75380001D02*
X162485001Y-76075000D01*
%TO.C,C16*%
X176515004Y-88188747D02*
X176515001Y-88711254D01*
X177984999Y-88188748D02*
X177984996Y-88711255D01*
%TO.C,J1*%
X233872136Y-74182136D02*
X234567136Y-74182136D01*
X233872136Y-74867136D02*
X233872136Y-74182136D01*
X233872136Y-75552136D02*
X233872136Y-75427136D01*
X233872136Y-75552136D02*
X233958860Y-75552136D01*
X233872136Y-75552136D02*
X235262136Y-75552136D01*
X235175412Y-75552136D02*
X235262136Y-75552136D01*
X235262136Y-75552136D02*
X235262136Y-75427136D01*
%TO.C,J16*%
X217722136Y-90507136D02*
X218417136Y-90507136D01*
X217722136Y-91192136D02*
X217722136Y-90507136D01*
X217722136Y-91877136D02*
X217722136Y-91752136D01*
X217722136Y-91877136D02*
X217808860Y-91877136D01*
X217722136Y-91877136D02*
X219112136Y-91877136D01*
X219025412Y-91877136D02*
X219112136Y-91877136D01*
X219112136Y-91877136D02*
X219112136Y-91752136D01*
%TO.C,J18*%
X217722136Y-64707136D02*
X218417136Y-64707136D01*
X217722136Y-65392136D02*
X217722136Y-64707136D01*
X217722136Y-66077136D02*
X217722136Y-65952136D01*
X217722136Y-66077136D02*
X217808860Y-66077136D01*
X217722136Y-66077136D02*
X219112136Y-66077136D01*
X219025412Y-66077136D02*
X219112136Y-66077136D01*
X219112136Y-66077136D02*
X219112136Y-65952136D01*
%TO.C,R14*%
X160627501Y-87662742D02*
X160627500Y-88137258D01*
X161672500Y-87662742D02*
X161672499Y-88137258D01*
%TO.C,R9*%
X159137742Y-81052500D02*
X159612258Y-81052500D01*
X159137742Y-82097500D02*
X159612258Y-82097500D01*
%TO.C,J13*%
X208297136Y-74257136D02*
X208992136Y-74257136D01*
X208297136Y-74942136D02*
X208297136Y-74257136D01*
X208297136Y-75627136D02*
X208297136Y-75502136D01*
X208297136Y-75627136D02*
X208383860Y-75627136D01*
X208297136Y-75627136D02*
X209687136Y-75627136D01*
X209600412Y-75627136D02*
X209687136Y-75627136D01*
X209687136Y-75627136D02*
X209687136Y-75502136D01*
%TO.C,J8*%
X211910066Y-68291329D02*
X212528784Y-67672611D01*
X211924206Y-70242943D02*
X211432768Y-69751504D01*
X211971389Y-68352649D02*
X211910066Y-68291329D01*
X212408575Y-69758575D02*
X211924206Y-70242943D01*
X212741271Y-67885102D02*
X212528784Y-67672611D01*
X212892941Y-69274209D02*
X212831622Y-69212885D01*
X212892941Y-69274209D02*
X213511662Y-68655490D01*
X213511662Y-68655490D02*
X213299171Y-68442998D01*
%TO.C,C3*%
X161590001Y-91465580D02*
X161590000Y-91184418D01*
X162610000Y-91465580D02*
X162609999Y-91184418D01*
%TO.C,J17*%
X224997136Y-64607136D02*
X225692136Y-64607136D01*
X224997136Y-65292136D02*
X224997136Y-64607136D01*
X224997136Y-65977136D02*
X224997136Y-65852136D01*
X224997136Y-65977136D02*
X225083860Y-65977136D01*
X224997136Y-65977136D02*
X226387136Y-65977136D01*
X226300412Y-65977136D02*
X226387136Y-65977136D01*
X226387136Y-65977136D02*
X226387136Y-65852136D01*
%TO.C,R1*%
X181627500Y-73562258D02*
X181627500Y-73087742D01*
X182672500Y-73562258D02*
X182672500Y-73087742D01*
%TO.C,U5*%
X174975000Y-71225000D02*
X174975003Y-71450000D01*
X174975000Y-74575000D02*
X174975003Y-74349998D01*
X178324997Y-71450002D02*
X178325000Y-71225000D01*
X178325000Y-71225000D02*
X174975000Y-71225000D01*
X178325000Y-74575000D02*
X174975000Y-74575000D01*
X178325000Y-74575000D02*
X178324997Y-74350000D01*
X179177499Y-74679999D02*
X178697500Y-74680000D01*
X178937500Y-74350000D01*
X179177499Y-74679999D01*
G36*
X179177499Y-74679999D02*
G01*
X178697500Y-74680000D01*
X178937500Y-74350000D01*
X179177499Y-74679999D01*
G37*
%TO.C,SW2*%
X158674999Y-80399999D02*
X161974998Y-80400001D01*
X158675000Y-77900000D02*
X158675002Y-77599999D01*
X158675000Y-80100000D02*
X158674999Y-80399999D01*
X158675002Y-77599999D02*
X161975001Y-77600001D01*
X161974998Y-80400001D02*
X161975000Y-80100000D01*
X161975001Y-77600001D02*
X161975000Y-77900000D01*
%TO.C,J15*%
X225022136Y-90507136D02*
X225717136Y-90507136D01*
X225022136Y-91192136D02*
X225022136Y-90507136D01*
X225022136Y-91877136D02*
X225022136Y-91752136D01*
X225022136Y-91877136D02*
X225108860Y-91877136D01*
X225022136Y-91877136D02*
X226412136Y-91877136D01*
X226325412Y-91877136D02*
X226412136Y-91877136D01*
X226412136Y-91877136D02*
X226412136Y-91752136D01*
%TO.C,R15*%
X160652500Y-84962258D02*
X160652501Y-84487742D01*
X161697499Y-84962258D02*
X161697500Y-84487742D01*
%TO.C,C20*%
X167140582Y-65140000D02*
X166859420Y-65140000D01*
X167140582Y-66160000D02*
X166859420Y-66160000D01*
%TO.C,J9*%
X211235102Y-87343001D02*
X211022611Y-87555488D01*
X211641329Y-88174206D02*
X211022611Y-87555488D01*
X211702650Y-88112884D02*
X211641329Y-88174206D01*
X212005490Y-86572610D02*
X211792998Y-86785101D01*
X212624209Y-87191331D02*
X212005490Y-86572610D01*
X212624209Y-87191331D02*
X212562884Y-87252650D01*
X213108575Y-87675697D02*
X213592943Y-88160066D01*
X213592943Y-88160066D02*
X213101504Y-88651504D01*
%TO.C,J6*%
X157909028Y-70308091D02*
X158121519Y-70520583D01*
X158527749Y-69689372D02*
X157909028Y-70308091D01*
X158527749Y-69689372D02*
X158589066Y-69750697D01*
X158679419Y-71078479D02*
X158891906Y-71290970D01*
X159012115Y-69205006D02*
X159496484Y-68720638D01*
X159449302Y-70610933D02*
X159510624Y-70672252D01*
X159496484Y-68720638D02*
X159987922Y-69212077D01*
X159510624Y-70672252D02*
X158891906Y-71290970D01*
%TO.C,C18*%
X170190001Y-70615580D02*
X170190000Y-70334418D01*
X171210000Y-70615580D02*
X171209999Y-70334418D01*
%TO.C,J5*%
X179935823Y-89931300D02*
X180554541Y-89312582D01*
X179949963Y-91882914D02*
X179458525Y-91391475D01*
X179997146Y-89992620D02*
X179935823Y-89931300D01*
X180434332Y-91398546D02*
X179949963Y-91882914D01*
X180767028Y-89525073D02*
X180554541Y-89312582D01*
X180918698Y-90914180D02*
X180857379Y-90852856D01*
X180918698Y-90914180D02*
X181537419Y-90295461D01*
X181537419Y-90295461D02*
X181324928Y-90082969D01*
%TO.C,J11*%
X180950000Y-75605000D02*
X182630002Y-75605002D01*
X180950001Y-84545001D02*
X182629999Y-84545000D01*
X186400001Y-75605000D02*
X184970003Y-75605000D01*
X186400001Y-84545000D02*
X184970000Y-84544998D01*
X186400001Y-84545000D02*
X186400001Y-75605000D01*
X177900002Y-83275000D02*
G75*
G02*
X177700000Y-83275000I-100001J0D01*
G01*
X177700000Y-83275000D02*
G75*
G02*
X177900002Y-83275000I100001J0D01*
G01*
%TO.C,R2*%
X176277500Y-83837742D02*
X176277500Y-84312258D01*
X177322500Y-83837742D02*
X177322500Y-84312258D01*
%TO.C,R10*%
X172737742Y-66227500D02*
X173212258Y-66227501D01*
X172737742Y-67272499D02*
X173212258Y-67272500D01*
%TD*%
M02*
