%TF.GenerationSoftware,KiCad,Pcbnew,8.0.0*%
%TF.CreationDate,2024-05-16T16:09:19+03:00*%
%TF.ProjectId,pressure_sensor,70726573-7375-4726-955f-73656e736f72,rev?*%
%TF.SameCoordinates,Original*%
%TF.FileFunction,Soldermask,Top*%
%TF.FilePolarity,Negative*%
%FSLAX46Y46*%
G04 Gerber Fmt 4.6, Leading zero omitted, Abs format (unit mm)*
G04 Created by KiCad (PCBNEW 8.0.0) date 2024-05-16 16:09:19*
%MOMM*%
%LPD*%
G01*
G04 APERTURE LIST*
G04 Aperture macros list*
%AMRoundRect*
0 Rectangle with rounded corners*
0 $1 Rounding radius*
0 $2 $3 $4 $5 $6 $7 $8 $9 X,Y pos of 4 corners*
0 Add a 4 corners polygon primitive as box body*
4,1,4,$2,$3,$4,$5,$6,$7,$8,$9,$2,$3,0*
0 Add four circle primitives for the rounded corners*
1,1,$1+$1,$2,$3*
1,1,$1+$1,$4,$5*
1,1,$1+$1,$6,$7*
1,1,$1+$1,$8,$9*
0 Add four rect primitives between the rounded corners*
20,1,$1+$1,$2,$3,$4,$5,0*
20,1,$1+$1,$4,$5,$6,$7,0*
20,1,$1+$1,$6,$7,$8,$9,0*
20,1,$1+$1,$8,$9,$2,$3,0*%
%AMHorizOval*
0 Thick line with rounded ends*
0 $1 width*
0 $2 $3 position (X,Y) of the first rounded end (center of the circle)*
0 $4 $5 position (X,Y) of the second rounded end (center of the circle)*
0 Add line between two ends*
20,1,$1,$2,$3,$4,$5,0*
0 Add two circle primitives to create the rounded ends*
1,1,$1,$2,$3*
1,1,$1,$4,$5*%
%AMRotRect*
0 Rectangle, with rotation*
0 The origin of the aperture is its center*
0 $1 length*
0 $2 width*
0 $3 Rotation angle, in degrees counterclockwise*
0 Add horizontal line*
21,1,$1,$2,0,0,$3*%
G04 Aperture macros list end*
%ADD10C,0.010000*%
%ADD11R,0.850000X0.850000*%
%ADD12RotRect,0.850000X0.850000X45.000000*%
%ADD13HorizOval,0.850000X0.000000X0.000000X0.000000X0.000000X0*%
%ADD14R,1.000000X0.400000*%
%ADD15RoundRect,0.225000X0.250000X-0.225000X0.250000X0.225000X-0.250000X0.225000X-0.250000X-0.225000X0*%
%ADD16RotRect,0.850000X0.850000X225.000000*%
%ADD17HorizOval,0.850000X0.000000X0.000000X0.000000X0.000000X0*%
%ADD18RoundRect,0.100000X0.637500X0.100000X-0.637500X0.100000X-0.637500X-0.100000X0.637500X-0.100000X0*%
%ADD19RoundRect,0.250000X-0.250000X-0.475000X0.250000X-0.475000X0.250000X0.475000X-0.250000X0.475000X0*%
%ADD20RoundRect,0.150000X0.512500X0.150000X-0.512500X0.150000X-0.512500X-0.150000X0.512500X-0.150000X0*%
%ADD21RotRect,0.850000X0.850000X135.000000*%
%ADD22HorizOval,0.850000X0.000000X0.000000X0.000000X0.000000X0*%
%ADD23RoundRect,0.225000X-0.250000X0.225000X-0.250000X-0.225000X0.250000X-0.225000X0.250000X0.225000X0*%
%ADD24O,0.850000X0.850000*%
%ADD25RoundRect,0.250000X-0.475000X0.250000X-0.475000X-0.250000X0.475000X-0.250000X0.475000X0.250000X0*%
%ADD26RoundRect,0.200000X-0.275000X0.200000X-0.275000X-0.200000X0.275000X-0.200000X0.275000X0.200000X0*%
%ADD27RoundRect,0.200000X-0.200000X-0.275000X0.200000X-0.275000X0.200000X0.275000X-0.200000X0.275000X0*%
%ADD28RoundRect,0.200000X0.275000X-0.200000X0.275000X0.200000X-0.275000X0.200000X-0.275000X-0.200000X0*%
%ADD29R,1.400000X0.300000*%
%ADD30C,0.800000*%
%ADD31R,0.900000X1.700000*%
%ADD32RoundRect,0.225000X0.225000X0.250000X-0.225000X0.250000X-0.225000X-0.250000X0.225000X-0.250000X0*%
%ADD33RotRect,0.850000X0.850000X315.000000*%
%ADD34HorizOval,0.850000X0.000000X0.000000X0.000000X0.000000X0*%
%ADD35C,0.600000*%
%ADD36O,2.204000X1.104000*%
%ADD37O,1.904000X1.104000*%
G04 APERTURE END LIST*
D10*
%TO.C,J11*%
X179670001Y-80625000D02*
X179670001Y-81025000D01*
X178429999Y-81024999D01*
X178430002Y-80624999D01*
X179670001Y-80625000D01*
G36*
X179670001Y-80625000D02*
G01*
X179670001Y-81025000D01*
X178429999Y-81024999D01*
X178430002Y-80624999D01*
X179670001Y-80625000D01*
G37*
X179670001Y-78025000D02*
X178430000Y-78024999D01*
X178430000Y-77325000D01*
X179670001Y-77325000D01*
X179670001Y-78025000D01*
G36*
X179670001Y-78025000D02*
G01*
X178430000Y-78024999D01*
X178430000Y-77325000D01*
X179670001Y-77325000D01*
X179670001Y-78025000D01*
G37*
X179670001Y-79525000D02*
X178430000Y-79525001D01*
X178430002Y-79125000D01*
X179670001Y-79125000D01*
X179670001Y-79525000D01*
G36*
X179670001Y-79525000D02*
G01*
X178430000Y-79525001D01*
X178430002Y-79125000D01*
X179670001Y-79125000D01*
X179670001Y-79525000D01*
G37*
X179670001Y-80525000D02*
X178430000Y-80525001D01*
X178430000Y-80125001D01*
X179670000Y-80124999D01*
X179670001Y-80525000D01*
G36*
X179670001Y-80525000D02*
G01*
X178430000Y-80525001D01*
X178430000Y-80125001D01*
X179670000Y-80124999D01*
X179670001Y-80525000D01*
G37*
X179670001Y-81625001D02*
X179670000Y-82025001D01*
X178430000Y-82025000D01*
X178430001Y-81624999D01*
X179670001Y-81625001D01*
G36*
X179670001Y-81625001D02*
G01*
X179670000Y-82025001D01*
X178430000Y-82025000D01*
X178430001Y-81624999D01*
X179670001Y-81625001D01*
G37*
X179670001Y-77225000D02*
X178430001Y-77225000D01*
X178430001Y-76525000D01*
X179670001Y-76525000D01*
X179670001Y-77225000D01*
G36*
X179670001Y-77225000D02*
G01*
X178430001Y-77225000D01*
X178430001Y-76525000D01*
X179670001Y-76525000D01*
X179670001Y-77225000D01*
G37*
X179670001Y-78525001D02*
X178430001Y-78524999D01*
X178430000Y-78125000D01*
X179670001Y-78124999D01*
X179670001Y-78525001D01*
G36*
X179670001Y-78525001D02*
G01*
X178430001Y-78524999D01*
X178430000Y-78125000D01*
X179670001Y-78124999D01*
X179670001Y-78525001D01*
G37*
X179670001Y-80024999D02*
X178430001Y-80025000D01*
X178430000Y-79625001D01*
X179670002Y-79624999D01*
X179670001Y-80024999D01*
G36*
X179670001Y-80024999D02*
G01*
X178430001Y-80025000D01*
X178430000Y-79625001D01*
X179670002Y-79624999D01*
X179670001Y-80024999D01*
G37*
X179670001Y-81125001D02*
X179670001Y-81525000D01*
X178430001Y-81525000D01*
X178430001Y-81124999D01*
X179670001Y-81125001D01*
G36*
X179670001Y-81125001D02*
G01*
X179670001Y-81525000D01*
X178430001Y-81525000D01*
X178430001Y-81124999D01*
X179670001Y-81125001D01*
G37*
X179670001Y-83625000D02*
X178430001Y-83625000D01*
X178430001Y-82925000D01*
X179670001Y-82925000D01*
X179670001Y-83625000D01*
G36*
X179670001Y-83625000D02*
G01*
X178430001Y-83625000D01*
X178430001Y-82925000D01*
X179670001Y-82925000D01*
X179670001Y-83625000D01*
G37*
X179670000Y-79025001D02*
X178430002Y-79024999D01*
X178430001Y-78625000D01*
X179670001Y-78625000D01*
X179670000Y-79025001D01*
G36*
X179670000Y-79025001D02*
G01*
X178430002Y-79024999D01*
X178430001Y-78625000D01*
X179670001Y-78625000D01*
X179670000Y-79025001D01*
G37*
X179670000Y-82125000D02*
X179670001Y-82825001D01*
X178430002Y-82824999D01*
X178430002Y-82124999D01*
X179670000Y-82125000D01*
G36*
X179670000Y-82125000D02*
G01*
X179670001Y-82825001D01*
X178430002Y-82824999D01*
X178430002Y-82124999D01*
X179670000Y-82125000D01*
G37*
%TD*%
D11*
%TO.C,J12*%
X234892136Y-81892136D03*
%TD*%
D12*
%TO.C,J10*%
X231210029Y-68260029D03*
D13*
X231917136Y-68967136D03*
%TD*%
D14*
%TO.C,D1*%
X163700004Y-88450003D03*
X163700002Y-89100003D03*
X163700004Y-89750004D03*
X163700004Y-90400006D03*
X163699994Y-91049993D03*
X163700000Y-91700005D03*
X163700001Y-92350005D03*
X163700002Y-93000001D03*
X169500000Y-93000001D03*
X169500002Y-92350001D03*
X169500000Y-91700000D03*
X169500000Y-91049998D03*
X169500010Y-90400011D03*
X169500004Y-89749999D03*
X169500003Y-89099999D03*
X169500002Y-88450003D03*
%TD*%
D15*
%TO.C,C19*%
X172350000Y-71250000D03*
X172350000Y-69699998D03*
%TD*%
D16*
%TO.C,J2*%
X159825000Y-90725000D03*
D17*
X159117893Y-90017893D03*
%TD*%
D18*
%TO.C,U4*%
X168199999Y-72925000D03*
X168200000Y-72275000D03*
X168200000Y-71625000D03*
X168200000Y-70975000D03*
X168199999Y-70324999D03*
X168199999Y-69675001D03*
X168200000Y-69025000D03*
X168200000Y-68375001D03*
X168199999Y-67724999D03*
X168200004Y-67075001D03*
X162475001Y-67075000D03*
X162475000Y-67725000D03*
X162475000Y-68375000D03*
X162475000Y-69025000D03*
X162475001Y-69675001D03*
X162475001Y-70324999D03*
X162475000Y-70975000D03*
X162475000Y-71624999D03*
X162475001Y-72275001D03*
X162474996Y-72924999D03*
%TD*%
D19*
%TO.C,C17*%
X173250002Y-91300002D03*
X175150000Y-91300002D03*
%TD*%
D20*
%TO.C,U3*%
X175249998Y-89450003D03*
X175249998Y-88500003D03*
X175249998Y-87550003D03*
X172974998Y-87550003D03*
X172974998Y-89450003D03*
%TD*%
D16*
%TO.C,J4*%
X180600000Y-70000000D03*
D17*
X179892893Y-69292893D03*
%TD*%
D11*
%TO.C,J14*%
X208992136Y-81892136D03*
%TD*%
D21*
%TO.C,J7*%
X231317136Y-88467136D03*
D22*
X232024243Y-87760029D03*
%TD*%
D23*
%TO.C,C4*%
X171050001Y-90059875D03*
X171050001Y-91609877D03*
%TD*%
D11*
%TO.C,J3*%
X161800001Y-76075000D03*
D24*
X160800001Y-76075000D03*
X159800001Y-76075000D03*
X158800001Y-76075000D03*
%TD*%
D25*
%TO.C,C16*%
X177250000Y-87500002D03*
X177250000Y-89400000D03*
%TD*%
D11*
%TO.C,J1*%
X234567136Y-74867136D03*
%TD*%
%TO.C,J16*%
X218417136Y-91192136D03*
%TD*%
%TO.C,J18*%
X218417136Y-65392136D03*
%TD*%
D26*
%TO.C,R14*%
X161150000Y-87075000D03*
X161150000Y-88725000D03*
%TD*%
D27*
%TO.C,R9*%
X158550000Y-81575000D03*
X160200000Y-81575000D03*
%TD*%
D11*
%TO.C,J13*%
X208992136Y-74942136D03*
%TD*%
D21*
%TO.C,J8*%
X211917136Y-69267136D03*
D22*
X212624243Y-68560029D03*
%TD*%
D15*
%TO.C,C3*%
X162100000Y-92100000D03*
X162100000Y-90549998D03*
%TD*%
D11*
%TO.C,J17*%
X225692136Y-65292136D03*
%TD*%
D28*
%TO.C,R1*%
X182150000Y-74150000D03*
X182150000Y-72500000D03*
%TD*%
D29*
%TO.C,U5*%
X178850005Y-73899998D03*
X178850000Y-73400000D03*
X178850000Y-72900000D03*
X178850002Y-72400004D03*
X178850001Y-71899999D03*
X174449995Y-71900002D03*
X174450000Y-72400000D03*
X174450000Y-72900000D03*
X174449998Y-73399996D03*
X174449999Y-73900001D03*
%TD*%
D30*
%TO.C,SW2*%
X160325000Y-79000000D03*
D31*
X158625000Y-79000000D03*
X162025000Y-79000000D03*
%TD*%
D11*
%TO.C,J15*%
X225717136Y-91192136D03*
%TD*%
D28*
%TO.C,R15*%
X161175000Y-85550000D03*
X161175000Y-83900000D03*
%TD*%
D32*
%TO.C,C20*%
X167775002Y-65650000D03*
X166225000Y-65650000D03*
%TD*%
D16*
%TO.C,J9*%
X212617136Y-88167136D03*
D17*
X211910029Y-87460029D03*
%TD*%
D33*
%TO.C,J6*%
X159503554Y-69696445D03*
D34*
X158796447Y-70403552D03*
%TD*%
D15*
%TO.C,C18*%
X170700000Y-71250000D03*
X170700000Y-69699998D03*
%TD*%
D21*
%TO.C,J5*%
X179942893Y-90907107D03*
D22*
X180650000Y-90200000D03*
%TD*%
D35*
%TO.C,J11*%
X180120001Y-82965000D03*
X180120001Y-77185000D03*
D36*
X179630001Y-84400000D03*
X179630002Y-75749999D03*
D37*
X183800001Y-84400000D03*
X183800001Y-75750000D03*
%TD*%
D26*
%TO.C,R2*%
X176800000Y-83250000D03*
X176800000Y-84900000D03*
%TD*%
D27*
%TO.C,R10*%
X172150000Y-66750000D03*
X173800000Y-66750000D03*
%TD*%
M02*
